<svg width="36" height="42" viewBox="0 0 36 42" fill="none" xmlns="http://www.w3.org/2000/svg">
<path d="M17.816 41.2547C17.542 41.2547 17.2869 41.1155 17.1386 40.8852L13.3998 35.0798C9.68446 34.1308 6.32462 31.9645 3.91033 28.9542C1.38872 25.8101 0 21.8544 0 17.8159C0 13.0571 1.85324 8.58316 5.21824 5.21816C8.58307 1.85316 13.0571 0 17.816 0C22.5749 0 27.0488 1.85316 30.4139 5.21816C33.7789 8.58316 35.6321 13.0571 35.6321 17.8159C35.6321 21.8544 34.2434 25.8101 31.7218 28.9542C29.3074 31.9645 25.9476 34.1308 22.2323 35.0798L18.4936 40.8852C18.3451 41.1155 18.0899 41.2547 17.816 41.2547ZM17.816 1.61151C8.88072 1.61151 1.61143 8.8808 1.61143 17.8158C1.61143 25.374 6.742 31.8603 14.0881 33.5894C14.2912 33.6373 14.4679 33.7621 14.5809 33.9375L17.816 38.9608L21.051 33.9375C21.164 33.762 21.3407 33.6372 21.5438 33.5894C28.8899 31.8603 34.0205 25.374 34.0205 17.8158C34.0205 8.8808 26.7512 1.61151 17.816 1.61151Z" fill="black"/>
<path d="M17.8161 29.4442C24.2384 29.4442 29.4447 24.238 29.4447 17.8158C29.4447 11.3936 24.2384 6.18738 17.8161 6.18738C11.3938 6.18738 6.1875 11.3936 6.1875 17.8158C6.1875 24.238 11.3938 29.4442 17.8161 29.4442Z" fill="#25B4E5"/>
<path d="M18 11.373C18.5859 11.373 18.8789 11.666 18.8789 12.252C18.8789 12.8379 18.5859 13.1309 18 13.1309C17.4141 13.1309 17.1211 12.8379 17.1211 12.252C17.1211 11.666 17.4141 11.373 18 11.373ZM17.1992 14.6738C17.1992 14.3809 17.4661 14.2344 18 14.2344C18.5339 14.2344 18.8008 14.3809 18.8008 14.6738V23.7852C18.8008 24.0846 18.5339 24.2344 18 24.2344C17.4661 24.2344 17.1992 24.0846 17.1992 23.7852V14.6738Z" fill="black"/>
</svg>
