<svg width="46" height="41" viewBox="0 0 46 41" fill="none" xmlns="http://www.w3.org/2000/svg">
<path d="M44.9918 28.0603H44.9646V22.8426C44.9643 22.68 44.9318 22.5868 44.8998 22.5074L41.651 13.913C41.5192 13.5644 41.1855 13.3337 40.8126 13.3337H35.5111V7.71629C35.5111 6.36976 34.4163 5.27435 33.0707 5.27435H17.2793C17.5672 5.84177 17.8008 6.44155 17.9732 7.06687H33.0707C33.4279 7.06687 33.7186 7.35824 33.7186 7.71629V28.0602H8.09288V18.2771C7.47366 18.1786 6.87424 18.0207 6.30037 17.8095V28.0603H6.27321C5.77821 28.0603 5.37695 28.4615 5.37695 28.9565V34.4694C5.37695 34.9644 5.77821 35.3657 6.27321 35.3657H10.4325C10.367 35.6772 10.3326 36.0001 10.3326 36.3309C10.3326 38.9054 12.4168 41 14.9786 41C17.5404 41 19.6247 38.9054 19.6247 36.3309C19.6247 36.0001 19.5902 35.6772 19.5248 35.3657H32.7213C32.6559 35.6772 32.6215 36.0001 32.6215 36.3309C32.6215 38.9054 34.7057 41 37.2676 41C39.8294 41 41.9136 38.9054 41.9136 36.3309C41.9136 36.0001 41.8792 35.6772 41.8137 35.3657H44.9918C45.4867 35.3657 45.888 34.9644 45.888 34.4694V28.9565C45.888 28.4616 45.4867 28.0603 44.9918 28.0603ZM35.5113 15.1263H40.1933L42.7715 21.9464H35.5113V15.1263ZM35.5113 23.7389H43.1722V28.0598H35.5113V23.7389ZM14.9787 39.2075C13.4053 39.2075 12.1252 37.9171 12.1252 36.3309C12.1252 34.7448 13.4054 33.4544 14.9787 33.4544C16.5521 33.4544 17.8322 34.7447 17.8322 36.3309C17.8322 37.9171 16.5522 39.2075 14.9787 39.2075ZM37.2676 39.2075C35.6941 39.2075 34.414 37.9171 34.414 36.3309C34.414 34.7448 35.6941 33.4544 37.2676 33.4544C38.841 33.4544 40.1211 34.7447 40.1211 36.3309C40.1211 37.9171 38.841 39.2075 37.2676 39.2075ZM44.0955 33.5731H41.0267C41.0227 33.5731 41.0187 33.5732 41.0146 33.5733C40.1684 32.4151 38.8039 31.662 37.2677 31.662C35.7315 31.662 34.367 32.4151 33.5208 33.5732H18.7385C18.7342 33.5732 18.73 33.5733 18.7257 33.5734C17.8794 32.4152 16.5149 31.662 14.9787 31.662C13.4425 31.662 12.0782 32.4152 11.2318 33.5733H7.16956V29.853H44.0955V33.5731Z" fill="black"/>
<path d="M9.6085 19.2927C14.9151 19.2927 19.217 14.9738 19.217 9.64633C19.217 4.31881 14.9151 0 9.6085 0C4.30187 0 0 4.31881 0 9.64633C0 14.9738 4.30187 19.2927 9.6085 19.2927Z" fill="#25B4E5"/>
<path d="M11.2808 10.9621H9.60915C9.11414 10.9621 8.71289 10.5609 8.71289 10.0659V7.26882C8.71289 6.77381 9.11414 6.37256 9.60915 6.37256C10.1042 6.37256 10.5054 6.77381 10.5054 7.26882V9.1696H11.2808C11.7758 9.1696 12.177 9.57085 12.177 10.0659C12.177 10.5609 11.7758 10.9621 11.2808 10.9621Z" fill="black"/>
</svg>
