<svg width="41" height="41" viewBox="0 0 41 41" fill="none" xmlns="http://www.w3.org/2000/svg">
<g clip-path="url(#clip0)">
<path d="M20.5012 33.2356C27.5349 33.2356 33.2369 27.5337 33.2369 20.5C33.2369 13.4663 27.5349 7.7644 20.5012 7.7644C13.4676 7.7644 7.76562 13.4663 7.76562 20.5C7.76562 27.5337 13.4676 33.2356 20.5012 33.2356Z" fill="#25B4E5"/>
<path d="M38.727 23.2182C38.292 23.1343 37.8727 23.4188 37.7891 23.853C36.1973 32.1139 28.9261 38.1097 20.5 38.1097C12.2514 38.1097 5.10968 32.3638 3.31905 24.372L3.52805 24.581C3.68444 24.7374 3.88936 24.8157 4.09428 24.8157C4.2992 24.8157 4.50412 24.7374 4.66044 24.5811C4.97322 24.2684 4.97322 23.7614 4.66052 23.4487L3.01371 21.8018C2.86356 21.6515 2.65984 21.5671 2.44748 21.5671C2.23511 21.5671 2.03139 21.6515 1.88125 21.8018L0.234519 23.4487C-0.0781863 23.7614 -0.0781863 24.2683 0.234599 24.5811C0.547224 24.8939 1.05436 24.8938 1.36706 24.581L1.66351 24.2846C3.45062 33.2314 11.3513 39.7112 20.5 39.7112C29.6924 39.7112 37.6249 33.1693 39.3617 24.1561C39.4454 23.7218 39.1612 23.3019 38.727 23.2182Z" fill="black"/>
<path d="M40.7648 16.4189C40.4522 16.1062 39.945 16.1062 39.6323 16.419L39.3359 16.7155C37.5488 7.76866 29.6481 1.28882 20.4994 1.28882C11.307 1.28882 3.37448 7.83072 1.63766 16.844C1.55398 17.2783 1.83818 17.6982 2.27244 17.7819C2.70726 17.8654 3.12663 17.5812 3.21032 17.1471C4.80219 8.88615 12.0734 2.89038 20.4994 2.89038C28.748 2.89038 35.8897 8.63623 37.6803 16.628L37.4713 16.419C37.1587 16.1063 36.6517 16.1062 36.3389 16.4189C36.0261 16.7316 36.0261 17.2386 36.3388 17.5514L37.9855 19.1983C38.1357 19.3485 38.3394 19.4329 38.5518 19.4329C38.7641 19.4329 38.9678 19.3485 39.118 19.1983L40.7647 17.5514C41.0777 17.2387 41.0777 16.7316 40.7648 16.4189Z" fill="black"/>
<path d="M16.699 16.5572H15.4471L15 27.2875H25.708L25.2609 16.5572H18.5544" stroke="black" stroke-width="1.1" stroke-miterlimit="22.9256" stroke-linecap="round" stroke-linejoin="round"/>
<path d="M18.5547 16.5572V14.7688C18.5547 12.3992 22.1315 12.4216 22.1315 14.7688" stroke="black" stroke-width="1.1" stroke-miterlimit="22.9256" stroke-linecap="round" stroke-linejoin="round"/>
<path d="M18.5547 18.4127H22.1315" stroke="black" stroke-width="1.1" stroke-miterlimit="22.9256" stroke-linecap="round" stroke-linejoin="round"/>
</g>
<defs>
<clipPath id="clip0">
<rect width="41" height="41" fill="white"/>
</clipPath>
</defs>
</svg>
