<svg width="42" height="41" viewBox="0 0 42 41" fill="none" xmlns="http://www.w3.org/2000/svg">
<path d="M23.6408 0C18.269 0 13.4539 2.38155 10.1953 6.14552C10.6502 6.37546 11.0769 6.68087 11.457 7.06198L13.7483 9.3595C16.1291 6.56181 19.6774 4.78688 23.6408 4.78688C30.809 4.78688 36.62 10.5929 36.62 17.7551C36.62 21.7304 34.8297 25.288 32.0108 27.6669L33.8514 29.5124C34.3973 30.0598 34.7874 30.7047 35.0219 31.3914C38.9266 28.1345 41.411 23.2347 41.411 17.7551C41.4109 7.94925 33.455 0 23.6408 0Z" fill="#25B4E5"/>
<path d="M34.4232 28.9413L31.7807 26.2916C30.7358 25.244 29.3473 24.667 27.8709 24.667C26.3945 24.667 25.0059 25.244 23.9609 26.2918L21.574 28.6866L12.2815 19.3729L14.6715 16.9751C16.8257 14.8151 16.8257 11.3005 14.6715 9.14061L12.0289 6.49094C10.9492 5.40827 9.51432 4.81201 7.98858 4.81201C6.46283 4.81201 5.028 5.40827 3.94823 6.49094C3.92607 6.51319 3.90521 6.53664 3.88579 6.56131L2.59194 8.20231C1.35688 9.76874 0.522428 11.6315 0.178683 13.5893C-0.167974 15.5639 -0.00823363 17.5995 0.640515 19.4762C1.1106 20.836 1.70184 21.8792 2.39774 22.577L18.3937 38.6118C18.9454 39.165 19.7198 39.6568 20.6956 40.0735C22.1516 40.6953 23.6979 41.0001 25.242 41C27.8129 40.9999 30.3771 40.1549 32.5031 38.5216L34.3433 37.1079C34.3714 37.0863 34.3981 37.0628 34.4232 37.0376C36.6494 34.8054 36.6494 31.1735 34.4232 28.9413ZM33.3136 35.8589L31.5177 37.2387C28.5776 39.4974 24.6742 40.0135 21.3308 38.5858C20.5466 38.2508 19.9438 37.8752 19.539 37.4694L3.54302 21.4346C3.02117 20.9113 2.55894 20.0745 2.16941 18.9475C1.02624 15.6406 1.65905 11.9981 3.86226 9.20378L5.12562 7.60144C5.89586 6.84545 6.91083 6.42964 7.98858 6.42964C9.08136 6.42964 10.1094 6.85709 10.8835 7.63323L13.526 10.2829C15.052 11.813 15.052 14.3027 13.5259 15.833L10.5663 18.8022C10.2516 19.118 10.2517 19.6289 10.5666 19.9445L21.0016 30.4033C21.1533 30.5555 21.3595 30.641 21.5743 30.6409C21.7892 30.6408 21.9953 30.5552 22.1469 30.4031L25.1063 27.434C25.8455 26.6928 26.8272 26.2847 27.8707 26.2847C28.9143 26.2847 29.896 26.6928 30.6352 27.434L33.2777 30.0837C34.8638 31.6739 34.8758 34.2538 33.3136 35.8589Z" fill="black"/>
<path fill-rule="evenodd" clip-rule="evenodd" d="M20 18.25C20 17.8358 20.3358 17.5 20.75 17.5H29.25C29.6642 17.5 30 17.8358 30 18.25C30 18.6642 29.6642 19 29.25 19H20.75C20.3358 19 20 18.6642 20 18.25Z" fill="black"/>
<path fill-rule="evenodd" clip-rule="evenodd" d="M20 14.25C20 13.8358 20.3358 13.5 20.75 13.5H31.25C31.6642 13.5 32 13.8358 32 14.25C32 14.6642 31.6642 15 31.25 15H20.75C20.3358 15 20 14.6642 20 14.25Z" fill="black"/>
</svg>
