<svg width="17" height="17" viewBox="0 0 17 17" fill="none" xmlns="http://www.w3.org/2000/svg">
<path d="M15.8173 4.71861C15.1748 4.03312 14.3047 3.63032 13.3476 3.57002C13.1156 2.78934 12.7242 2.10012 12.1835 1.53128C11.2976 0.599202 10.0789 0.0859375 8.75192 0.0859375C7.42492 0.0859375 6.2062 0.599234 5.3203 1.53128C4.77977 2.1 4.38844 2.78899 4.15639 3.56938C3.19686 3.62758 2.32559 4.03121 1.68443 4.7196C0.969634 5.48704 0.591797 6.53101 0.591797 7.73857C0.591797 8.94899 0.990042 10.1867 1.68443 11.1343C2.22062 11.8659 2.87661 12.3607 3.58525 12.5803L3.42183 13.1559C3.39453 13.252 3.41389 13.3554 3.47413 13.4351C3.53436 13.5148 3.62849 13.5617 3.72846 13.5617H4.11172V16.088C4.11172 16.264 4.25442 16.4067 4.43047 16.4067C4.60652 16.4067 4.74922 16.264 4.74922 16.088V13.5617H5.12776C5.22769 13.5617 5.32186 13.5149 5.38209 13.4351C5.44233 13.3554 5.46172 13.252 5.43439 13.1559L5.27199 12.5839C5.95097 12.3782 6.5752 11.9232 7.09035 11.2507C7.31516 11.3642 7.54574 11.4546 7.78062 11.5209L7.54638 12.3459C7.51908 12.442 7.53844 12.5454 7.59867 12.6251C7.65891 12.7048 7.75304 12.7517 7.85301 12.7517H8.43311V16.088C8.43311 16.2641 8.57581 16.4068 8.75186 16.4068C8.92791 16.4068 9.07061 16.2641 9.07061 16.088V12.7517H9.65074C9.75068 12.7517 9.84484 12.7048 9.90508 12.6251C9.96531 12.5454 9.9847 12.442 9.95737 12.3458L9.72313 11.5209C9.95836 11.4544 10.1893 11.3639 10.4144 11.2502C10.9314 11.9219 11.5555 12.3766 12.2327 12.5829L12.07 13.1558C12.0427 13.252 12.0621 13.3553 12.1223 13.4351C12.1826 13.5148 12.2767 13.5617 12.3767 13.5617H12.7576V16.0879C12.7576 16.264 12.9003 16.4067 13.0763 16.4067C13.2524 16.4067 13.3951 16.264 13.3951 16.0879V13.5617H13.776C13.8759 13.5617 13.97 13.5148 14.0303 13.4351C14.0905 13.3554 14.1099 13.252 14.0826 13.1558L13.9194 12.5811C14.6297 12.362 15.2872 11.8669 15.8245 11.1344C16.5196 10.1867 16.9182 8.94903 16.9182 7.73854C16.9183 6.5314 16.5376 5.48707 15.8173 4.71861ZM4.1503 12.9242L4.21373 12.7007C4.28567 12.7063 4.35792 12.7094 4.43044 12.7094C4.50152 12.7094 4.57224 12.7066 4.64262 12.7014L4.70588 12.9242H4.1503ZM4.4305 12.0719C3.61239 12.0719 2.81979 11.6051 2.19865 10.7575C1.58261 9.91679 1.22933 8.81644 1.22933 7.73857C1.22933 5.80901 2.35206 4.4144 4.00327 4.22228C3.93949 4.5866 3.90687 4.96699 3.90687 5.36134C3.90687 6.89756 4.41258 8.46816 5.29434 9.67033C5.66873 10.1808 6.08901 10.5995 6.54073 10.919C5.94874 11.6648 5.20799 12.0719 4.4305 12.0719ZM8.27488 12.1141L8.40958 11.6398C8.5231 11.6508 8.63722 11.6567 8.75189 11.6567C8.86656 11.6567 8.98068 11.6508 9.0942 11.6398L9.2289 12.1141H8.27488ZM8.75192 11.0192C7.67007 11.0192 6.62473 10.4063 5.80837 9.29332C5.00509 8.1981 4.54434 6.76497 4.54434 5.36137C4.54434 2.67394 6.31388 0.723436 8.75189 0.723436C11.1899 0.723436 12.9595 2.67394 12.9595 5.36137C12.9595 6.76497 12.4988 8.1981 11.6954 9.29332C10.8791 10.4063 9.83374 11.0192 8.75192 11.0192ZM12.7985 12.9242L12.8618 12.7012C12.933 12.7065 13.0045 12.7094 13.0763 12.7094C13.1481 12.7094 13.2195 12.7064 13.2907 12.701L13.3541 12.9242H12.7985ZM15.3106 10.7573C14.6888 11.605 13.8953 12.0719 13.0763 12.0719C12.3006 12.0719 11.5594 11.6647 10.9641 10.9183C11.4154 10.5989 11.8354 10.1804 12.2095 9.67033C13.0913 8.46819 13.597 6.89759 13.597 5.36137C13.597 4.9674 13.5644 4.58727 13.5007 4.22327C15.156 4.41906 16.2808 5.8122 16.2808 7.7386C16.2808 8.81641 15.9272 9.91669 15.3106 10.7573Z" fill="white"/>
</svg>
