<svg width="34" height="34" viewBox="0 0 34 34" fill="none" xmlns="http://www.w3.org/2000/svg">
<path d="M24.0571 20.7414L23.5198 8.77319H8.86483M4.71259 8.77319H1.977L1 32.2211H21.9077L4.71259 8.77319Z" stroke="#25B4E5" stroke-width="1.5" stroke-miterlimit="22.9256" stroke-linecap="round" stroke-linejoin="round"/>
<path d="M8.81592 8.77326V4.86527C8.81592 -0.312819 16.6319 -0.263969 16.6319 4.86527" stroke="#25B4E5" stroke-width="1.5" stroke-miterlimit="22.9256" stroke-linecap="round" stroke-linejoin="round"/>
<path d="M8.81592 12.8278H12.7239H16.6319" stroke="#25B4E5" stroke-width="1.5" stroke-miterlimit="22.9256" stroke-linecap="round" stroke-linejoin="round"/>
<path fill-rule="evenodd" clip-rule="evenodd" d="M24.91 23.8066C24.6171 23.5137 24.1422 23.5137 23.8493 23.8066C23.5564 24.0995 23.5564 24.5743 23.8493 24.8672L26.127 27.1449L23.8493 29.4226C23.5564 29.7155 23.5564 30.1903 23.8493 30.4832C24.1422 30.7761 24.6171 30.7761 24.91 30.4832L27.1876 28.2056L29.4654 30.4833C29.7583 30.7762 30.2331 30.7762 30.526 30.4833C30.8189 30.1904 30.8189 29.7155 30.526 29.4226L28.2483 27.1449L30.526 24.8672C30.8189 24.5743 30.8189 24.0994 30.526 23.8065C30.2331 23.5136 29.7583 23.5136 29.4654 23.8065L27.1876 26.0842L24.91 23.8066Z" fill="#25B4E5"/>
</svg>
