<svg width="49" height="49" viewBox="0 0 49 49" fill="none" xmlns="http://www.w3.org/2000/svg">
<g filter="url(#filter0_b)">
<rect width="49" height="49" rx="24.5" fill="#252525" fill-opacity="0.2"/>
</g>
<g clip-path="url(#clip0)">
<path d="M22.9328 26.2406C23.0588 26.2039 23.1763 26.1427 23.2787 26.0606C23.381 25.9784 23.4662 25.8769 23.5293 25.7619C23.5924 25.6468 23.6322 25.5205 23.6465 25.39C23.6608 25.2596 23.6492 25.1276 23.6125 25.0016L23.3422 24.0733C23.2679 23.8205 23.0971 23.6072 22.8666 23.4793C22.6362 23.3515 22.3648 23.3195 22.111 23.3903L22.104 23.3923L21.2801 20.5634C20.5217 17.9579 17.75 16.4452 15.1012 17.1913C13.4178 17.6572 11.9351 18.6654 10.8828 20.0595C9.85996 21.413 9.3035 23.0616 9.29684 24.7581C9.29684 24.9456 9.30403 25.1387 9.31815 25.3326C9.32734 25.4585 9.3838 25.5763 9.4762 25.6623C9.56861 25.7483 9.69012 25.7961 9.81634 25.7963C9.82847 25.7963 9.84084 25.7958 9.85315 25.7949C9.91866 25.7902 9.98259 25.7726 10.0413 25.7431C10.1 25.7136 10.1523 25.6729 10.1953 25.6232C10.2382 25.5735 10.2709 25.5159 10.2916 25.4535C10.3123 25.3912 10.3204 25.3254 10.3157 25.2599C10.3032 25.09 10.2969 24.9212 10.2969 24.7581C10.2969 21.7117 12.3844 18.9956 15.3725 18.1538C17.4947 17.5561 19.7143 18.7621 20.32 20.8429L21.1413 23.6634L10.0875 26.7779C9.89726 26.8306 9.71948 26.9208 9.56454 27.043C9.4096 27.1653 9.28062 27.3173 9.18515 27.49C9.09036 27.6596 9.03035 27.8464 9.00865 28.0395C8.98695 28.2326 9.00399 28.428 9.05878 28.6144C9.17181 28.9923 9.4289 29.3105 9.77454 29.5005C10.1202 29.6904 10.5267 29.7368 10.9062 29.6296L21.9704 26.5125L23.8937 33.1188C24.0912 33.792 24.1524 34.4979 24.0737 35.195C23.9951 35.8922 23.7781 36.5667 23.4355 37.1789C23.084 37.8127 22.6096 38.3699 22.0401 38.8181C21.4706 39.2662 20.8174 39.5962 20.1187 39.7888C19.625 39.9282 19.1145 39.999 18.6015 39.9991C16.2099 39.9991 14.005 38.4549 13.3162 36.0897L11.8137 30.9278C11.7959 30.8642 11.7657 30.8047 11.7247 30.7528C11.6838 30.7009 11.6329 30.6576 11.5752 30.6255C11.5174 30.5934 11.4538 30.573 11.3882 30.5656C11.3225 30.5582 11.256 30.5639 11.1925 30.5824C11.129 30.6009 11.0699 30.6317 11.0184 30.6732C10.9669 30.7147 10.9242 30.766 10.8927 30.8241C10.8612 30.8822 10.8415 30.946 10.8348 31.0117C10.8281 31.0775 10.8345 31.1439 10.8536 31.2072L12.3562 36.3691C13.1718 39.1699 15.7781 40.9989 18.6035 40.9989C19.2075 40.9987 19.8087 40.9154 20.39 40.7513C21.2159 40.5233 21.9879 40.1327 22.661 39.6026C23.3341 39.0724 23.8947 38.4133 24.3098 37.6638C24.7169 36.9362 24.9746 36.1346 25.068 35.3061C25.1613 34.4776 25.0885 33.6388 24.8536 32.8388L22.9328 26.2406ZM22.179 25.4146C22.1767 25.4152 22.1744 25.4156 22.1721 25.4162C22.1698 25.4168 22.169 25.4174 22.1673 25.4178L10.6352 28.6671C10.5095 28.7038 10.3743 28.6895 10.259 28.6273C10.1437 28.5651 10.0575 28.4601 10.019 28.3349C10.0014 28.2753 9.99602 28.2127 10.003 28.1509C10.01 28.0891 10.0293 28.0293 10.0597 27.9751C10.0914 27.9181 10.1342 27.868 10.1855 27.8277C10.2368 27.7874 10.2956 27.7578 10.3585 27.7405L21.8979 24.4892L21.9023 24.4882L21.9052 24.4871L22.3821 24.3528L22.6523 25.2812L22.179 25.4146Z" fill="white"/>
<path d="M13.737 30.3859C13.6993 30.2593 13.613 30.1528 13.4971 30.0896C13.3811 30.0264 13.2449 30.0117 13.1181 30.0486C12.9913 30.0855 12.8842 30.1711 12.8203 30.2866C12.7564 30.4022 12.7408 30.5383 12.7769 30.6654L13.0425 31.5779C13.0792 31.7046 13.1646 31.8116 13.2799 31.8755C13.3952 31.9395 13.5312 31.9553 13.6581 31.9194L21.3494 29.7525C21.4129 29.7346 21.4723 29.7043 21.5241 29.6633C21.5759 29.6223 21.6191 29.5714 21.6511 29.5137C21.6831 29.4559 21.7034 29.3924 21.7107 29.3267C21.718 29.2611 21.7123 29.1946 21.6938 29.1312L21.4282 28.2187C21.4099 28.1556 21.3794 28.0966 21.3384 28.0453C21.2973 27.9939 21.2465 27.9511 21.1889 27.9194C21.1313 27.8877 21.068 27.8677 21.0027 27.8605C20.9373 27.8533 20.8712 27.859 20.808 27.8774C20.7449 27.8958 20.686 27.9264 20.6347 27.9676C20.5835 28.0088 20.5408 28.0597 20.5093 28.1173C20.4777 28.175 20.4578 28.2383 20.4507 28.3037C20.4436 28.3691 20.4495 28.4352 20.4681 28.4983L20.5927 28.9265L13.8641 30.8224L13.737 30.3859Z" fill="white"/>
<path d="M11.7981 25.2375C11.9303 25.2375 12.0572 25.1851 12.1509 25.0919C12.2446 24.9986 12.2975 24.872 12.2981 24.7398C12.3079 22.5719 13.7981 20.6403 15.9226 20.0425C16.9844 19.7433 18.0945 20.345 18.3976 21.3841L18.8007 22.7691C18.8186 22.8327 18.8489 22.8921 18.8899 22.9438C18.9309 22.9956 18.9817 23.0388 19.0394 23.0708C19.0972 23.1028 19.1607 23.1231 19.2263 23.1305C19.2919 23.1378 19.3583 23.1321 19.4217 23.1136C19.4851 23.0952 19.5442 23.0644 19.5956 23.023C19.6471 22.9815 19.6898 22.9303 19.7213 22.8723C19.7528 22.8143 19.7726 22.7507 19.7793 22.685C19.7861 22.6193 19.7798 22.5529 19.7609 22.4897L19.3577 21.1045C18.9014 19.5403 17.2389 18.6323 15.6514 19.08C13.1001 19.798 11.3099 22.1237 11.2981 24.7353C11.2978 24.8009 11.3104 24.866 11.3353 24.9268C11.3602 24.9876 11.3967 25.0428 11.443 25.0895C11.4892 25.1361 11.5441 25.1732 11.6047 25.1986C11.6652 25.224 11.7302 25.2372 11.7959 25.2375H11.7981Z" fill="white"/>
<path d="M20.037 31.8086C20.0221 31.8217 20.008 31.8357 19.9948 31.8504L19.0156 32.9473L17.3719 33.4103L15.9487 32.9891C15.93 32.9835 15.9109 32.9791 15.8916 32.9758C15.6143 32.9265 15.3289 32.9491 15.0628 33.0413C14.7966 33.1336 14.5585 33.2924 14.3711 33.5028C14.1935 33.6985 14.069 33.9364 14.0094 34.1938C13.9498 34.4512 13.957 34.7197 14.0305 34.9735L14.5278 36.6813C14.603 36.9362 14.7417 37.1678 14.9309 37.3545C15.1201 37.5412 15.3536 37.6768 15.6095 37.7486C15.7615 37.7928 15.919 37.8153 16.0774 37.8154C16.4811 37.8153 16.8708 37.6675 17.173 37.3998C17.1879 37.3866 17.2019 37.3726 17.2152 37.3578L18.1944 36.261L19.8381 35.7979L21.2613 36.2192C21.2801 36.2248 21.2991 36.2292 21.3184 36.2325C21.4136 36.249 21.5101 36.2574 21.6067 36.2575C21.8394 36.2579 22.0696 36.209 22.282 36.1138C22.4944 36.0187 22.6842 35.8796 22.8389 35.7058C23.0164 35.5101 23.141 35.2722 23.2006 35.0148C23.2602 34.7573 23.253 34.4889 23.1795 34.2351L22.6824 32.5271C22.6072 32.2722 22.4684 32.0405 22.2792 31.8539C22.09 31.6672 21.8566 31.5317 21.6007 31.4599C21.3318 31.3809 21.0473 31.3714 20.7738 31.4324C20.5003 31.4934 20.2468 31.6228 20.037 31.8086ZM16.4919 36.6665C16.4087 36.7344 16.3103 36.7809 16.2051 36.8021C16.0998 36.8233 15.991 36.8185 15.8881 36.7882C15.7939 36.7635 15.7076 36.715 15.6376 36.6474C15.5675 36.5797 15.516 36.4952 15.4881 36.4019L14.9908 34.6938C14.9647 34.6028 14.9626 34.5066 14.9847 34.4146C15.0069 34.3226 15.0525 34.2379 15.1172 34.1688C15.1786 34.1 15.254 34.0451 15.3382 34.0076C15.4225 33.9701 15.5137 33.9509 15.6059 33.9513C15.6364 33.9513 15.6668 33.9534 15.697 33.9575L16.9649 34.3325L17.2429 35.2876L17.3609 35.6929L16.4919 36.6665ZM18.26 35.204L17.9897 34.275L18.95 34.0044L19.1954 34.8475L19.2204 34.9329L18.26 35.204ZM22.2191 34.5146C22.2453 34.6056 22.2474 34.7018 22.2252 34.7938C22.2031 34.8858 22.1574 34.9705 22.0927 35.0396C22.0208 35.1197 21.9303 35.1809 21.8292 35.2178C21.7281 35.2547 21.6194 35.2661 21.5129 35.2511L20.245 34.8761L19.9917 34.0056L19.849 33.5156L20.7181 32.5422C20.8012 32.4743 20.8997 32.4278 21.0049 32.4066C21.1101 32.3854 21.2189 32.3902 21.3218 32.4205C21.416 32.4451 21.5023 32.4936 21.5723 32.5612C21.6424 32.6289 21.6939 32.7134 21.7218 32.8067L22.2191 34.5146Z" fill="white"/>
<path d="M36.4683 23.9383C36.5765 23.9382 36.6817 23.903 36.7683 23.838C36.8548 23.7731 36.9179 23.6818 36.9481 23.5779L37.2137 22.6654C37.2325 22.6022 37.2387 22.5359 37.2318 22.4703C37.2249 22.4048 37.2051 22.3412 37.1736 22.2833C37.142 22.2255 37.0993 22.1744 37.048 22.133C36.9966 22.0917 36.9376 22.061 36.8743 22.0425C36.811 22.0241 36.7447 22.0184 36.6792 22.0257C36.6136 22.033 36.5502 22.0532 36.4925 22.0851C36.4348 22.117 36.384 22.16 36.343 22.2116C36.302 22.2632 36.2716 22.3225 36.2536 22.3859L36.1265 22.8224L29.3978 20.9267L29.5225 20.4986C29.5596 20.3712 29.5446 20.2344 29.4808 20.1182C29.417 20.0019 29.3097 19.9157 29.1823 19.8786C29.055 19.8415 28.9182 19.8565 28.8019 19.9203C28.6857 19.9841 28.5995 20.0914 28.5624 20.2187L28.2968 21.1312C28.2783 21.1946 28.2726 21.2611 28.28 21.3267C28.2873 21.3923 28.3076 21.4558 28.3396 21.5135C28.3717 21.5713 28.4148 21.6221 28.4666 21.6631C28.5184 21.704 28.5777 21.7343 28.6413 21.7522L36.3325 23.9191C36.3767 23.9317 36.4224 23.9381 36.4683 23.9383Z" fill="white"/>
<path d="M34.3395 11.0801C32.7513 10.6318 31.0884 11.5403 30.6333 13.1047L30.2301 14.4897C30.2111 14.5529 30.2048 14.6193 30.2116 14.685C30.2184 14.7506 30.2382 14.8143 30.2697 14.8723C30.3012 14.9303 30.3439 14.9815 30.3953 15.0229C30.4468 15.0644 30.5059 15.0952 30.5693 15.1136C30.6327 15.1321 30.6991 15.1378 30.7647 15.1304C30.8303 15.1231 30.8938 15.1028 30.9515 15.0708C31.0093 15.0387 31.0601 14.9956 31.1011 14.9438C31.142 14.8921 31.1724 14.8327 31.1903 14.7691L31.5934 13.3841C31.8959 12.3448 33.0059 11.7429 34.0684 12.0426C36.1924 12.6403 37.6828 14.5719 37.6926 16.7397C37.6932 16.872 37.7461 16.9986 37.8398 17.0918C37.9335 17.1851 38.0603 17.2375 38.1926 17.2375H38.1949C38.2605 17.2372 38.3255 17.224 38.3861 17.1986C38.4466 17.1732 38.5016 17.1361 38.5478 17.0895C38.594 17.0428 38.6306 16.9875 38.6554 16.9268C38.6803 16.866 38.6929 16.8009 38.6926 16.7352C38.6807 14.1235 36.8905 11.798 34.3395 11.0801Z" fill="white"/>
<path d="M40.8055 19.49C40.71 19.3173 40.5811 19.1653 40.4261 19.043C40.2712 18.9208 40.0934 18.8307 39.9032 18.7779L28.8494 15.6634L29.6707 12.8429C30.2764 10.7621 32.4957 9.55538 34.6182 10.1538C37.6067 10.9959 39.6938 13.7117 39.6938 16.7581C39.6938 16.9213 39.6876 17.0901 39.6751 17.2598C39.6703 17.3253 39.6784 17.3911 39.6991 17.4535C39.7197 17.5158 39.7525 17.5735 39.7954 17.6232C39.8384 17.6729 39.8907 17.7136 39.9494 17.7431C40.0081 17.7726 40.072 17.7902 40.1376 17.7949C40.1501 17.7958 40.1624 17.7963 40.1745 17.7963C40.3007 17.7961 40.4222 17.7483 40.5146 17.6623C40.607 17.5763 40.6634 17.4586 40.6726 17.3327C40.6868 17.1389 40.694 16.9456 40.694 16.7581C40.6873 15.0616 40.1309 13.413 39.1081 12.0595C38.0557 10.6653 36.5728 9.65716 34.8893 9.19125C32.2407 8.44506 29.4688 9.95788 28.7106 12.5633L27.8868 15.3923L27.8798 15.3903C27.626 15.3195 27.3546 15.3515 27.1242 15.4794C26.8938 15.6072 26.7229 15.8205 26.6486 16.0733L26.3782 17.0017C26.3041 17.2561 26.3341 17.5296 26.4615 17.7619C26.589 17.9942 26.8035 18.1664 27.0579 18.2406L25.1369 24.8391C24.902 25.6391 24.8291 26.4779 24.9225 27.3064C25.0158 28.1349 25.2736 28.9364 25.6806 29.6641C26.0958 30.4135 26.6564 31.0727 27.3294 31.6028C28.0025 32.133 28.7746 32.5235 29.6005 32.7516C30.1818 32.9157 30.7829 32.9991 31.3869 32.9992C34.2119 32.9992 36.8187 31.17 37.6342 28.3693L39.1367 23.2074C39.1559 23.1442 39.1623 23.0777 39.1556 23.012C39.1488 22.9462 39.1292 22.8824 39.0976 22.8243C39.0661 22.7662 39.0234 22.7149 38.9719 22.6735C38.9205 22.632 38.8613 22.6011 38.7978 22.5826C38.7344 22.5642 38.6679 22.5585 38.6022 22.5659C38.5365 22.5733 38.4729 22.5936 38.4152 22.6257C38.3574 22.6579 38.3066 22.7011 38.2656 22.753C38.2247 22.8049 38.1944 22.8644 38.1766 22.9281L36.6741 28.0899C35.8409 30.9513 32.7892 32.6109 29.8716 31.789C29.173 31.5964 28.5198 31.2664 27.9503 30.8182C27.3808 30.37 26.9065 29.8127 26.5551 29.1789C26.2124 28.5667 25.9954 27.8922 25.9167 27.195C25.838 26.4979 25.8992 25.792 26.0967 25.1188L28.02 18.5125L39.084 21.6299C39.4636 21.7371 39.8701 21.6907 40.2157 21.5008C40.5614 21.3108 40.8185 20.9926 40.9316 20.6147C40.9864 20.4283 41.0035 20.2328 40.9819 20.0396C40.9602 19.8465 40.9003 19.6597 40.8055 19.49ZM39.9717 20.3349C39.9331 20.4601 39.8469 20.5651 39.7316 20.6273C39.6163 20.6894 39.4812 20.7037 39.3554 20.6671L27.8234 17.4179C27.8217 17.4174 27.8202 17.4167 27.8186 17.4162C27.8169 17.4157 27.8139 17.4152 27.8115 17.4145L27.3383 17.2812L27.6086 16.3528L28.0856 16.4872L28.0884 16.4882C28.0897 16.4886 28.0911 16.4888 28.0925 16.4891L39.6321 19.7405C39.695 19.7577 39.7539 19.7873 39.8053 19.8276C39.8567 19.8679 39.8995 19.918 39.9313 19.975C39.9616 20.0293 39.9808 20.0891 39.9878 20.1509C39.9947 20.2127 39.9892 20.2753 39.9717 20.3349Z" fill="white"/>
<path d="M34.0988 24.9757C34.0795 24.9791 34.0604 24.9835 34.0416 24.9891L32.6185 25.4103L30.9747 24.9472L29.9955 23.8504C29.9823 23.8356 29.9682 23.8216 29.9533 23.8085C29.7435 23.6228 29.49 23.4933 29.2166 23.4323C28.9431 23.3713 28.6587 23.3807 28.3898 23.4597C28.1339 23.5315 27.9005 23.667 27.7113 23.8537C27.5221 24.0403 27.3834 24.272 27.3081 24.5269L26.811 26.2348C26.7375 26.4887 26.7303 26.7571 26.79 27.0145C26.8496 27.272 26.9741 27.5099 27.1517 27.7056C27.3064 27.8794 27.4962 28.0185 27.7086 28.1136C27.921 28.2088 28.1511 28.2577 28.3838 28.2573C28.4805 28.2572 28.5769 28.2488 28.6721 28.2323C28.6914 28.229 28.7105 28.2246 28.7293 28.219L30.1525 27.7977L31.7962 28.2608L32.7753 29.3576C32.7886 29.3724 32.8027 29.3864 32.8176 29.3996C33.1198 29.6673 33.5095 29.8151 33.9132 29.8152C34.0715 29.8151 34.2291 29.7926 34.3811 29.7484C34.6369 29.6765 34.8703 29.541 35.0595 29.3543C35.2486 29.1677 35.3872 28.9361 35.4625 28.6812L35.9596 26.9734C36.0331 26.7195 36.0403 26.4511 35.9807 26.1937C35.9211 25.9362 35.7965 25.6983 35.619 25.5026C35.4316 25.2924 35.1935 25.1336 34.9274 25.0413C34.6613 24.9491 34.3761 24.9265 34.0988 24.9757ZM29.9988 26.0052L29.7454 26.8757L28.4776 27.2507C28.371 27.2657 28.2623 27.2543 28.1612 27.2174C28.06 27.1806 27.9695 27.1193 27.8976 27.0392C27.833 26.9701 27.7873 26.8854 27.7652 26.7934C27.743 26.7013 27.7451 26.6052 27.7713 26.5142L28.2687 24.8062C28.2967 24.713 28.3481 24.6285 28.4182 24.5608C28.4882 24.4932 28.5745 24.4447 28.6687 24.4201C28.7296 24.4023 28.7928 24.3933 28.8562 24.3933C29.008 24.3932 29.1552 24.4456 29.2726 24.5417L30.1414 25.5152L29.9988 26.0052ZM31.9339 26.5046L31.7305 27.2036L30.7702 26.9331L30.837 26.7037L31.0405 26.0047L32.0007 26.2752L31.9339 26.5046ZM35 26.6937L34.5028 28.4017C34.4748 28.495 34.4234 28.5795 34.3533 28.6472C34.2833 28.7148 34.197 28.7633 34.1028 28.7879C33.9998 28.8183 33.891 28.8231 33.7858 28.8019C33.6806 28.7807 33.5822 28.7341 33.499 28.6662L32.6303 27.6928L32.7728 27.2029L33.0262 26.3324L34.2941 25.9574C34.4007 25.9423 34.5093 25.9537 34.6105 25.9906C34.7116 26.0274 34.8021 26.0887 34.874 26.1688C34.9386 26.2379 34.9841 26.3227 35.0062 26.4147C35.0283 26.5067 35.0261 26.6028 35 26.6937Z" fill="white"/>
</g>
<defs>
<filter id="filter0_b" x="-60" y="-60" width="169" height="169" filterUnits="userSpaceOnUse" color-interpolation-filters="sRGB">
<feFlood flood-opacity="0" result="BackgroundImageFix"/>
<feGaussianBlur in="BackgroundImage" stdDeviation="30"/>
<feComposite in2="SourceAlpha" operator="in" result="effect1_backgroundBlur"/>
<feBlend mode="normal" in="SourceGraphic" in2="effect1_backgroundBlur" result="shape"/>
</filter>
<clipPath id="clip0">
<rect width="32" height="32" fill="white" transform="translate(9 9)"/>
</clipPath>
</defs>
</svg>
