<svg width="25" height="25" viewBox="0 0 25 25" fill="none" xmlns="http://www.w3.org/2000/svg">
<g filter="url(#filter0_b)">
<rect width="25" height="25" rx="12.5" fill="#252525" fill-opacity="0.2"/>
</g>
<g clip-path="url(#clip0)">
<path d="M11.7004 13.388C11.7647 13.3693 11.8246 13.3381 11.8768 13.2962C11.929 13.2542 11.9725 13.2025 12.0047 13.1438C12.0369 13.0851 12.0572 13.0206 12.0645 12.954C12.0718 12.8875 12.0659 12.8202 12.0471 12.7559L11.9093 12.2822C11.8713 12.1533 11.7842 12.0444 11.6666 11.9792C11.5491 11.914 11.4106 11.8977 11.2811 11.9337L11.2775 11.9348L10.8572 10.4915C10.4702 9.16213 9.05607 8.39035 7.70467 8.77099C6.84579 9.00873 6.0893 9.52309 5.5524 10.2344C5.03056 10.9249 4.74665 11.7661 4.74325 12.6316C4.74325 12.7273 4.74692 12.8258 4.75413 12.9248C4.75881 12.989 4.78762 13.0491 4.83476 13.0929C4.88191 13.1368 4.9439 13.1612 5.0083 13.1613C5.01449 13.1613 5.0208 13.1611 5.02708 13.1606C5.06051 13.1582 5.09312 13.1492 5.12307 13.1342C5.15302 13.1192 5.17971 13.0984 5.20162 13.073C5.22354 13.0477 5.24024 13.0182 5.25078 12.9864C5.26132 12.9546 5.26549 12.9211 5.26305 12.8876C5.25668 12.801 5.25349 12.7148 5.25349 12.6316C5.25349 11.0773 6.31854 9.69159 7.84306 9.26206C8.92581 8.95712 10.0583 9.57246 10.3673 10.6341L10.7864 12.0731L5.14663 13.6622C5.04959 13.689 4.95888 13.735 4.87983 13.7974C4.80078 13.8598 4.73498 13.9373 4.68627 14.0255C4.6379 14.112 4.60729 14.2073 4.59621 14.3058C4.58514 14.4043 4.59384 14.504 4.62179 14.5991C4.67946 14.7919 4.81063 14.9543 4.98698 15.0512C5.16333 15.1481 5.37071 15.1718 5.56436 15.1171L11.2094 13.5267L12.1906 16.8973C12.2914 17.2407 12.3226 17.6009 12.2825 17.9566C12.2423 18.3123 12.1316 18.6564 11.9568 18.9688C11.7775 19.2921 11.5355 19.5764 11.2449 19.8051C10.9543 20.0337 10.6211 20.2021 10.2646 20.3003C10.0127 20.3715 9.75227 20.4076 9.49054 20.4076C8.27032 20.4076 7.14536 19.6198 6.79395 18.4131L6.02737 15.7794C6.01829 15.747 6.00286 15.7166 5.98197 15.6901C5.96108 15.6637 5.93514 15.6416 5.90567 15.6252C5.87619 15.6088 5.84376 15.5984 5.81025 15.5946C5.77673 15.5909 5.7428 15.5938 5.71042 15.6032C5.67804 15.6126 5.64785 15.6284 5.62159 15.6495C5.59534 15.6707 5.57354 15.6969 5.55746 15.7265C5.54138 15.7562 5.53134 15.7887 5.52791 15.8222C5.52449 15.8558 5.52775 15.8897 5.53751 15.922L6.30416 18.5556C6.72026 19.9846 8.05001 20.9178 9.49156 20.9178C9.79973 20.9177 10.1064 20.8752 10.403 20.7914C10.8244 20.6751 11.2183 20.4758 11.5617 20.2053C11.9051 19.9348 12.1911 19.5986 12.4029 19.2162C12.6106 18.8449 12.7421 18.436 12.7897 18.0133C12.8374 17.5906 12.8002 17.1626 12.6804 16.7544L11.7004 13.388ZM11.3158 12.9666C11.3146 12.9669 11.3134 12.9671 11.3123 12.9674C11.3111 12.9677 11.3107 12.968 11.3098 12.9682L5.4261 14.626C5.36193 14.6447 5.29299 14.6374 5.23416 14.6057C5.17533 14.574 5.13134 14.5204 5.11168 14.4565C5.10274 14.4261 5.09998 14.3942 5.10354 14.3626C5.10711 14.3311 5.11693 14.3006 5.13244 14.2729C5.14863 14.2439 5.17045 14.2183 5.19663 14.1977C5.22282 14.1772 5.25283 14.1621 5.28493 14.1533L11.1724 12.4944L11.1746 12.4939L11.1761 12.4934L11.4194 12.4248L11.5573 12.8985L11.3158 12.9666Z" fill="white"/>
<path d="M7.00862 15.5029C6.98938 15.4383 6.94537 15.384 6.88621 15.3517C6.82704 15.3195 6.75753 15.312 6.69283 15.3308C6.62814 15.3496 6.57352 15.3933 6.54091 15.4523C6.5083 15.5112 6.50033 15.5807 6.51876 15.6455L6.65428 16.1111C6.67301 16.1757 6.71655 16.2303 6.7754 16.2629C6.83425 16.2956 6.90362 16.3036 6.96837 16.2853L10.8925 15.1797C10.9249 15.1706 10.9552 15.1551 10.9816 15.1342C11.0081 15.1133 11.0301 15.0874 11.0464 15.0579C11.0628 15.0284 11.0731 14.996 11.0768 14.9625C11.0806 14.929 11.0776 14.8951 11.0682 14.8628L10.9327 14.3972C10.9234 14.365 10.9078 14.3349 10.8869 14.3087C10.8659 14.2825 10.84 14.2607 10.8106 14.2445C10.7812 14.2283 10.7489 14.2181 10.7156 14.2144C10.6822 14.2108 10.6485 14.2137 10.6163 14.2231C10.5841 14.2324 10.554 14.2481 10.5279 14.2691C10.5017 14.2901 10.48 14.316 10.4639 14.3455C10.4477 14.3749 10.4376 14.4072 10.434 14.4406C10.4304 14.4739 10.4334 14.5077 10.4428 14.5398L10.5064 14.7583L7.07344 15.7256L7.00862 15.5029Z" fill="white"/>
<path d="M6.01939 12.8757C6.08685 12.8757 6.15156 12.849 6.19937 12.8014C6.24717 12.7538 6.27419 12.6892 6.27449 12.6217C6.2795 11.5157 7.03979 10.5302 8.12372 10.2252C8.66543 10.0725 9.23182 10.3795 9.38648 10.9097L9.59215 11.6163C9.60129 11.6487 9.61675 11.679 9.63766 11.7054C9.65856 11.7319 9.68449 11.7539 9.71395 11.7702C9.7434 11.7866 9.7758 11.7969 9.80928 11.8007C9.84276 11.8044 9.87664 11.8015 9.90899 11.7921C9.94133 11.7827 9.97149 11.7669 9.99773 11.7458C10.024 11.7247 10.0457 11.6986 10.0618 11.669C10.0779 11.6394 10.088 11.6069 10.0915 11.5734C10.0949 11.5399 10.0917 11.506 10.082 11.4737L9.87631 10.767C9.64353 9.96892 8.79531 9.50566 7.98536 9.73407C6.68367 10.1004 5.77031 11.287 5.76428 12.6194C5.76413 12.6529 5.77058 12.6861 5.78326 12.7171C5.79594 12.7482 5.81461 12.7764 5.83819 12.8002C5.86177 12.8239 5.88981 12.8429 5.9207 12.8558C5.9516 12.8688 5.98474 12.8755 6.01824 12.8757H6.01939Z" fill="white"/>
<path d="M10.2229 16.2288C10.2153 16.2354 10.2081 16.2426 10.2013 16.2501L9.70175 16.8097L8.8631 17.046L8.13702 16.8311C8.12744 16.8282 8.11771 16.826 8.10787 16.8243C7.96637 16.7991 7.82078 16.8107 7.68499 16.8577C7.54919 16.9048 7.42771 16.9858 7.33211 17.0931C7.24152 17.193 7.17799 17.3144 7.14757 17.4457C7.11715 17.5771 7.12085 17.714 7.15832 17.8435L7.41205 18.7148C7.45042 18.8449 7.52119 18.9631 7.61771 19.0583C7.71424 19.1536 7.83337 19.2227 7.96393 19.2594C8.0415 19.2819 8.12186 19.2934 8.20264 19.2935C8.40862 19.2934 8.60746 19.218 8.76164 19.0814C8.76923 19.0747 8.77641 19.0676 8.78316 19.06L9.28275 18.5004L10.1214 18.2642L10.8475 18.4791C10.8571 18.4819 10.8668 18.4842 10.8767 18.4859C10.9252 18.4943 10.9744 18.4986 11.0237 18.4986C11.1425 18.4988 11.2599 18.4739 11.3683 18.4253C11.4766 18.3768 11.5735 18.3058 11.6524 18.2171C11.743 18.1173 11.8065 17.9959 11.837 17.8646C11.8674 17.7332 11.8637 17.5963 11.8262 17.4668L11.5726 16.5953C11.5342 16.4653 11.4634 16.3471 11.3669 16.2519C11.2703 16.1567 11.1512 16.0875 11.0207 16.0509C10.8835 16.0106 10.7383 16.0057 10.5988 16.0368C10.4593 16.068 10.3299 16.134 10.2229 16.2288ZM8.41412 18.7073C8.3717 18.7419 8.32147 18.7657 8.26779 18.7765C8.21412 18.7873 8.15861 18.7849 8.10609 18.7694C8.05802 18.7568 8.014 18.7321 7.97826 18.6975C7.94252 18.663 7.91626 18.6199 7.90201 18.5723L7.64827 17.7008C7.63494 17.6544 7.63388 17.6053 7.64518 17.5584C7.65648 17.5114 7.67976 17.4682 7.71275 17.4329C7.7441 17.3979 7.78254 17.3698 7.82553 17.3507C7.86851 17.3316 7.91506 17.3218 7.96211 17.322C7.97766 17.322 7.9932 17.3231 8.00861 17.3252L8.65548 17.5165L8.79732 18.0038L8.85752 18.2106L8.41412 18.7073ZM9.31623 17.9611L9.17831 17.4871L9.66827 17.3491L9.79346 17.7792L9.80621 17.8228L9.31623 17.9611ZM11.3362 17.6094C11.3495 17.6558 11.3506 17.7049 11.3393 17.7518C11.328 17.7988 11.3047 17.842 11.2717 17.8773C11.235 17.9181 11.1889 17.9493 11.1373 17.9682C11.0857 17.987 11.0302 17.9928 10.9759 17.9851L10.329 17.7938L10.1997 17.3497L10.127 17.0997L10.5704 16.6031C10.6128 16.5684 10.663 16.5447 10.7167 16.5339C10.7704 16.5231 10.8259 16.5255 10.8784 16.541C10.9264 16.5535 10.9705 16.5783 11.0062 16.6128C11.0419 16.6473 11.0682 16.6904 11.0825 16.738L11.3362 17.6094Z" fill="white"/>
<path d="M18.6063 12.2133C18.6615 12.2132 18.7152 12.1953 18.7594 12.1621C18.8035 12.129 18.8357 12.0824 18.8511 12.0294L18.9866 11.5638C18.9962 11.5316 18.9994 11.4978 18.9959 11.4643C18.9923 11.4309 18.9822 11.3985 18.9661 11.3689C18.9501 11.3394 18.9283 11.3133 18.9021 11.2922C18.8759 11.2712 18.8457 11.2555 18.8134 11.2461C18.7812 11.2367 18.7473 11.2337 18.7139 11.2375C18.6805 11.2412 18.6481 11.2515 18.6187 11.2678C18.5892 11.284 18.5633 11.306 18.5424 11.3323C18.5215 11.3587 18.506 11.3889 18.4968 11.4212L18.4319 11.644L14.9989 10.6768L15.0625 10.4583C15.0814 10.3934 15.0738 10.3236 15.0413 10.2642C15.0087 10.2049 14.9539 10.161 14.889 10.142C14.824 10.1231 14.7542 10.1307 14.6949 10.1633C14.6356 10.1958 14.5916 10.2506 14.5727 10.3156L14.4372 10.7811C14.4278 10.8135 14.4248 10.8474 14.4286 10.8808C14.4323 10.9143 14.4427 10.9467 14.459 10.9762C14.4754 11.0056 14.4974 11.0316 14.5238 11.0525C14.5502 11.0734 14.5805 11.0888 14.6129 11.098L18.537 12.2035C18.5596 12.2099 18.5829 12.2132 18.6063 12.2133Z" fill="white"/>
<path d="M17.5201 5.65216C16.7098 5.42343 15.8614 5.88695 15.6292 6.68513L15.4235 7.39176C15.4138 7.42402 15.4106 7.45788 15.4141 7.49139C15.4175 7.5249 15.4276 7.55739 15.4437 7.58699C15.4598 7.61658 15.4816 7.6427 15.5078 7.66383C15.534 7.68496 15.5642 7.70069 15.5965 7.7101C15.6289 7.71952 15.6628 7.72243 15.6962 7.71868C15.7297 7.71492 15.7621 7.70458 15.7916 7.68824C15.821 7.6719 15.847 7.64988 15.8679 7.62347C15.8888 7.59705 15.9042 7.56676 15.9134 7.53433L16.119 6.8277C16.2734 6.29741 16.8397 5.99036 17.3818 6.14326C18.4655 6.4482 19.2259 7.43369 19.2309 8.53975C19.2312 8.60721 19.2582 8.6718 19.306 8.71939C19.3538 8.76699 19.4185 8.79371 19.486 8.79371H19.4872C19.5207 8.79356 19.5538 8.78681 19.5847 8.77385C19.6156 8.76089 19.6436 8.74197 19.6672 8.71818C19.6908 8.69438 19.7095 8.66618 19.7221 8.63517C19.7348 8.60416 19.7413 8.57096 19.7411 8.53746C19.735 7.20493 18.8217 6.01845 17.5201 5.65216Z" fill="white"/>
<path d="M20.819 9.94345C20.7703 9.85532 20.7045 9.77779 20.6254 9.71541C20.5464 9.65303 20.4557 9.60704 20.3587 9.58015L14.7189 7.99112L15.138 6.55206C15.447 5.49045 16.5793 4.87476 17.6622 5.18005C19.187 5.60971 20.2518 6.99533 20.2518 8.54963C20.2518 8.63289 20.2486 8.71899 20.2422 8.8056C20.2398 8.83902 20.244 8.8726 20.2545 8.90441C20.2651 8.93622 20.2818 8.96564 20.3037 8.991C20.3256 9.01635 20.3523 9.03714 20.3822 9.05217C20.4122 9.06721 20.4448 9.07619 20.4782 9.07862C20.4846 9.07907 20.4909 9.07929 20.4971 9.07929C20.5615 9.07922 20.6234 9.0548 20.6706 9.01093C20.7177 8.96707 20.7465 8.907 20.7512 8.84278C20.7584 8.74393 20.7621 8.64526 20.7621 8.54963C20.7587 7.68407 20.4748 6.84294 19.953 6.15237C19.416 5.44106 18.6595 4.92669 17.8005 4.68898C16.4492 4.30827 15.035 5.08012 14.6481 6.40942L14.2278 7.85276L14.2243 7.85174C14.0948 7.81566 13.9563 7.83199 13.8387 7.8972C13.7212 7.9624 13.634 8.07125 13.5961 8.20021L13.4582 8.6739C13.4203 8.8037 13.4356 8.94322 13.5007 9.06175C13.5657 9.18029 13.6751 9.26814 13.8049 9.30598L12.8248 12.6726C12.705 13.0807 12.6678 13.5087 12.7154 13.9314C12.7631 14.3541 12.8946 14.763 13.1022 15.1343C13.3141 15.5167 13.6001 15.853 13.9435 16.1235C14.2869 16.3939 14.6808 16.5932 15.1022 16.7096C15.3987 16.7933 15.7054 16.8358 16.0136 16.8359C17.4549 16.8359 18.7849 15.9026 19.201 14.4737L19.9676 11.8401C19.9774 11.8078 19.9806 11.7739 19.9772 11.7404C19.9738 11.7068 19.9637 11.6743 19.9477 11.6446C19.9316 11.615 19.9098 11.5888 19.8835 11.5677C19.8573 11.5465 19.8271 11.5307 19.7947 11.5213C19.7623 11.5119 19.7284 11.509 19.6949 11.5128C19.6614 11.5165 19.6289 11.5269 19.5994 11.5433C19.57 11.5597 19.544 11.5818 19.5231 11.6083C19.5023 11.6347 19.4868 11.6651 19.4777 11.6976L18.7112 14.3311C18.286 15.7911 16.729 16.6378 15.2405 16.2184C14.8841 16.1202 14.5508 15.9518 14.2602 15.7231C13.9697 15.4945 13.7277 15.2101 13.5484 14.8868C13.3736 14.5744 13.2629 14.2303 13.2227 13.8746C13.1826 13.5189 13.2138 13.1587 13.3145 12.8153L14.2958 9.44472L19.9407 11.0352C20.1343 11.0899 20.3417 11.0663 20.5181 10.9693C20.6945 10.8724 20.8257 10.7101 20.8833 10.5173C20.9113 10.4222 20.92 10.3224 20.909 10.2239C20.898 10.1253 20.8674 10.03 20.819 9.94345ZM20.3936 10.3745C20.3739 10.4384 20.3299 10.492 20.2711 10.5237C20.2123 10.5554 20.1433 10.5627 20.0792 10.544L14.1955 8.88624C14.1946 8.88599 14.1939 8.88563 14.193 8.88538C14.1922 8.88512 14.1906 8.88487 14.1894 8.88452L13.948 8.8165L14.0859 8.34284L14.3292 8.4114L14.3307 8.41191C14.3314 8.4121 14.3321 8.4122 14.3328 8.41239L20.2203 10.0713C20.2524 10.08 20.2825 10.0951 20.3087 10.1157C20.3349 10.1362 20.3568 10.1618 20.373 10.1909C20.3885 10.2186 20.3983 10.2491 20.4018 10.2806C20.4053 10.3122 20.4025 10.3441 20.3936 10.3745Z" fill="white"/>
<path d="M17.3973 12.7423C17.3875 12.744 17.3777 12.7462 17.3682 12.7491L16.6421 12.964L15.8034 12.7278L15.3038 12.1682C15.2971 12.1606 15.2899 12.1534 15.2823 12.1468C15.1752 12.052 15.0459 11.986 14.9064 11.9548C14.7669 11.9237 14.6218 11.9285 14.4846 11.9688C14.354 12.0054 14.2349 12.0746 14.1384 12.1698C14.0419 12.265 13.9711 12.3832 13.9327 12.5133L13.6791 13.3847C13.6416 13.5142 13.6379 13.6511 13.6683 13.7825C13.6988 13.9138 13.7623 14.0352 13.8529 14.1351C13.9318 14.2238 14.0286 14.2947 14.137 14.3433C14.2454 14.3918 14.3628 14.4168 14.4815 14.4166C14.5308 14.4165 14.5801 14.4122 14.6286 14.4038C14.6385 14.4021 14.6482 14.3998 14.6578 14.397L15.3839 14.1821L16.2225 14.4183L16.7221 14.9779C16.7289 14.9855 16.7361 14.9926 16.7437 14.9993C16.8978 15.1359 17.0967 15.2114 17.3026 15.2114C17.3834 15.2113 17.4638 15.1999 17.5414 15.1773C17.6719 15.1407 17.791 15.0715 17.8875 14.9763C17.984 14.881 18.0547 14.7629 18.0931 14.6329L18.3467 13.7615C18.3842 13.632 18.3879 13.495 18.3575 13.3637C18.3271 13.2323 18.2635 13.111 18.1729 13.0111C18.0773 12.9038 17.9559 12.8228 17.8201 12.7758C17.6843 12.7287 17.5388 12.7172 17.3973 12.7423ZM15.3055 13.2675L15.1762 13.7116L14.5294 13.903C14.475 13.9107 14.4195 13.9048 14.3679 13.886C14.3163 13.8672 14.2702 13.836 14.2335 13.7951C14.2005 13.7598 14.1772 13.7166 14.1659 13.6696C14.1546 13.6227 14.1557 13.5736 14.169 13.5272L14.4228 12.6558C14.4371 12.6082 14.4633 12.5651 14.4991 12.5306C14.5348 12.4961 14.5788 12.4714 14.6269 12.4588C14.658 12.4497 14.6902 12.4451 14.7225 12.4451C14.8 12.4451 14.8751 12.4718 14.935 12.5209L15.3783 13.0175L15.3055 13.2675ZM16.2928 13.5223L16.189 13.879L15.6991 13.741L15.7331 13.6239L15.837 13.2673L16.3269 13.4053L16.2928 13.5223ZM17.8571 13.6188L17.6034 14.4902C17.5892 14.5378 17.5629 14.5809 17.5272 14.6155C17.4914 14.65 17.4474 14.6747 17.3994 14.6873C17.3468 14.7028 17.2913 14.7052 17.2377 14.6944C17.184 14.6836 17.1338 14.6598 17.0913 14.6252L16.6481 14.1285L16.7208 13.8786L16.8501 13.4344L17.497 13.2431C17.5514 13.2354 17.6068 13.2412 17.6584 13.26C17.71 13.2789 17.7562 13.3101 17.7928 13.351C17.8258 13.3863 17.849 13.4295 17.8603 13.4764C17.8716 13.5234 17.8705 13.5724 17.8571 13.6188Z" fill="white"/>
</g>
<defs>
<filter id="filter0_b" x="-60" y="-60" width="145" height="145" filterUnits="userSpaceOnUse" color-interpolation-filters="sRGB">
<feFlood flood-opacity="0" result="BackgroundImageFix"/>
<feGaussianBlur in="BackgroundImage" stdDeviation="30"/>
<feComposite in2="SourceAlpha" operator="in" result="effect1_backgroundBlur"/>
<feBlend mode="normal" in="SourceGraphic" in2="effect1_backgroundBlur" result="shape"/>
</filter>
<clipPath id="clip0">
<rect width="16.3265" height="16.3265" fill="white" transform="translate(4.5918 4.5918)"/>
</clipPath>
</defs>
</svg>
