<svg width="17" height="17" viewBox="0 0 17 17" fill="none" xmlns="http://www.w3.org/2000/svg">
<path d="M8.5 0C3.81302 0 0 3.81302 0 8.5C0 13.187 3.81302 17 8.5 17C13.187 17 17 13.187 17 8.5C17 3.81302 13.187 0 8.5 0ZM8.5 15.1421C4.83746 15.1421 1.85792 12.1625 1.85792 8.5C1.85792 4.83764 4.83746 1.85792 8.5 1.85792C12.1625 1.85792 15.1421 4.83764 15.1421 8.5C15.1421 12.1625 12.1625 15.1421 8.5 15.1421Z" fill="#25B4E5"/>
<path d="M9.23575 8.51022V4.94767C9.23575 4.54988 8.91341 4.22754 8.51578 4.22754C8.11803 4.22754 7.79565 4.54988 7.79565 4.94767V8.74027C7.79565 8.7516 7.79845 8.76222 7.79899 8.77354C7.78952 8.96936 7.85698 9.16817 8.00652 9.31775L10.6885 11.9995C10.9698 12.2808 11.4257 12.2808 11.7068 11.9995C11.9879 11.7182 11.9881 11.2623 11.7068 10.9811L9.23575 8.51022Z" fill="#25B4E5"/>
</svg>
