<svg width="14" height="14" viewBox="0 0 14 14" fill="none" xmlns="http://www.w3.org/2000/svg">
<path d="M2.9873 0.512556C2.30414 -0.170852 1.19586 -0.170852 0.512695 0.512556C-0.170898 1.19596 -0.170898 2.30403 0.512695 2.98743L4.52539 7L0.512695 11.0126C-0.170898 11.696 -0.170898 12.804 0.512695 13.4874C1.19586 14.1709 2.30414 14.1709 2.9873 13.4874L7 9.47474L11.0127 13.4874C11.6959 14.1709 12.8041 14.1709 13.4873 13.4874C14.1709 12.804 14.1709 11.696 13.4873 11.0126L9.47461 7L13.4873 2.98743C14.1709 2.30403 14.1709 1.19596 13.4873 0.512556C12.8041 -0.170852 11.6959 -0.170852 11.0127 0.512556L7 4.52525L2.9873 0.512556Z" fill="white"/>
</svg>
