<svg width="26" height="20" viewBox="0 0 26 20" fill="none" xmlns="http://www.w3.org/2000/svg">
<path d="M13.0023 10.8887C10.5537 10.8887 8.56158 12.8808 8.56158 15.3295C8.56158 17.7781 10.5537 19.7703 13.0023 19.7703C15.4509 19.7703 17.443 17.7781 17.443 15.3295C17.443 12.8808 15.4509 10.8887 13.0023 10.8887ZM13.0023 17.7966C11.6419 17.7966 10.5352 16.6898 10.5352 15.3295C10.5352 13.9691 11.6419 12.8624 13.0023 12.8624C14.3626 12.8624 15.4693 13.9691 15.4693 15.3295C15.4693 16.6898 14.3626 17.7966 13.0023 17.7966Z" fill="#25B4E5"/>
<path d="M25.5262 12.9916C24.4378 10.8359 22.713 9.00971 20.5371 7.70802L23.2084 5.03674C23.5937 4.65137 23.5937 4.02656 23.2084 3.64114C22.823 3.25578 22.1982 3.25578 21.8128 3.64114L18.679 6.77501C17.202 6.16371 15.6166 5.79601 13.9876 5.69017V1.21731C13.9876 0.672278 13.5458 0.230469 13.0008 0.230469C12.4557 0.230469 12.0139 0.672278 12.0139 1.21731V5.69012C10.3849 5.79596 8.79953 6.16366 7.32252 6.77496L4.18875 3.64109C3.80334 3.25568 3.17847 3.25568 2.79311 3.64109C2.4078 4.02646 2.4078 4.65128 2.79316 5.03669L5.46439 7.70797C3.28851 9.00966 1.5637 10.8359 0.475314 12.9916C0.229689 13.4781 0.424985 14.0716 0.911498 14.3173C1.39786 14.563 1.9916 14.3677 2.23717 13.8812C4.06767 10.2557 8.14698 7.63179 13.0008 7.63179C17.8583 7.63179 21.9355 10.2588 23.7644 13.8812C24.0105 14.3686 24.6043 14.5626 25.0901 14.3173C25.5766 14.0717 25.7719 13.4781 25.5262 12.9916Z" fill="#25B4E5"/>
</svg>
