<svg width="17" height="17" viewBox="0 0 17 17" fill="none" xmlns="http://www.w3.org/2000/svg">
<path d="M16.3359 0H0.664061C0.2973 0 0 0.2973 0 0.664061V3.85156C0 4.04559 0.0870584 4.22595 0.220535 4.34578L5.17968 8.79629V16.3359C5.17968 16.5471 5.28018 16.7458 5.45038 16.8709C5.61902 16.9949 5.83829 17.0333 6.04183 16.9698L11.3543 15.3096C11.6316 15.2229 11.8203 14.9662 11.8203 14.6758V8.79629L16.7794 4.34575C16.9198 4.21981 17 4.04015 17 3.85156V0.664061C17 0.2973 16.7027 0 16.3359 0ZM15.6718 3.55525L10.7127 8.00579C10.5724 8.13173 10.4922 8.31139 10.4922 8.49998V14.1875L6.5078 15.4326V8.49998C6.5078 8.31139 6.42761 8.13173 6.28727 8.00576L2.39826 4.51562H10.6914C11.0581 4.51562 11.3554 4.21832 11.3554 3.85156C11.3554 3.48479 11.0581 3.18749 10.6914 3.18749H1.32812V1.32812H15.6718V3.55525Z" fill="#25B4E5"/>
</svg>
