<svg width="82" height="82" viewBox="0 0 82 82" fill="none" xmlns="http://www.w3.org/2000/svg">
<path d="M80.7716 21.1654C80.7392 21.1631 80.7068 21.1619 80.6744 21.1621H11.9031C11.2078 21.1602 10.63 21.6972 10.5806 22.3907L9.81618 33.1031C9.76708 33.8312 10.3168 34.4615 11.0448 34.5116C11.7671 34.5687 12.3989 34.0292 12.4558 33.307C12.4563 33.3004 12.4568 33.2938 12.4573 33.287L12.7019 29.8749L44.0735 46.1419C44.262 46.2395 44.4711 46.2902 44.6832 46.29C44.8821 46.2902 45.0785 46.2449 45.2572 46.1578L78.8136 29.9621L76.7981 58.1928H10.5806V56.8702C10.5806 56.1399 9.98844 55.5477 9.25807 55.5477C8.52771 55.5477 7.93555 56.1399 7.93555 56.8702V59.5153C7.93555 60.2457 8.52771 60.8378 9.25807 60.8378H78.0294C78.7247 60.8396 79.3025 60.3027 79.3519 59.6092L81.9969 22.5785C82.0488 21.8499 81.5002 21.2173 80.7716 21.1654ZM79.0318 26.9217L44.7017 43.4889L12.9069 27.001L13.1344 23.8071H79.254L79.0318 26.9217Z" fill="#25B4E5"/>
<path d="M21.1609 43.645H18.5159C17.7855 43.645 17.1934 44.2371 17.1934 44.9675C17.1934 45.6978 17.7855 46.29 18.5159 46.29H21.1609C21.8913 46.29 22.4835 45.6978 22.4835 44.9675C22.4835 44.2371 21.8913 43.645 21.1609 43.645Z" fill="#25B4E5"/>
<path d="M14.2171 43.645H1.32252C0.59216 43.645 0 44.2371 0 44.9675C0 45.6978 0.59216 46.29 1.32252 46.29H14.2171C14.9475 46.29 15.5397 45.6978 15.5397 44.9675C15.5397 44.2371 14.9475 43.645 14.2171 43.645Z" fill="#25B4E5"/>
<path d="M15.871 37.0323H12.5647C11.8343 37.0323 11.2422 37.6245 11.2422 38.3549C11.2422 39.0852 11.8343 39.6774 12.5647 39.6774H15.871C16.6014 39.6774 17.1935 39.0852 17.1935 38.3549C17.1935 37.6245 16.6014 37.0323 15.871 37.0323Z" fill="#25B4E5"/>
<path d="M6.59756 37.0323H3.96706C3.23669 37.0323 2.64453 37.6245 2.64453 38.3549C2.64453 39.0852 3.23669 39.6774 3.96706 39.6774H6.59756C7.32792 39.6774 7.92008 39.0852 7.92008 38.3549C7.92008 37.6245 7.32792 37.0323 6.59756 37.0323Z" fill="#25B4E5"/>
<path d="M18.5163 50.2576H6.61354C5.88318 50.2576 5.29102 50.8497 5.29102 51.5801C5.29102 52.3105 5.88318 52.9026 6.61354 52.9026H18.5163C19.2466 52.9026 19.8388 52.3105 19.8388 51.5801C19.8388 50.8497 19.2466 50.2576 18.5163 50.2576Z" fill="#25B4E5"/>
</svg>
