<svg width="80" height="35" viewBox="0 0 80 35" fill="none" xmlns="http://www.w3.org/2000/svg">
<path d="M34.4623 17.2391C34.4723 26.6785 26.6928 34.368 17.4534 34.488C8.59395 34.618 1.07442 27.7384 0.104482 19.2489C-1.01545 9.39956 7.01405 0.0401528 17.1734 0.000155331C26.4228 -0.0398422 34.4623 7.64967 34.4623 17.2391ZM17.2534 32.2981C25.5729 32.3481 32.2525 25.4686 32.2625 17.3091C32.2725 8.98959 25.6629 2.26001 17.3234 2.20002C13.4136 2.18002 9.93386 3.48994 7.15404 6.11977C3.53427 9.53956 1.76438 13.9093 2.34434 18.909C3.19429 26.1985 9.19391 32.2381 17.2534 32.2981ZM79.9995 22.4987C79.9795 21.8488 79.4295 21.3388 78.8095 21.3088C78.1096 21.2788 77.4796 21.8688 77.5096 22.5887C77.5396 23.2587 78.1196 23.7987 78.7995 23.7687C79.4795 23.7487 80.0195 23.1687 79.9995 22.4987ZM42.1918 15.5692C42.1918 14.3393 42.1818 13.1093 42.1918 11.8794C42.1918 11.6194 42.1718 11.4494 41.8319 11.4494C40.9719 11.4694 40.102 11.4594 39.242 11.4594C39.132 11.4594 39.012 11.4394 38.932 11.5694C38.6421 12.0494 39.012 12.9493 39.572 12.9893C40.102 13.0293 40.162 13.2793 40.162 13.7393C40.142 16.2891 40.152 18.849 40.152 21.3988C40.152 22.0488 39.982 22.3088 39.372 22.2888C38.982 22.2788 38.952 22.4587 38.922 22.6987C38.892 22.9287 38.922 23.1587 38.912 23.3887C38.902 23.5987 38.962 23.7087 39.192 23.7087C40.5219 23.6987 41.8419 23.7087 43.1718 23.7087C43.2918 23.7087 43.3818 23.6787 43.4318 23.5387C43.6917 22.8287 43.3618 22.2188 42.6118 22.1288C42.2518 22.0888 42.1718 21.9488 42.1818 21.6188C42.2018 20.5089 42.2518 19.3889 42.1618 18.279C42.1118 17.619 42.4218 17.2591 42.9018 16.9991C43.4818 16.6791 44.1417 16.5291 44.7717 16.8691C45.3516 17.1791 45.4416 17.759 45.4516 18.359C45.4516 18.549 45.4516 18.739 45.4516 18.939C45.4516 20.3789 45.4516 21.8188 45.4516 23.2587C45.4516 23.4787 45.3816 23.7287 45.7716 23.7187C46.6516 23.6987 47.5415 23.7087 48.4214 23.7087C48.5314 23.7087 48.6414 23.7087 48.7114 23.5787C49.0014 23.0087 48.6314 22.1888 47.9915 22.1488C47.5315 22.1188 47.4715 21.9188 47.4815 21.5288C47.5015 20.3989 47.5215 19.2589 47.4815 18.129C47.4415 16.9891 47.0915 15.9292 45.9816 15.3892C44.8817 14.8592 43.7817 14.9992 42.7518 15.6792C42.5818 15.7892 42.4618 15.9892 42.1818 16.0091C42.1918 15.8592 42.1918 15.7192 42.1918 15.5692ZM72.02 15.1092C74.5098 15.1392 76.1897 16.7591 76.1797 19.4089C76.1697 22.1488 74.6698 23.7787 72.04 23.8187C69.5201 23.8587 67.8602 22.1188 67.8602 19.4989C67.8502 16.8291 69.4701 15.1192 72.02 15.1092ZM69.9501 19.4889C69.9401 20.1889 70.0301 20.8688 70.4301 21.4688C70.78 21.9888 71.95 22.5387 72.4899 22.3188C73.1099 22.0588 73.6599 21.6688 73.8598 20.9488C74.1198 20.0389 74.1698 19.139 73.9198 18.229C73.6299 17.1591 73.0199 16.6591 72.01 16.6791C71.01 16.6891 70.3701 17.2191 70.0901 18.249C69.9801 18.649 69.9501 19.069 69.9501 19.4889ZM49.9214 19.4489C49.9214 15.9492 53.2311 13.9793 56.3009 15.6592C56.3509 15.6892 56.4009 15.7092 56.4509 15.7392C57.8908 16.6191 58.5608 18.629 58.1008 20.7089C57.7209 22.4487 56.5009 23.5587 54.741 23.7687C51.8712 24.1086 49.9114 22.3587 49.9214 19.4489ZM56.131 19.7389C56.141 18.859 56.061 18.259 55.791 17.689C55.461 16.9891 54.881 16.6791 54.1311 16.6691C53.3911 16.6591 52.7412 16.8991 52.4112 17.599C51.8312 18.829 51.8412 20.0789 52.3912 21.3188C52.8112 22.2688 54.4311 22.5787 55.191 21.9588C56.011 21.3088 56.091 20.4089 56.131 19.7389ZM66.4203 16.9891C66.4203 16.7191 66.3903 16.4491 66.4303 16.1791C66.4803 15.8092 66.3303 15.6392 65.9703 15.5392C65.4404 15.3792 64.9004 15.2292 64.3504 15.1392C62.4606 14.8592 60.7507 15.7492 60.0607 17.4091C59.5707 18.569 59.5507 19.7789 59.8707 20.9688C60.2507 22.4087 61.3506 23.6687 63.1605 23.8087C64.2804 23.8987 65.3004 23.5387 66.2103 22.9487C66.8603 22.5287 66.8303 22.4687 66.3503 21.8588C65.9603 21.3588 65.8403 21.3488 65.2004 21.7888C63.8105 22.7487 62.3106 22.2088 61.8906 20.5789C61.6806 19.7789 61.7006 18.979 61.9106 18.189C62.1406 17.2891 62.7805 16.7491 63.6505 16.6691C64.7004 16.5691 64.9004 16.7091 65.0404 17.729C65.1004 18.149 65.2604 18.309 65.7004 18.339C66.2903 18.379 66.5103 18.199 66.4103 17.609C66.3803 17.4191 66.4103 17.1991 66.4203 16.9891C66.4103 16.9891 66.4103 16.9891 66.4203 16.9891ZM13.9836 14.0793C13.9836 12.4694 13.9836 10.8495 13.9836 9.23957C13.9836 8.96959 14.0036 8.7596 13.6136 8.7696C12.4437 8.7896 11.2738 8.7796 10.0939 8.7796C9.95386 8.7796 9.80387 8.73961 9.73388 8.95959C9.4239 9.94953 9.82387 10.6895 10.8438 10.8095C11.3238 10.8595 11.3838 11.0595 11.3838 11.4694C11.3738 14.9692 11.3738 18.459 11.3838 21.9588C11.3838 22.4687 11.2938 22.7587 10.6838 22.6987C10.3538 22.6687 9.94386 22.7287 9.81387 23.1287C9.66388 23.6087 9.70388 24.1186 9.78387 24.6086C9.80387 24.7386 9.98386 24.6886 10.0839 24.6886C11.8137 24.6886 13.5436 24.6886 15.2735 24.6886C15.4035 24.6886 15.5335 24.7286 15.6035 24.5486C16.0135 23.5687 15.4635 22.6687 14.4236 22.6987C13.9736 22.7187 13.9736 22.4887 13.9736 22.1688C13.9836 20.7089 14.0436 19.2389 13.9536 17.789C13.8936 16.8491 14.2836 16.3591 15.0535 15.9492C16.5534 15.1492 18.3133 15.6392 18.2433 17.819C18.1833 19.9489 18.2333 22.0888 18.2233 24.2186C18.2233 24.4786 18.1833 24.6986 18.5833 24.6986C19.7732 24.6786 20.9632 24.6886 22.1531 24.6886C22.2731 24.6886 22.4031 24.7386 22.4731 24.5486C22.8031 23.6187 22.3831 22.8187 21.4131 22.6687C20.9932 22.6087 20.8532 22.4587 20.8632 22.0188C20.8932 20.4989 20.8932 18.979 20.8732 17.4691C20.8332 14.6892 18.9133 13.1193 16.2335 13.6293C15.4035 13.7893 14.7636 14.3193 13.9836 14.8392C13.9836 14.4992 13.9836 14.2893 13.9836 14.0793ZM25.0129 21.5688C24.143 21.6188 23.423 22.3088 23.413 23.1987C23.403 24.1086 24.123 24.8186 25.0529 24.8186C25.9729 24.8186 26.6328 24.1486 26.6328 23.2187C26.7728 22.4687 25.7229 21.5288 25.0129 21.5688Z" fill="#9DA8B3"/>
</svg>
