<svg width="69" height="15" viewBox="0 0 69 15" fill="none" xmlns="http://www.w3.org/2000/svg">
<path d="M34.2563 2.83347C36.0413 2.83347 37.8264 2.83347 39.6114 2.83347C41.3878 2.84211 42.4313 3.79236 42.621 5.546C42.7503 6.77268 42.5089 7.98209 42.3882 9.1915C42.2071 11.0142 42.0001 12.837 41.819 14.6511C41.7931 14.9189 41.6983 14.988 41.4482 14.9794C40.6462 14.9621 39.8529 14.9621 39.0509 14.9794C38.7577 14.988 38.6887 14.9103 38.7232 14.6166C38.9043 13.1048 39.0595 11.5844 39.2148 10.064C39.3096 9.16558 39.4131 8.2758 39.4907 7.37739C39.5079 7.1787 39.5597 6.78996 39.3182 6.52216C39.0595 6.23709 38.6284 6.24573 38.4645 6.263C38.0765 6.263 37.6884 6.25436 37.3004 6.25436C37.2745 6.263 37.2141 6.28028 37.1538 6.33211C37.0934 6.38394 37.0675 6.44442 37.0589 6.47033C37.0072 6.85043 36.964 7.22189 36.9123 7.60199C36.4811 11.4462 36.1879 14.1673 36.1793 14.5388C36.1793 14.5906 36.1793 14.7893 36.05 14.9016C35.981 14.9621 35.8689 14.988 35.6964 14.9794C34.9289 14.9448 34.1614 14.9535 33.3853 14.9794C33.1094 14.988 33.049 14.9189 33.0749 14.6338C33.2732 12.8543 33.4543 11.0834 33.644 9.3038C33.7389 8.39674 33.8337 7.48105 33.9458 6.57399C33.9717 6.32347 33.9027 6.24573 33.6527 6.25436C32.9973 6.27164 32.3419 6.28028 31.6951 6.24573C31.3416 6.22845 31.2985 6.40122 31.2726 6.67766C31.1001 8.37083 30.9277 10.064 30.7466 11.7485C30.6431 12.6988 30.531 13.6577 30.4361 14.6079C30.4102 14.8671 30.3499 14.9794 30.0481 14.9707C29.1599 14.9448 28.2803 14.9448 27.3921 14.9707C27.073 14.9794 27.0471 14.8584 27.0816 14.5906C27.3317 12.4137 27.5645 10.2281 27.806 8.0512C27.9784 6.46169 28.1509 4.87218 28.3061 3.28268C28.3406 2.93713 28.4269 2.79891 28.8235 2.80755C30.6258 2.85075 32.4454 2.83347 34.2563 2.83347ZM25.5811 14.988C25.8485 14.988 25.9606 14.9275 25.9778 14.6425C26.0382 13.8477 26.1503 13.053 26.2106 12.2582C26.2451 11.8781 26.1503 11.809 25.7881 11.8176C23.4253 11.8349 21.0539 11.8349 18.691 11.8349C18.1478 11.8349 17.8891 11.619 17.8287 11.1179C17.8114 10.9883 17.8287 10.8588 17.8114 10.7292C17.7597 10.3491 17.8718 10.2109 18.2857 10.2195C19.4068 10.2541 20.5192 10.2281 21.6402 10.2281C23.1062 10.2281 24.5722 10.2281 26.0382 10.2281C26.1934 10.2281 26.409 10.3232 26.4349 10.0294C26.5211 9.21741 26.6073 8.41402 26.7022 7.60199C26.7281 7.37739 26.6677 7.291 26.4262 7.29964C26.0468 7.31692 25.6674 7.30828 25.2966 7.30828C23.02 7.30828 20.7348 7.30828 18.4582 7.29964C18.3116 7.29964 18.0098 7.42058 18.1133 7.0664C18.3978 6.10751 18.4755 5.80516 19.5534 5.8138C21.8645 5.82243 24.1669 5.80516 26.478 5.8138C26.7625 5.8138 26.8833 5.75332 26.9091 5.44233C26.9609 4.69941 27.0299 3.96513 27.1334 3.23085C27.1765 2.90258 27.073 2.84211 26.7712 2.85075C24.1324 2.85938 21.485 2.84211 18.8463 2.85938C17.639 2.86802 16.6214 3.34315 15.8453 4.28476C14.983 5.32139 14.6208 6.56536 14.4052 7.86979C14.1551 9.39883 14.0516 10.9279 14.4224 12.4569C14.8191 14.0637 15.9574 14.988 17.6045 14.9967C18.8808 14.9967 20.157 14.9967 21.4419 14.9967C22.8217 14.9794 24.2014 14.9707 25.5811 14.988ZM49.4249 11.2389C50.1837 11.2389 50.934 11.2475 51.6928 11.2302C52.0033 11.2216 52.1499 11.2561 52.1067 11.6535C51.9774 12.6469 51.917 13.649 51.8135 14.6425C51.7791 14.9275 51.8825 14.9794 52.1412 14.9794C52.9691 14.9621 53.7969 14.9535 54.6248 14.9794C54.9525 14.988 55.0301 14.8844 55.0646 14.5734C55.306 11.9991 55.5734 9.42474 55.8234 6.85043C55.8924 6.13342 55.8666 5.41642 55.5992 4.74261C55.0473 3.34315 53.8573 2.90258 52.4948 2.84211C51.0633 2.78164 49.6232 2.79891 48.1831 2.83347C47.1655 2.85938 46.2083 3.12718 45.3891 3.77508C44.3457 4.59575 43.9404 5.73605 43.811 6.99729C43.5437 9.53704 43.3109 12.0854 43.0435 14.6338C43.0177 14.9103 43.078 14.9794 43.354 14.9794C44.2422 14.9621 45.1218 14.9621 46.01 14.9794C46.3118 14.988 46.398 14.8844 46.4239 14.5906C46.5015 13.6318 46.6136 12.6815 46.6912 11.7226C46.7171 11.3339 46.8292 11.1697 47.2604 11.1957C47.9848 11.2389 48.7091 11.2043 49.4335 11.2043C49.4249 11.2302 49.4249 11.2389 49.4249 11.2389ZM47.4156 8.2758C47.1397 8.28444 47.0189 8.22397 47.0707 7.91298C47.1483 7.48969 47.1742 7.04912 47.269 6.62583C47.3984 6.02976 47.7174 5.72741 48.3124 5.71013C49.4852 5.68422 50.658 5.68422 51.8394 5.70149C52.2965 5.71013 52.5552 6.02976 52.6069 6.54808C52.65 7.05776 52.5207 7.5588 52.4776 8.05984C52.4603 8.31036 52.2792 8.25853 52.124 8.25853C51.3306 8.25853 50.5287 8.25853 49.7353 8.25853C48.9506 8.2758 48.1831 8.26717 47.4156 8.2758ZM0.693984 8.25853C0.461152 10.4268 0.236943 12.5951 0.00411094 14.7634C-0.0303827 15.0485 0.159332 14.9794 0.30593 14.9794C1.30625 14.9794 2.30656 14.9621 3.30688 14.9794C3.5742 14.9794 3.65181 14.9016 3.67768 14.6425C3.77254 13.6145 3.89327 12.5865 3.9795 11.5585C4.00537 11.2475 4.09161 11.1352 4.4193 11.1438C5.20403 11.1697 5.98876 11.1784 6.77349 11.1438C7.17879 11.1266 7.32538 11.308 7.46336 11.6362C7.88591 12.6556 8.3257 13.6663 8.77412 14.6684C8.83448 14.798 8.85173 14.9794 9.08456 14.9794C10.3608 14.9707 11.6285 14.9794 12.9306 14.9794C12.9047 14.8844 12.8961 14.8239 12.8702 14.7721C12.3787 13.5972 11.8872 12.4223 11.387 11.2475C11.318 11.0834 11.2922 10.9797 11.456 10.8415C12.5167 9.99489 13.0686 8.87187 13.2755 7.54152C13.6895 4.91538 11.9562 2.83347 9.30015 2.83347C8.25671 2.83347 7.21328 2.82483 6.16985 2.82483C4.34169 4.6303 2.52215 6.44441 0.693984 8.25853ZM9.11905 5.87427C9.66233 5.87427 9.9469 6.06432 10.0504 6.47033C10.1797 7.00593 9.97277 7.57608 9.56747 7.80932C9.34326 7.93026 9.11043 7.98209 8.86035 7.98209C7.49785 7.97345 6.13535 7.96481 4.78148 7.98209C4.51415 7.98209 4.4193 7.91298 4.45379 7.64518C4.51415 7.15278 4.56589 6.66902 4.59176 6.17662C4.60901 5.91746 4.72974 5.87426 4.94532 5.8829C5.66969 5.89154 6.39406 5.8829 7.11842 5.8829C7.78243 5.87426 8.44643 5.87427 9.11905 5.87427ZM62.1444 6.74677C60.161 9.43338 58.1949 12.1286 56.2374 14.8412C56.2115 14.8757 56.2029 14.9189 56.2201 14.9535C56.2287 14.9707 56.246 14.988 56.2546 14.988C57.3067 14.988 58.3501 14.9967 59.4021 14.9967C59.5229 15.0053 59.7557 15.0053 60.023 14.893C60.2645 14.7893 60.4197 14.6425 60.4973 14.5474C61.0233 13.8304 61.5408 13.1048 62.0668 12.3878C62.5497 13.2085 63.0067 13.96 63.4293 14.7375C63.5414 14.9448 63.6621 14.9794 63.8691 14.9794C64.9901 14.9707 66.1025 14.9794 67.2236 14.9794C67.4047 14.9794 67.5771 14.9794 67.81 14.9794C67.6979 14.7634 67.6375 14.6252 67.5599 14.487C66.5941 12.8111 65.6196 11.1266 64.6538 9.45066C64.5503 9.26925 64.4468 9.10511 64.6279 8.87187C65.2488 8.07712 65.8438 7.24781 66.4389 6.43578C66.4906 6.35803 66.5423 6.28028 66.5941 6.20253C66.6199 6.16798 66.6458 6.13342 66.6717 6.09887C67.4392 5.02768 68.2066 3.96513 69 2.86802C68.8534 2.84211 68.7413 2.83347 68.6378 2.81619C67.4478 2.81619 66.2578 2.81619 65.0677 2.81619C64.0847 4.12926 63.1102 5.4337 62.1444 6.74677ZM60.5577 7.87843C61.1096 7.1355 61.6529 6.38394 62.1961 5.64102C62.2565 5.55464 62.3858 5.49417 62.291 5.34731C61.7736 4.518 61.3597 3.61958 60.7819 2.81619C59.4453 2.82483 58.1173 2.83347 56.7806 2.84211C56.7289 2.83347 56.6858 2.85075 56.6599 2.8853C56.6254 2.93713 56.634 3.01488 56.6858 3.06671C57.1428 3.83555 57.5999 4.61303 58.0483 5.39914C58.6778 6.48761 59.29 7.56744 59.8851 8.63863C60.2386 8.48313 60.3507 8.14622 60.5577 7.87843Z" fill="#9DA8B3"/>
<path d="M1.09064 3.35179C1.08202 3.29132 1.08202 3.16174 1.15963 3.01488C1.25448 2.82483 1.41833 2.74708 1.47007 2.72981C3.6173 1.82275 5.76453 0.907056 7.91176 0C5.6093 2.34971 3.22924 4.77716 0.806067 7.23917C0.900924 5.94338 0.995782 4.64758 1.09064 3.35179Z" fill="#9DA8B3"/>
</svg>
