<svg width="65" height="65" viewBox="0 0 65 65" fill="none" xmlns="http://www.w3.org/2000/svg">
<path d="M31.6493 42.2801C34.4759 39.7286 36.2596 36.0239 36.2596 31.9092C36.2596 27.7935 34.4753 24.0909 31.6493 21.5112C29.1794 19.262 25.8888 17.8896 22.2668 17.8896C14.5311 17.8896 8.2467 24.173 8.2467 31.9087C8.2467 39.6464 14.5311 45.9011 22.2668 45.9011C25.8889 45.9016 29.1794 44.5304 31.6493 42.2801Z" fill="#009DDD"/>
<path d="M31.6493 42.2797C34.4759 39.7281 36.2597 36.0235 36.2597 31.9088C36.2597 27.7931 34.4754 24.0905 31.6493 21.5107V42.2797Z" fill="#009DDD"/>
<path d="M41.061 17.8906C37.4385 17.8906 34.1459 19.2629 31.6494 21.5122C31.1562 21.9782 30.6903 22.4723 30.2499 22.9947H33.0755C33.4603 23.4597 33.817 23.9821 34.1459 24.4752H29.1793C28.8786 24.9694 28.604 25.4641 28.3562 25.9569H34.9414C35.162 26.45 35.3801 26.9457 35.5448 27.4389H27.7825C27.6172 27.9326 27.4797 28.4277 27.3704 28.9477H35.9569C36.1484 29.8807 36.2598 30.8963 36.2598 31.9102C36.2598 33.4467 36.0114 34.9564 35.5449 36.3553H27.7826C27.9458 36.8485 28.1383 37.3432 28.3569 37.8369H34.942C34.6957 38.3311 34.4479 38.8519 34.146 39.3185H29.1795C29.5104 39.84 29.8662 40.3336 30.2499 40.8001H33.0755C32.6373 41.3216 32.1701 41.8157 31.6494 42.2817C34.146 44.5321 37.4385 45.9033 41.061 45.9033C48.7977 45.9033 55.0534 39.6486 55.0534 31.9109C55.0528 24.1741 48.7977 17.8906 41.061 17.8906Z" fill="#ED1C2E"/>
<path d="M50.2228 34.928C50.2228 34.6806 50.4435 34.4893 50.6898 34.4893C50.9372 34.4893 51.1285 34.6807 51.1285 34.928C51.1285 35.1758 50.937 35.395 50.6898 35.395C50.4435 35.395 50.2228 35.1758 50.2228 34.928ZM50.6898 35.2851C50.8812 35.2851 51.0187 35.1204 51.0187 34.928C51.0187 34.7361 50.8811 34.5986 50.6898 34.5986C50.4974 34.5986 50.3341 34.7361 50.3341 34.928C50.3341 35.1204 50.4974 35.2851 50.6898 35.2851ZM50.6348 35.1204H50.5255V34.736H50.6896C50.7435 34.736 50.7718 34.736 50.7999 34.7637C50.8271 34.7908 50.8538 34.8176 50.8538 34.8458C50.8538 34.9012 50.8266 34.9561 50.7716 34.9561L50.8538 35.1203H50.7435L50.6896 34.9827H50.6348V35.1204ZM50.6348 34.9013H50.6896C50.6896 34.9013 50.7168 34.9013 50.7435 34.9013C50.7435 34.9013 50.7435 34.873 50.7435 34.8458V34.8176C50.7164 34.8176 50.6896 34.8176 50.6625 34.8176H50.6342V34.9013H50.6348Z" fill="white"/>
<path d="M20.5108 35.3946H18.7557L19.7979 29.9348L17.4117 35.3946H15.8188L15.5452 29.962L14.503 35.3946H12.9111L14.2561 28.2891H16.9986L17.1356 32.6778L19.0585 28.2891H21.8814L20.5108 35.3946Z" fill="white"/>
<path d="M39.9905 35.3134C39.4964 35.4494 39.1397 35.5043 38.7275 35.5043C37.8505 35.5043 37.3552 35.0656 37.3552 34.2434C37.3552 34.0781 37.3835 33.9128 37.4101 33.721L37.5194 33.1447L37.6036 32.7065L38.3985 28.29H40.1264L39.8807 29.6058H40.7849L40.5386 31.0063H39.6334L39.1947 33.4198C39.1664 33.5296 39.1398 33.6122 39.1398 33.6666C39.1398 33.9689 39.3322 34.1048 39.7443 34.1048C39.9358 34.1048 40.099 34.0777 40.2104 34.0504L39.9905 35.3134Z" fill="white"/>
<path d="M45.0659 29.6612C44.9283 29.6052 44.9017 29.6052 44.8744 29.6052C44.7913 29.577 44.7369 29.577 44.7369 29.5508C44.6809 29.5508 44.6266 29.5508 44.5454 29.5508C43.968 29.5508 43.557 29.7976 43.0352 30.4827L43.1993 29.6052H41.6074L40.538 35.3944H42.294C42.9247 31.8539 43.172 31.2237 44.0219 31.2237C44.0768 31.2237 44.1605 31.2514 44.2416 31.2514L44.4341 31.3059L45.0659 29.6612Z" fill="white"/>
<path d="M33.0754 31.4431C33.0754 32.1569 33.4876 32.6778 34.4204 33.0355C35.1343 33.3363 35.2442 33.4194 35.2442 33.6939C35.2442 34.0501 34.9142 34.2154 34.2286 34.2154C33.7071 34.2154 33.2124 34.1328 32.6367 33.9691L32.4171 35.3135H32.5002L32.801 35.3951C32.9103 35.3951 33.0745 35.4228 33.267 35.4228C33.6792 35.4767 34.0086 35.4767 34.2555 35.4767C36.0936 35.4767 36.9717 34.8733 36.9717 33.5569C36.9717 32.7609 36.6149 32.295 35.7098 31.9383C34.9682 31.6637 34.8866 31.5816 34.8866 31.3072C34.8866 31.0064 35.1883 30.8411 35.7646 30.8411C36.0935 30.8411 36.5867 30.8694 37.0256 30.9227L37.273 29.6064C36.807 29.5253 36.1214 29.4971 35.7365 29.4971C33.762 29.4961 33.0754 30.3736 33.0754 31.4431Z" fill="white"/>
<path d="M26.1624 35.3946H24.7352L24.7635 34.79C24.3247 35.257 23.7211 35.4762 22.9253 35.4762C21.9933 35.4762 21.3344 34.8454 21.3344 33.9125C21.3344 32.5125 22.4577 31.6899 24.4073 31.6899C24.5977 31.6899 24.8455 31.6899 25.12 31.7182C25.1749 31.5263 25.1749 31.4431 25.1749 31.3614C25.1749 30.9776 24.8721 30.84 24.0495 30.84C23.5553 30.84 23.0082 30.8949 22.6234 30.9776L22.3771 31.0601L22.2118 31.0869L22.4581 29.7978C23.3373 29.5771 23.8853 29.4961 24.5447 29.4961C26.0524 29.4961 26.8212 30.0714 26.8212 31.1685C26.8212 31.4708 26.7941 31.6903 26.6848 32.3216L26.328 34.3795L26.2732 34.7357L26.2172 35.0385L26.1901 35.2294L26.1624 35.3946ZM24.9005 32.8148C24.707 32.7877 24.6259 32.7877 24.5166 32.7877C23.5282 32.7877 23.035 33.0894 23.035 33.6662C23.035 34.0224 23.2536 34.2697 23.6375 34.2697C24.3524 34.2697 24.8728 33.6662 24.9005 32.8148Z" fill="white"/>
<path d="M31.8955 35.2565C31.293 35.4212 30.7167 35.5028 30.1122 35.5028C28.1667 35.5028 27.1497 34.5971 27.1497 32.8963C27.1497 30.9206 28.4398 29.4668 30.1959 29.4668C31.6219 29.4668 32.5293 30.29 32.5293 31.5519C32.5293 31.99 32.4733 32.4037 32.3369 32.979H28.8508C28.8508 33.0883 28.8508 33.1155 28.8508 33.1714C28.8508 33.8299 29.345 34.1861 30.3602 34.1861C30.9913 34.1861 31.5672 34.0768 32.1701 33.8304L31.8955 35.2565ZM30.9636 31.8279C30.9636 31.7177 30.9636 31.6073 30.9636 31.5257C30.9636 31.0596 30.6608 30.7841 30.1404 30.7841C29.5913 30.7841 29.2074 31.168 29.0418 31.8279H30.9636Z" fill="white"/>
<path d="M50.4974 32.7608C50.2228 34.68 48.8788 35.5309 47.0945 35.5309C45.1479 35.5309 44.353 34.3521 44.353 32.8706C44.353 30.84 45.696 29.4395 47.781 29.4395C49.5921 29.4395 50.5523 30.592 50.5523 32.0464C50.5528 32.4051 50.5528 32.4319 50.4974 32.7608ZM48.6873 32.0192C48.6873 31.4158 48.4399 30.8687 47.7282 30.8687C46.8482 30.8687 46.3001 31.9099 46.3001 32.8433C46.3001 33.6121 46.685 34.1329 47.2885 34.1329C47.6724 34.1329 48.4956 33.6121 48.6326 32.734C48.6873 32.5135 48.6873 32.2676 48.6873 32.0192Z" fill="white"/>
</svg>
