<svg width="25" height="25" viewBox="0 0 25 25" fill="none" xmlns="http://www.w3.org/2000/svg">
<g filter="url(#filter0_b)">
<rect width="25" height="25" rx="12.5" fill="#252525" fill-opacity="0.2"/>
</g>
<g clip-path="url(#clip0)">
<path d="M18.2565 9.15376C18.1904 9.03938 18.0441 9.00026 17.9297 9.06623L16.5473 9.86435C16.433 9.93039 16.3938 10.0767 16.4598 10.1911C16.5262 10.306 16.6727 10.3443 16.7865 10.2786L18.1689 9.48049C18.2833 9.41441 18.3225 9.26814 18.2565 9.15376Z" fill="white"/>
<path d="M20.8399 10.5104L20.1383 9.29526C20.0425 9.04032 19.1592 6.78292 17.6466 5.99185C17.2915 5.80614 16.8627 5.87307 16.5796 6.15834C15.4488 7.29804 13.8983 8.22422 12.2978 8.25531L11.601 7.79278C11.3057 7.59683 10.9053 7.7099 10.7559 8.03072L10.5115 8.55528C10.2592 8.49463 10.1045 8.82584 10.3136 8.98008L9.94142 9.779L9.90443 9.75764C9.78998 9.69163 9.64375 9.73082 9.57774 9.84523C9.51173 9.95964 9.55095 10.1059 9.66533 10.1719L9.73868 10.2142L9.36715 11.0117L9.35232 11.0031C9.23797 10.9371 9.09164 10.9763 9.0256 11.0907C8.95959 11.2051 8.99882 11.3514 9.1132 11.4175L9.16435 11.447L8.76808 12.2976C8.63622 12.4727 8.69623 12.3758 8.55105 12.6877C7.96004 13.9782 7.0926 14.4836 6.32394 14.9862C6.21339 15.0585 6.18236 15.2066 6.25465 15.3173C6.32713 15.4281 6.47544 15.4586 6.58574 15.3866C7.37704 14.8692 8.32522 14.3139 8.97723 12.9051L9.14509 13.1958C9.31581 13.4915 9.69706 13.5962 9.9947 13.4292C10.3705 13.2186 11.1363 12.8414 12.0431 12.6819C12.1732 12.659 12.2601 12.535 12.2372 12.4049C12.2143 12.2748 12.0904 12.1879 11.9602 12.2108C10.9837 12.3826 10.163 12.7865 9.76081 13.012C9.69014 13.0516 9.59977 13.0267 9.55934 12.9566L9.26039 12.4389C9.42688 12.2173 9.5903 11.9986 9.74945 11.7846C10.0796 11.9647 10.1089 12.0168 10.2156 12.0168C10.4598 12.0168 10.5467 11.6924 10.3354 11.5705L10.0363 11.3979C10.2191 11.1509 10.3944 10.9127 10.5593 10.6878C10.8907 10.8686 10.92 10.9207 11.0267 10.9207C11.2709 10.9207 11.3578 10.5963 11.1465 10.4743L10.8434 10.2994C11.027 10.0477 11.2134 9.79096 11.3613 9.58643C11.7024 9.77278 11.7309 9.82463 11.8379 9.82463C12.082 9.82463 12.1689 9.50021 11.9576 9.37827L11.6425 9.19641C11.8402 8.9216 11.8369 8.92144 11.8774 8.88095C12.0779 8.68152 12.2401 8.75776 12.7187 8.70811C13.871 8.58975 14.9566 8.0739 15.8913 7.38286C16.2263 7.85065 16.7084 8.18538 17.2715 8.33624C17.8719 8.49718 18.4973 8.43088 19.0469 8.15088C19.3271 8.62208 19.523 9.05719 19.6221 9.29386C15.3275 11.7771 15.5784 11.6193 15.5347 11.664L14.7006 12.5191C14.2147 12.2932 13.6873 12.1639 13.1304 12.1345C12.9989 12.1269 12.886 12.2288 12.879 12.3607C12.872 12.4926 12.9733 12.6052 13.1052 12.6121C13.5415 12.6352 13.9565 12.727 14.3434 12.8853L13.5944 13.653L5.3807 18.3954C4.89225 17.6574 4.9807 16.6285 5.63817 16.0543C5.73762 15.9674 5.7478 15.8163 5.66093 15.7168C5.57398 15.6173 5.42289 15.6071 5.32347 15.694C4.46737 16.4419 4.35602 17.7784 5.02378 18.7207C5.46017 19.4017 5.38214 19.2801 5.39222 19.2946C5.61348 19.6156 6.05583 19.7225 6.40921 19.5183C14.8917 14.614 14.4117 14.9149 14.5409 14.8051C14.63 14.7295 14.544 14.8081 16.2574 12.9686L16.4039 13.2225C16.5294 13.4397 16.8083 13.5145 17.0255 13.389L19.1933 12.1375C19.3077 12.0714 19.3469 11.9251 19.2808 11.8108C19.2148 11.6963 19.0685 11.6572 18.9541 11.7232L16.8065 12.9632L16.6187 12.6379C16.4833 12.4034 16.1603 12.3703 15.9789 12.5656C14.1195 14.5637 14.252 14.438 14.163 14.4894L6.17002 19.1041C6.08412 19.1537 5.9838 19.1554 5.8998 19.1164C5.79033 19.0656 5.76702 18.9844 5.73791 18.9479L5.64126 18.7973C14.3806 13.7479 13.8699 14.0558 13.9138 14.0108L15.8542 12.0218C16.3005 11.7641 19.4042 9.97221 19.8336 9.72425C20.4576 10.8093 20.4342 10.7528 20.439 10.7891C20.4445 10.8309 20.4248 10.8736 20.3869 10.8959C20.3824 10.8985 19.9282 11.1608 19.9248 11.1628C19.8104 11.2288 19.7712 11.3751 19.8372 11.4895C19.9033 11.6039 20.0496 11.643 20.1639 11.577C20.6551 11.2935 20.6615 11.2944 20.7213 11.2415C20.9267 11.0603 20.9806 10.7542 20.8399 10.5104ZM10.4267 10.059L10.3573 10.019L10.7288 9.22154L10.9448 9.34619C10.7749 9.58098 10.6121 9.80505 10.4267 10.059ZM11.2261 8.95626L10.9316 8.78627L11.1895 8.2327C11.2156 8.17661 11.2854 8.15741 11.3364 8.19134L11.6851 8.42275C11.4805 8.5606 11.3901 8.72839 11.2261 8.95626ZM16.269 7.08783C16.5315 6.8709 16.7503 6.66535 16.9191 6.49526C17.0535 6.35977 17.2568 6.32779 17.4249 6.4157C17.9664 6.6989 18.4266 7.21545 18.7882 7.74475C17.9006 8.1717 16.8331 7.89163 16.269 7.08783Z" fill="white"/>
</g>
<defs>
<filter id="filter0_b" x="-60" y="-60" width="145" height="145" filterUnits="userSpaceOnUse" color-interpolation-filters="sRGB">
<feFlood flood-opacity="0" result="BackgroundImageFix"/>
<feGaussianBlur in="BackgroundImage" stdDeviation="30"/>
<feComposite in2="SourceAlpha" operator="in" result="effect1_backgroundBlur"/>
<feBlend mode="normal" in="SourceGraphic" in2="effect1_backgroundBlur" result="shape"/>
</filter>
<clipPath id="clip0">
<rect width="16.3265" height="16.3265" fill="white" transform="translate(4.5918 4.5918)"/>
</clipPath>
</defs>
</svg>
