<svg width="49" height="49" viewBox="0 0 49 49" fill="none" xmlns="http://www.w3.org/2000/svg">
<g filter="url(#filter0_b)">
<rect width="49" height="49" rx="24.5" fill="#252525" fill-opacity="0.2"/>
</g>
<path d="M20.7884 23.9007C19.8071 22.6256 19.2668 20.9681 19.2668 19.2336C19.2668 18.3554 19.4028 17.5 19.6713 16.6914C19.78 16.3639 19.6026 16.0103 19.2751 15.9016C18.9476 15.793 18.5941 15.9704 18.4854 16.2978C18.1748 17.2337 18.0173 18.2215 18.0173 19.2337C18.0173 21.2423 18.6497 23.1704 19.7981 24.6628C19.9211 24.8227 20.1064 24.9066 20.2937 24.9066C20.4266 24.9066 20.5607 24.8643 20.6743 24.777C20.9477 24.5664 20.9988 24.1741 20.7884 23.9007Z" fill="white"/>
<path d="M13.3637 27.2446C12.6191 26.2761 12.209 25.0159 12.209 23.6961C12.209 23.0273 12.3124 22.3762 12.5165 21.7607C12.6251 21.4332 12.4477 21.0796 12.1202 20.971C11.7925 20.8624 11.4391 21.0399 11.3305 21.3674C11.0843 22.11 10.9595 22.8935 10.9595 23.6962C10.9595 25.2899 11.4615 26.8206 12.373 28.0063C12.496 28.1663 12.6814 28.2503 12.8688 28.2503C13.0017 28.2503 13.1356 28.208 13.2492 28.1208C13.5227 27.9104 13.574 27.5181 13.3637 27.2446Z" fill="white"/>
<path d="M38.842 17.0857C37.5828 15.7421 35.8773 14.9526 34.0015 14.8344C33.5467 13.3043 32.7796 11.9534 31.7198 10.8385C29.9835 9.01161 27.5948 8.00562 24.9938 8.00562C22.3929 8.00562 20.0042 9.01168 18.2679 10.8385C17.2084 11.9532 16.4414 13.3036 15.9866 14.8332C14.1059 14.9472 12.3982 15.7383 11.1416 17.0876C9.74056 18.5918 9 20.638 9 23.0048C9 25.3772 9.78056 27.8031 11.1416 29.6603C12.1925 31.0944 13.4782 32.0642 14.8672 32.4946L14.5469 33.6227C14.4934 33.8111 14.5313 34.0138 14.6494 34.17C14.7674 34.3263 14.9519 34.4181 15.1479 34.4181H15.899V39.3696C15.899 39.7147 16.1787 39.9944 16.5238 39.9944C16.8689 39.9944 17.1485 39.7147 17.1485 39.3696V34.4181H17.8905C18.0864 34.4181 18.2709 34.3263 18.389 34.17C18.507 34.0138 18.545 33.8111 18.4915 33.6227L18.1732 32.5017C19.504 32.0984 20.7275 31.2067 21.7372 29.8886C22.1778 30.1109 22.6297 30.2881 23.0901 30.4182L22.631 32.0351C22.5775 32.2235 22.6154 32.4261 22.7335 32.5824C22.8515 32.7386 23.036 32.8305 23.232 32.8305H24.369V39.3697C24.369 39.7147 24.6487 39.9944 24.9937 39.9944C25.3388 39.9944 25.6185 39.7147 25.6185 39.3697V32.8304H26.7555C26.9514 32.8304 27.136 32.7386 27.254 32.5823C27.3721 32.4261 27.4101 32.2234 27.3565 32.035L26.8974 30.4181C27.3585 30.2879 27.811 30.1104 28.2523 29.8875C29.2657 31.2041 30.4888 32.0954 31.8162 32.4996L31.4973 33.6226C31.4438 33.8111 31.4818 34.0136 31.5998 34.1699C31.7179 34.3262 31.9024 34.4181 32.0983 34.4181H32.8449V39.3696C32.8449 39.7146 33.1246 39.9943 33.4696 39.9943C33.8147 39.9943 34.0944 39.7146 34.0944 39.3696V34.4181H34.841C35.0368 34.4181 35.2213 34.3263 35.3395 34.1699C35.4575 34.0137 35.4955 33.8111 35.4419 33.6226L35.1221 32.4962C36.5142 32.0668 37.8031 31.0964 38.8562 29.6605C40.2185 27.8032 40.9998 25.3773 40.9998 23.0047C40.9999 20.6387 40.2538 18.5918 38.842 17.0857ZM15.9747 33.1686L16.099 32.7306C16.24 32.7415 16.3816 32.7476 16.5237 32.7476C16.663 32.7476 16.8017 32.7421 16.9396 32.7319L17.0636 33.1686H15.9747ZM16.5239 31.4981C14.9204 31.4981 13.3669 30.5831 12.1494 28.9218C10.942 27.2741 10.2496 25.1174 10.2496 23.0048C10.2496 19.2228 12.4501 16.4894 15.6865 16.1128C15.5615 16.8269 15.4976 17.5725 15.4976 18.3454C15.4976 21.3564 16.4887 24.4348 18.217 26.791C18.9508 27.7915 19.7745 28.6122 20.6599 29.2383C19.4996 30.7002 18.0477 31.4981 16.5239 31.4981ZM24.0588 31.5809L24.3228 30.6511C24.5453 30.6728 24.769 30.6843 24.9938 30.6843C25.2185 30.6843 25.4422 30.6728 25.6647 30.6511L25.9287 31.5809H24.0588ZM24.9938 29.4348C22.8734 29.4348 20.8245 28.2335 19.2245 26.0521C17.65 23.9055 16.747 21.0965 16.747 18.3455C16.747 13.0781 20.2153 9.25511 24.9938 9.25511C29.7723 9.25511 33.2406 13.0781 33.2406 18.3455C33.2406 21.0965 32.3376 23.9055 30.7631 26.0521C29.1631 28.2335 27.1142 29.4348 24.9938 29.4348ZM32.9252 33.1686L33.0493 32.7316C33.1887 32.7419 33.3288 32.7476 33.4696 32.7476C33.6103 32.7476 33.7503 32.7417 33.8899 32.7311L34.0141 33.1686H32.9252ZM37.8488 28.9216C36.6301 30.5831 35.0749 31.4981 33.4697 31.4981C31.9493 31.4981 30.4966 30.6999 29.3296 29.237C30.2143 28.6111 31.0374 27.7908 31.7707 26.791C33.499 24.4348 34.4901 21.3565 34.4901 18.3455C34.4901 17.5733 34.4263 16.8282 34.3015 16.1148C37.5458 16.4985 39.7504 19.2291 39.7504 23.0048C39.7504 25.1173 39.0573 27.2739 37.8488 28.9216Z" fill="white"/>
<defs>
<filter id="filter0_b" x="-60" y="-60" width="169" height="169" filterUnits="userSpaceOnUse" color-interpolation-filters="sRGB">
<feFlood flood-opacity="0" result="BackgroundImageFix"/>
<feGaussianBlur in="BackgroundImage" stdDeviation="30"/>
<feComposite in2="SourceAlpha" operator="in" result="effect1_backgroundBlur"/>
<feBlend mode="normal" in="SourceGraphic" in2="effect1_backgroundBlur" result="shape"/>
</filter>
</defs>
</svg>
