<svg width="45" height="45" viewBox="0 0 45 45" fill="none" xmlns="http://www.w3.org/2000/svg">
<g clip-path="url(#clip0)">
<path d="M31.2886 17.186L33.9118 14.565C33.0554 13.7092 33.0554 12.3218 33.9118 11.466L29.6905 7.24805C28.834 8.10377 27.4455 8.10377 26.5891 7.24805L16.6431 17.1861H31.2886V17.186Z" fill="#22A5D1"/>
<path d="M39.6904 34.8879V41.8763C39.6904 42.6295 39.0769 43.2422 38.3227 43.2422H8.98843V18.0649H38.3227C39.0768 18.0649 39.6904 18.6776 39.6904 19.4308V26.4192H41.4483V19.4308C41.4483 17.913 40.3595 16.6446 38.9217 16.3646L40.383 14.9044C40.888 14.3999 41.166 13.729 41.166 13.0154C41.166 12.3018 40.888 11.6308 40.383 11.1263L30.0293 0.780887C28.9873 -0.260296 27.292 -0.260296 26.25 0.780887L10.7116 16.307H4.91915C3.19574 16.307 1.79358 17.7083 1.79358 19.4308V41.8764C1.79358 43.5989 3.19565 45.0001 4.91915 45.0001H38.3227C40.0461 45.0001 41.4483 43.5989 41.4483 41.8764V34.888H39.6904V34.8879ZM27.4925 2.0244C27.8493 1.66791 28.43 1.66791 28.7867 2.0244L39.1405 12.3698C39.3131 12.5422 39.4082 12.7715 39.4082 13.0154C39.4082 13.2592 39.3131 13.4885 39.1405 13.6609L36.4923 16.307H13.1986L27.4925 2.0244ZM7.23056 43.2422H4.91915C4.16503 43.2422 3.55144 42.6295 3.55144 41.8763V19.4308C3.55144 18.6776 4.16503 18.0649 4.91915 18.0649H7.23056V43.2422Z" fill="black"/>
<path d="M43.2062 35.7668H33.0275C30.2035 35.7668 27.9142 33.4774 27.9142 30.6534C27.9142 27.8294 30.2035 25.54 33.0275 25.54H43.2062V35.7668Z" fill="#22A5D1"/>
<path d="M33.6145 33.5743C32.0033 33.5743 30.6925 32.2641 30.6925 30.6538C30.6925 29.0434 32.0033 27.7334 33.6145 27.7334C35.2258 27.7334 36.5366 29.0435 36.5366 30.6538C36.5366 32.2641 35.2258 33.5743 33.6145 33.5743ZM33.6145 29.4912C32.9725 29.4912 32.4504 30.0127 32.4504 30.6537C32.4504 31.2948 32.9725 31.8163 33.6145 31.8163C34.2565 31.8163 34.7787 31.2947 34.7787 30.6537C34.7787 30.0127 34.2565 29.4912 33.6145 29.4912Z" fill="black"/>
</g>
<defs>
<clipPath id="clip0">
<rect width="45" height="45" fill="white"/>
</clipPath>
</defs>
</svg>
