<svg width="231" height="149" viewBox="0 0 231 149" fill="none" xmlns="http://www.w3.org/2000/svg">
<path d="M165.897 130.171C165.897 134.096 143.348 137.289 115.478 137.289C87.674 137.289 65.0586 134.096 65.0586 130.171C65.0586 126.247 87.6075 123.054 115.478 123.054C143.281 122.988 165.897 126.181 165.897 130.171Z" fill="#DFF1FA"/>
<path d="M211.853 107.423C211.853 109.751 209.924 111.614 207.662 111.614H23.3467C21.0187 111.614 19.1562 109.685 19.1562 107.423V4.1905C19.1562 1.86245 21.0852 0 23.3467 0H207.662C209.99 0 211.853 1.92896 211.853 4.1905V107.423Z" fill="#C5E7FB"/>
<path d="M207.596 0H23.3467C21.0187 0 19.1562 1.92896 19.1562 4.1905V14.8996H211.919V4.1905C211.853 1.86245 209.924 0 207.596 0Z" fill="white"/>
<path d="M211.853 14.7H19.0898V18.0258H211.853V14.7Z" fill="#DFF3FF"/>
<path d="M180.258 9.17921C180.258 10.2435 179.393 11.1747 178.262 11.1747H56.6713C55.607 11.1747 54.6758 10.2435 54.6758 9.17921V5.7869C54.6758 4.72265 55.607 3.79143 56.6713 3.79143H178.196C179.326 3.79143 180.191 4.72265 180.191 5.7869V9.17921H180.258Z" fill="#C5E7FB"/>
<path d="M202.606 9.17921C202.606 10.2435 201.741 11.1747 200.61 11.1747H187.773C186.642 11.1747 185.777 10.2435 185.777 9.17921V5.7869C185.777 4.72265 186.642 3.79143 187.773 3.79143H200.61C201.741 3.79143 202.606 4.72265 202.606 5.7869V9.17921Z" fill="#C5E7FB"/>
<path d="M32.3286 7.44979C32.3286 8.84662 31.1979 9.97739 29.801 9.97739C28.4042 9.97739 27.2734 8.84662 27.2734 7.44979C27.2734 6.05296 28.4042 4.9222 29.801 4.9222C31.1979 4.9222 32.3286 6.05296 32.3286 7.44979Z" fill="#C5E7FB"/>
<path d="M39.8443 7.44979C39.8443 8.84662 38.7135 9.97739 37.3167 9.97739C35.9198 9.97739 34.7891 8.84662 34.7891 7.44979C34.7891 6.05296 35.9198 4.9222 37.3167 4.9222C38.647 4.9222 39.8443 6.05296 39.8443 7.44979Z" fill="#DFF3FF"/>
<path d="M47.2935 7.44979C47.2935 8.84662 46.1627 9.97739 44.7659 9.97739C43.3691 9.97739 42.2383 8.84662 42.2383 7.44979C42.2383 6.05296 43.3691 4.9222 44.7659 4.9222C46.1627 4.9222 47.2935 6.05296 47.2935 7.44979Z" fill="#E8F6FF"/>
<path d="M7.79224 69.6307H5.86328C5.86328 62.314 11.7832 56.3941 19.0999 56.3941V58.323C12.914 58.323 7.79224 63.3782 7.79224 69.6307Z" fill="#C5E7FB"/>
<path d="M10.0498 71.8923C10.0498 73.6882 8.58645 75.1516 6.79053 75.1516C4.9946 75.1516 3.53125 73.6882 3.53125 71.8923C3.53125 70.0964 4.9946 68.633 6.79053 68.633C8.65297 68.633 10.0498 70.0964 10.0498 71.8923Z" fill="#C5E7FB"/>
<path d="M6.85656 77.5461C6.52399 77.5461 6.19141 77.2801 6.19141 76.881V73.0896C6.19141 72.757 6.45747 72.4244 6.85656 72.4244C7.18914 72.4244 7.52172 72.6905 7.52172 73.0896V76.881C7.52172 77.2801 7.18914 77.5461 6.85656 77.5461Z" fill="#C5E7FB"/>
<path d="M8.98547 77.5461C8.65289 77.5461 8.32031 77.28 8.32031 76.8809V73.0895C8.32031 72.7569 8.58638 72.4244 8.98547 72.4244C9.31805 72.4244 9.65063 72.6904 9.65063 73.0895V76.8809C9.65063 77.28 9.38457 77.5461 8.98547 77.5461Z" fill="#C5E7FB"/>
<path d="M4.73547 77.546C4.40289 77.546 4.07031 77.28 4.07031 76.8809V73.0895C4.07031 72.7569 4.33638 72.4243 4.73547 72.4243C5.06805 72.4243 5.40063 72.6904 5.40063 73.0895V76.8809C5.40063 77.28 5.06805 77.546 4.73547 77.546Z" fill="#C5E7FB"/>
<path d="M11.447 74.4199C11.314 74.4199 11.1144 74.3534 10.9814 74.2204L8.25424 71.4932C7.98817 71.2272 7.98817 70.828 8.25424 70.562C8.5203 70.2959 8.91939 70.2959 9.18545 70.562L11.9126 73.2891C12.1787 73.5552 12.1787 73.9543 11.9126 74.2204C11.7796 74.3534 11.58 74.4199 11.447 74.4199Z" fill="#C5E7FB"/>
<path d="M225.096 69.6308H223.167C223.167 63.3783 218.112 58.3231 211.859 58.3231V56.3941C219.176 56.3941 225.096 62.314 225.096 69.6308Z" fill="#C5E7FB"/>
<path d="M220.906 71.8922C220.906 73.6882 222.37 75.1515 224.166 75.1515C225.961 75.1515 227.425 73.6882 227.425 71.8922C227.425 70.0963 225.961 68.633 224.166 68.633C222.303 68.633 220.906 70.0963 220.906 71.8922Z" fill="#C5E7FB"/>
<path d="M224.095 77.5462C223.762 77.5462 223.43 77.2801 223.43 76.881V73.0896C223.43 72.757 223.696 72.4245 224.095 72.4245C224.427 72.4245 224.76 72.6905 224.76 73.0896V76.881C224.76 77.2801 224.427 77.5462 224.095 77.5462Z" fill="#C5E7FB"/>
<path d="M221.97 77.5461C221.637 77.5461 221.305 77.2801 221.305 76.881V73.0896C221.305 72.757 221.571 72.4244 221.97 72.4244C222.302 72.4244 222.635 72.6905 222.635 73.0896V76.881C222.635 77.2801 222.302 77.5461 221.97 77.5461Z" fill="#C5E7FB"/>
<path d="M226.224 77.5461C225.891 77.5461 225.559 77.2801 225.559 76.881V73.0896C225.559 72.757 225.825 72.4244 226.224 72.4244C226.556 72.4244 226.889 72.6905 226.889 73.0896V76.881C226.889 77.2801 226.623 77.5461 226.224 77.5461Z" fill="#C5E7FB"/>
<path d="M219.509 74.4199C219.376 74.4199 219.176 74.3534 219.043 74.2204C218.777 73.9543 218.777 73.5552 219.043 73.2892L221.77 70.562C222.036 70.2959 222.436 70.2959 222.702 70.562C222.968 70.8281 222.968 71.2272 222.702 71.4932L219.975 74.2204C219.841 74.3534 219.708 74.4199 219.509 74.4199Z" fill="#C5E7FB"/>
<path d="M83.7493 111.68H81.8203V129.905H83.7493V111.68Z" fill="#C5E7FB"/>
<path d="M83.7506 129.839C83.7506 127.112 81.5556 124.917 78.8284 124.917C76.1013 124.917 73.9062 127.112 73.9062 129.839H83.7506Z" fill="#C5E7FB"/>
<path d="M149.132 111.68H147.203V129.905H149.132V111.68Z" fill="#C5E7FB"/>
<path d="M147.203 129.839C147.203 127.112 149.398 124.917 152.125 124.917C154.852 124.917 157.047 127.112 157.047 129.839H147.203Z" fill="#C5E7FB"/>
<path d="M93.5273 76.7593H137.428" stroke="#C5E7FB" stroke-width="2.5" stroke-miterlimit="10" stroke-linecap="round"/>
<path d="M76.6108 62.0666L67.8516 54.3455" stroke="white" stroke-width="2.5" stroke-miterlimit="10" stroke-linecap="round"/>
<path d="M76.0922 53.8264L68.3711 62.5857" stroke="white" stroke-width="2.5" stroke-miterlimit="10" stroke-linecap="round"/>
<path d="M163.962 62.0666L155.203 54.3454" stroke="white" stroke-width="2.5" stroke-miterlimit="10" stroke-linecap="round"/>
<path d="M163.444 53.8264L155.723 62.5856" stroke="white" stroke-width="2.5" stroke-miterlimit="10" stroke-linecap="round"/>
<path d="M94.4961 75.4975H137.319" stroke="white" stroke-width="2.5" stroke-miterlimit="10" stroke-linecap="round"/>
<path d="M59.5372 134.096H15.6367" stroke="#DFF1FA" stroke-width="3" stroke-miterlimit="10" stroke-linecap="round"/>
<path d="M9.38326 134.096H2" stroke="#DFF1FA" stroke-width="3" stroke-miterlimit="10" stroke-linecap="round"/>
<path d="M171.414 134.096H215.315" stroke="#DFF1FA" stroke-width="3" stroke-miterlimit="10" stroke-linecap="round"/>
<path d="M83.2812 147H113.413" stroke="#DFF1FA" stroke-width="3" stroke-miterlimit="10" stroke-linecap="round"/>
<path d="M221.57 134.096H228.954" stroke="#DFF1FA" stroke-width="3" stroke-miterlimit="10" stroke-linecap="round"/>
<path d="M119.066 147H126.45" stroke="#DFF1FA" stroke-width="3" stroke-miterlimit="10" stroke-linecap="round"/>
<path d="M191.702 147H161.57" stroke="#DFF1FA" stroke-width="3" stroke-miterlimit="10" stroke-linecap="round"/>
<path d="M53.6839 147H46.3672" stroke="#DFF1FA" stroke-width="3" stroke-miterlimit="10" stroke-linecap="round"/>
</svg>
