<svg width="231" height="149" viewBox="0 0 231 149" fill="none" xmlns="http://www.w3.org/2000/svg">
<path d="M165.897 130.171C165.897 134.096 143.348 137.289 115.478 137.289C87.674 137.289 65.0586 134.096 65.0586 130.171C65.0586 126.247 87.6075 123.054 115.478 123.054C143.281 122.988 165.897 126.181 165.897 130.171Z" fill="#DFF1FA"/>
<path d="M211.853 107.423C211.853 109.751 209.924 111.614 207.662 111.614H23.3467C21.0187 111.614 19.1562 109.685 19.1562 107.423V4.1905C19.1562 1.86245 21.0852 0 23.3467 0H207.662C209.99 0 211.853 1.92896 211.853 4.1905V107.423Z" fill="#C5E7FB"/>
<path d="M207.596 0H23.3467C21.0187 0 19.1562 1.92896 19.1562 4.1905V14.8996H211.919V4.1905C211.853 1.86245 209.924 0 207.596 0Z" fill="white"/>
<path d="M211.853 14.7H19.0898V18.0258H211.853V14.7Z" fill="#DFF3FF"/>
<path d="M180.258 9.17923C180.258 10.2435 179.393 11.1747 178.262 11.1747H56.6713C55.607 11.1747 54.6758 10.2435 54.6758 9.17923V5.78692C54.6758 4.72266 55.607 3.79144 56.6713 3.79144H178.196C179.326 3.79144 180.191 4.72266 180.191 5.78692V9.17923H180.258Z" fill="#C5E7FB"/>
<path d="M202.606 9.17923C202.606 10.2435 201.741 11.1747 200.61 11.1747H187.773C186.642 11.1747 185.777 10.2435 185.777 9.17923V5.78692C185.777 4.72266 186.642 3.79144 187.773 3.79144H200.61C201.741 3.79144 202.606 4.72266 202.606 5.78692V9.17923Z" fill="#C5E7FB"/>
<path d="M32.3286 7.44977C32.3286 8.84661 31.1979 9.97738 29.801 9.97738C28.4042 9.97738 27.2734 8.84661 27.2734 7.44977C27.2734 6.05294 28.4042 4.92218 29.801 4.92218C31.1979 4.92218 32.3286 6.05294 32.3286 7.44977Z" fill="#C5E7FB"/>
<path d="M39.8443 7.44977C39.8443 8.84661 38.7135 9.97738 37.3167 9.97738C35.9198 9.97738 34.7891 8.84661 34.7891 7.44977C34.7891 6.05294 35.9198 4.92218 37.3167 4.92218C38.647 4.92218 39.8443 6.05294 39.8443 7.44977Z" fill="#DFF3FF"/>
<path d="M47.2935 7.44977C47.2935 8.84661 46.1627 9.97738 44.7659 9.97738C43.3691 9.97738 42.2383 8.84661 42.2383 7.44977C42.2383 6.05294 43.3691 4.92218 44.7659 4.92218C46.1627 4.92218 47.2935 6.05294 47.2935 7.44977Z" fill="#E8F6FF"/>
<path d="M7.79224 74.6307H5.86328C5.86328 67.3139 11.7832 61.394 19.0999 61.394V63.323C12.914 63.323 7.79224 68.3782 7.79224 74.6307Z" fill="#C5E7FB"/>
<path d="M10.0498 76.8923C10.0498 78.6882 8.58645 80.1516 6.79053 80.1516C4.9946 80.1516 3.53125 78.6882 3.53125 76.8923C3.53125 75.0963 4.9946 73.633 6.79053 73.633C8.65297 73.633 10.0498 75.0963 10.0498 76.8923Z" fill="#C5E7FB"/>
<path d="M6.85656 82.5461C6.52399 82.5461 6.19141 82.2801 6.19141 81.881V78.0896C6.19141 77.757 6.45747 77.4244 6.85656 77.4244C7.18914 77.4244 7.52172 77.6905 7.52172 78.0896V81.881C7.52172 82.2801 7.18914 82.5461 6.85656 82.5461Z" fill="#C5E7FB"/>
<path d="M8.98547 82.546C8.65289 82.546 8.32031 82.28 8.32031 81.8809V78.0895C8.32031 77.7569 8.58638 77.4243 8.98547 77.4243C9.31805 77.4243 9.65063 77.6904 9.65063 78.0895V81.8809C9.65063 82.28 9.38457 82.546 8.98547 82.546Z" fill="#C5E7FB"/>
<path d="M4.73547 82.546C4.40289 82.546 4.07031 82.28 4.07031 81.8809V78.0895C4.07031 77.7569 4.33638 77.4243 4.73547 77.4243C5.06805 77.4243 5.40063 77.6904 5.40063 78.0895V81.8809C5.40063 82.28 5.06805 82.546 4.73547 82.546Z" fill="#C5E7FB"/>
<path d="M11.447 79.4199C11.314 79.4199 11.1144 79.3534 10.9814 79.2203L8.25424 76.4932C7.98817 76.2271 7.98817 75.828 8.25424 75.562C8.5203 75.2959 8.91939 75.2959 9.18545 75.562L11.9126 78.2891C12.1787 78.5552 12.1787 78.9543 11.9126 79.2203C11.7796 79.3534 11.58 79.4199 11.447 79.4199Z" fill="#C5E7FB"/>
<path d="M225.096 74.6308H223.167C223.167 68.3783 218.112 63.3231 211.859 63.3231V61.3941C219.176 61.3941 225.096 67.314 225.096 74.6308Z" fill="#C5E7FB"/>
<path d="M220.906 76.8922C220.906 78.6881 222.37 80.1515 224.166 80.1515C225.961 80.1515 227.425 78.6881 227.425 76.8922C227.425 75.0963 225.961 73.6329 224.166 73.6329C222.303 73.6329 220.906 75.0963 220.906 76.8922Z" fill="#C5E7FB"/>
<path d="M224.095 82.5461C223.762 82.5461 223.43 82.2801 223.43 81.881V78.0896C223.43 77.757 223.696 77.4244 224.095 77.4244C224.427 77.4244 224.76 77.6905 224.76 78.0896V81.881C224.76 82.2801 224.427 82.5461 224.095 82.5461Z" fill="#C5E7FB"/>
<path d="M221.97 82.5461C221.637 82.5461 221.305 82.28 221.305 81.8809V78.0895C221.305 77.757 221.571 77.4244 221.97 77.4244C222.302 77.4244 222.635 77.6904 222.635 78.0895V81.8809C222.635 82.28 222.302 82.5461 221.97 82.5461Z" fill="#C5E7FB"/>
<path d="M226.224 82.5461C225.891 82.5461 225.559 82.28 225.559 81.8809V78.0895C225.559 77.757 225.825 77.4244 226.224 77.4244C226.556 77.4244 226.889 77.6904 226.889 78.0895V81.8809C226.889 82.28 226.623 82.5461 226.224 82.5461Z" fill="#C5E7FB"/>
<path d="M219.509 79.4199C219.376 79.4199 219.176 79.3534 219.043 79.2203C218.777 78.9543 218.777 78.5552 219.043 78.2891L221.77 75.562C222.036 75.2959 222.436 75.2959 222.702 75.562C222.968 75.828 222.968 76.2271 222.702 76.4932L219.975 79.2203C219.841 79.3534 219.708 79.4199 219.509 79.4199Z" fill="#C5E7FB"/>
<path d="M83.7493 111.68H81.8203V129.905H83.7493V111.68Z" fill="#C5E7FB"/>
<path d="M83.7506 129.839C83.7506 127.112 81.5556 124.917 78.8284 124.917C76.1013 124.917 73.9062 127.112 73.9062 129.839H83.7506Z" fill="#C5E7FB"/>
<path d="M149.132 111.68H147.203V129.905H149.132V111.68Z" fill="#C5E7FB"/>
<path d="M147.203 129.839C147.203 127.112 149.398 124.917 152.125 124.917C154.852 124.917 157.047 127.112 157.047 129.839H147.203Z" fill="#C5E7FB"/>
<path d="M129.406 86.1853C129.666 86.8344 130.438 87.1631 131.131 86.9196C131.823 86.6761 132.174 85.9526 131.914 85.3036C130.599 82.0177 128.279 79.2072 125.206 77.1763C122.062 75.0983 118.36 74 114.5 74C110.64 74 106.938 75.0983 103.794 77.1763C100.721 79.2073 98.4016 82.0177 97.0857 85.3036C96.8258 85.9526 97.1767 86.6763 97.8695 86.9196C98.562 87.1633 99.3344 86.8344 99.5943 86.1853C101.911 80.3982 107.902 76.5101 114.5 76.5101C121.098 76.5101 127.089 80.3984 129.406 86.1853Z" fill="white"/>
<path d="M70 55C66.1402 55 63 58.0791 63 61.8636C63 62.4912 63.5189 63 64.159 63C64.799 63 65.3179 62.4912 65.3179 61.8636C65.3179 59.3321 67.4183 57.2728 70 57.2728C72.5817 57.2728 74.6821 59.3323 74.6821 61.8636C74.6821 62.4912 75.201 63 75.841 63C76.4811 63 77 62.4912 77 61.8636C77 58.0789 73.8598 55 70 55Z" fill="white"/>
<path d="M47.1821 68.0627C46.5894 67.8576 45.9426 68.172 45.7374 68.7648L44.0627 73.6064C43.8576 74.1993 44.172 74.8461 44.7648 75.0512C44.8878 75.0937 45.013 75.1139 45.1361 75.1139C45.6068 75.1139 46.0469 74.8189 46.2094 74.3491L47.8841 69.5075C48.0893 68.9146 47.7749 68.2678 47.1821 68.0627Z" fill="white"/>
<path d="M50.3941 75.1139C50.8648 75.1139 51.3049 74.8189 51.4674 74.3491L53.142 69.5075C53.3471 68.9146 53.0327 68.2678 52.4399 68.0627C51.8469 67.8576 51.2002 68.172 50.9952 68.7648L49.3205 73.6064C49.1155 74.1993 49.4299 74.8461 50.0226 75.0512C50.1456 75.0936 50.2708 75.1139 50.3941 75.1139Z" fill="white"/>
<path d="M186.021 68.0627C186.614 67.8576 187.261 68.172 187.466 68.7648L189.14 73.6064C189.345 74.1993 189.031 74.8461 188.438 75.0512C188.315 75.0937 188.19 75.1139 188.067 75.1139C187.596 75.1139 187.156 74.8189 186.994 74.3491L185.319 69.5075C185.114 68.9146 185.428 68.2678 186.021 68.0627Z" fill="white"/>
<path d="M182.809 75.1139C182.338 75.1139 181.898 74.8189 181.736 74.3491L180.061 69.5075C179.856 68.9146 180.17 68.2678 180.763 68.0627C181.356 67.8576 182.003 68.172 182.208 68.7648L183.883 73.6064C184.088 74.1993 183.773 74.8461 183.181 75.0512C183.058 75.0936 182.932 75.1139 182.809 75.1139Z" fill="white"/>
<path d="M160 55C156.14 55 153 58.0791 153 61.8636C153 62.4912 153.519 63 154.159 63C154.799 63 155.318 62.4912 155.318 61.8636C155.318 59.3321 157.418 57.2728 160 57.2728C162.582 57.2728 164.682 59.3323 164.682 61.8636C164.682 62.4912 165.201 63 165.841 63C166.481 63 167 62.4912 167 61.8636C167 58.0789 163.86 55 160 55Z" fill="white"/>
<path d="M59.5372 134.096H15.6367" stroke="#DFF1FA" stroke-width="3" stroke-miterlimit="10" stroke-linecap="round"/>
<path d="M9.38326 134.096H2" stroke="#DFF1FA" stroke-width="3" stroke-miterlimit="10" stroke-linecap="round"/>
<path d="M171.414 134.096H215.315" stroke="#DFF1FA" stroke-width="3" stroke-miterlimit="10" stroke-linecap="round"/>
<path d="M83.2812 147H113.413" stroke="#DFF1FA" stroke-width="3" stroke-miterlimit="10" stroke-linecap="round"/>
<path d="M221.57 134.096H228.954" stroke="#DFF1FA" stroke-width="3" stroke-miterlimit="10" stroke-linecap="round"/>
<path d="M119.066 147H126.45" stroke="#DFF1FA" stroke-width="3" stroke-miterlimit="10" stroke-linecap="round"/>
<path d="M191.702 147H161.57" stroke="#DFF1FA" stroke-width="3" stroke-miterlimit="10" stroke-linecap="round"/>
<path d="M53.6839 147H46.3672" stroke="#DFF1FA" stroke-width="3" stroke-miterlimit="10" stroke-linecap="round"/>
</svg>
