<svg width="25" height="25" viewBox="0 0 25 25" fill="none" xmlns="http://www.w3.org/2000/svg">
<g filter="url(#filter0_b)">
<rect width="25" height="25" rx="12.5" fill="#252525" fill-opacity="0.2"/>
</g>
<g clip-path="url(#clip0)">
<path d="M10.6063 12.1951C10.1057 11.5445 9.82997 10.6989 9.82997 9.81394C9.82997 9.36585 9.89939 8.92947 10.0364 8.51687C10.0918 8.34978 10.0013 8.16939 9.83424 8.11394C9.66715 8.05855 9.48676 8.14902 9.43131 8.31608C9.27286 8.79356 9.1925 9.29755 9.1925 9.81397C9.19247 10.8388 9.51514 11.8225 10.101 12.5839C10.1638 12.6655 10.2584 12.7083 10.3539 12.7083C10.4217 12.7083 10.4901 12.6867 10.5481 12.6422C10.6876 12.5348 10.7137 12.3346 10.6063 12.1951Z" fill="white"/>
<path d="M6.81821 13.9007C6.4383 13.4066 6.22905 12.7636 6.22905 12.0902C6.22905 11.749 6.28183 11.4168 6.38597 11.1028C6.44136 10.9357 6.35083 10.7553 6.18374 10.6999C6.01658 10.6444 5.83626 10.735 5.78087 10.9021C5.65523 11.281 5.59155 11.6808 5.59155 12.0903C5.59155 12.9034 5.84767 13.6844 6.31276 14.2893C6.37551 14.371 6.47009 14.4138 6.56569 14.4138C6.63348 14.4138 6.70182 14.3922 6.75976 14.3477C6.89933 14.2404 6.92551 14.0402 6.81821 13.9007Z" fill="white"/>
<path d="M19.8173 8.71861C19.1748 8.03312 18.3047 7.63032 17.3476 7.57002C17.1156 6.78934 16.7242 6.10012 16.1835 5.53128C15.2976 4.5992 14.0789 4.08594 12.7519 4.08594C11.4249 4.08594 10.2062 4.59923 9.3203 5.53128C8.77977 6.1 8.38844 6.78899 8.15639 7.56938C7.19686 7.62758 6.32559 8.03121 5.68443 8.7196C4.96963 9.48704 4.5918 10.531 4.5918 11.7386C4.5918 12.949 4.99004 14.1867 5.68443 15.1343C6.22062 15.8659 6.87661 16.3607 7.58525 16.5803L7.42183 17.1559C7.39453 17.252 7.41389 17.3554 7.47413 17.4351C7.53436 17.5148 7.62849 17.5617 7.72846 17.5617H8.11172V20.088C8.11172 20.264 8.25442 20.4067 8.43047 20.4067C8.60652 20.4067 8.74922 20.264 8.74922 20.088V17.5617H9.12776C9.22769 17.5617 9.32186 17.5149 9.38209 17.4351C9.44233 17.3554 9.46172 17.252 9.43439 17.1559L9.27199 16.5839C9.95097 16.3782 10.5752 15.9232 11.0903 15.2507C11.3152 15.3642 11.5457 15.4546 11.7806 15.5209L11.5464 16.3459C11.5191 16.442 11.5384 16.5454 11.5987 16.6251C11.6589 16.7048 11.753 16.7517 11.853 16.7517H12.4331V20.088C12.4331 20.2641 12.5758 20.4068 12.7519 20.4068C12.9279 20.4068 13.0706 20.2641 13.0706 20.088V16.7517H13.6507C13.7507 16.7517 13.8448 16.7048 13.9051 16.6251C13.9653 16.5454 13.9847 16.442 13.9574 16.3458L13.7231 15.5209C13.9584 15.4544 14.1893 15.3639 14.4144 15.2502C14.9314 15.9219 15.5555 16.3766 16.2327 16.5829L16.07 17.1558C16.0427 17.252 16.0621 17.3553 16.1223 17.4351C16.1826 17.5148 16.2767 17.5617 16.3767 17.5617H16.7576V20.0879C16.7576 20.264 16.9003 20.4067 17.0763 20.4067C17.2524 20.4067 17.3951 20.264 17.3951 20.0879V17.5617H17.776C17.8759 17.5617 17.97 17.5148 18.0303 17.4351C18.0905 17.3554 18.1099 17.252 18.0826 17.1558L17.9194 16.5811C18.6297 16.362 19.2872 15.8669 19.8245 15.1344C20.5196 14.1867 20.9182 12.949 20.9182 11.7385C20.9183 10.5314 20.5376 9.48707 19.8173 8.71861ZM8.1503 16.9242L8.21373 16.7007C8.28567 16.7063 8.35792 16.7094 8.43044 16.7094C8.50152 16.7094 8.57224 16.7066 8.64262 16.7014L8.70588 16.9242H8.1503ZM8.4305 16.0719C7.61239 16.0719 6.81979 15.6051 6.19865 14.7575C5.58261 13.9168 5.22933 12.8164 5.22933 11.7386C5.22933 9.80901 6.35206 8.4144 8.00327 8.22228C7.93949 8.5866 7.90687 8.96699 7.90687 9.36134C7.90687 10.8976 8.41258 12.4682 9.29434 13.6703C9.66873 14.1808 10.089 14.5995 10.5407 14.919C9.94874 15.6648 9.20799 16.0719 8.4305 16.0719ZM12.2749 16.1141L12.4096 15.6398C12.5231 15.6508 12.6372 15.6567 12.7519 15.6567C12.8666 15.6567 12.9807 15.6508 13.0942 15.6398L13.2289 16.1141H12.2749ZM12.7519 15.0192C11.6701 15.0192 10.6247 14.4063 9.80837 13.2933C9.00509 12.1981 8.54434 10.765 8.54434 9.36137C8.54434 6.67394 10.3139 4.72344 12.7519 4.72344C15.1899 4.72344 16.9595 6.67394 16.9595 9.36137C16.9595 10.765 16.4988 12.1981 15.6954 13.2933C14.8791 14.4063 13.8337 15.0192 12.7519 15.0192ZM16.7985 16.9242L16.8618 16.7012C16.933 16.7065 17.0045 16.7094 17.0763 16.7094C17.1481 16.7094 17.2195 16.7064 17.2907 16.701L17.3541 16.9242H16.7985ZM19.3106 14.7573C18.6888 15.605 17.8953 16.0719 17.0763 16.0719C16.3006 16.0719 15.5594 15.6647 14.9641 14.9183C15.4154 14.5989 15.8354 14.1804 16.2095 13.6703C17.0913 12.4682 17.597 10.8976 17.597 9.36137C17.597 8.9674 17.5644 8.58727 17.5007 8.22327C19.156 8.41906 20.2808 9.8122 20.2808 11.7386C20.2808 12.8164 19.9272 13.9167 19.3106 14.7573Z" fill="white"/>
</g>
<defs>
<filter id="filter0_b" x="-60" y="-60" width="145" height="145" filterUnits="userSpaceOnUse" color-interpolation-filters="sRGB">
<feFlood flood-opacity="0" result="BackgroundImageFix"/>
<feGaussianBlur in="BackgroundImage" stdDeviation="30"/>
<feComposite in2="SourceAlpha" operator="in" result="effect1_backgroundBlur"/>
<feBlend mode="normal" in="SourceGraphic" in2="effect1_backgroundBlur" result="shape"/>
</filter>
<clipPath id="clip0">
<rect width="16.3265" height="16.3265" fill="white" transform="translate(4.5918 4.08203)"/>
</clipPath>
</defs>
</svg>
