<svg width="26" height="29" viewBox="0 0 26 29" fill="none" xmlns="http://www.w3.org/2000/svg">
<path d="M25.1874 12.9375H0.812478C0.363961 12.9375 0 13.4135 0 14C0 14.5864 0.364028 15.0624 0.812478 15.0624H25.1874C25.636 15.0624 25.9999 14.5864 25.9999 14C25.9999 13.4135 25.636 12.9375 25.1874 12.9375Z" fill="#25B4E5"/>
<path d="M25.1874 26H0.812478C0.363961 26 0 26.476 0 27.0625C0 27.6489 0.364028 28.1249 0.812478 28.1249H25.1874C25.636 28.1249 25.9999 27.6489 25.9999 27.0625C25.9999 26.476 25.636 26 25.1874 26Z" fill="#25B4E5"/>
<path d="M25.1874 0H0.812478C0.363961 0 0 0.476034 0 1.06246C0 1.6489 0.364028 2.12493 0.812478 2.12493H25.1874C25.636 2.12493 25.9999 1.6489 25.9999 1.06246C25.9999 0.476034 25.636 0 25.1874 0Z" fill="#25B4E5"/>
</svg>
