<svg width="17" height="17" viewBox="0 0 17 17" fill="none" xmlns="http://www.w3.org/2000/svg">
<path d="M7.70039 9.38802C7.76467 9.36928 7.82462 9.33806 7.87683 9.29615C7.92905 9.25424 7.97249 9.20246 8.00469 9.14376C8.03689 9.08506 8.05721 9.02059 8.06449 8.95404C8.07178 8.88749 8.06588 8.82015 8.04714 8.75588L7.90926 8.28225C7.87134 8.15327 7.78417 8.04441 7.66662 7.97919C7.54907 7.91398 7.41057 7.89765 7.28107 7.93375L7.2775 7.93477L6.85715 6.49149C6.4702 5.16213 5.05607 4.39035 3.70467 4.77099C2.84579 5.00873 2.0893 5.52309 1.5524 6.23438C1.03056 6.92495 0.746649 7.76608 0.743252 8.63164C0.743252 8.7273 0.746919 8.8258 0.754126 8.92475C0.758811 8.98898 0.787617 9.04907 0.834762 9.09294C0.881907 9.13681 0.943901 9.16123 1.0083 9.1613C1.01449 9.1613 1.0208 9.16107 1.02708 9.16063C1.06051 9.1582 1.09312 9.14922 1.12307 9.13418C1.15302 9.11915 1.17971 9.09837 1.20162 9.07302C1.22354 9.04766 1.24024 9.01824 1.25078 8.98644C1.26132 8.95463 1.26549 8.92106 1.26305 8.88764C1.25668 8.80096 1.25349 8.71484 1.25349 8.63164C1.25349 7.07734 2.31854 5.69159 3.84306 5.26206C4.92581 4.95712 6.05827 5.57246 6.36729 6.6341L6.78636 8.07313L1.14663 9.66216C1.04959 9.68904 0.958883 9.73502 0.879833 9.79741C0.800783 9.85979 0.734977 9.93732 0.686269 10.0255C0.637902 10.112 0.607286 10.2073 0.596215 10.3058C0.585143 10.4043 0.593839 10.504 0.621792 10.5991C0.679461 10.7919 0.810628 10.9543 0.986978 11.0512C1.16333 11.1481 1.37071 11.1718 1.56436 11.1171L7.20935 9.52673L8.19064 12.8973C8.29141 13.2407 8.32263 13.6009 8.28249 13.9566C8.24234 14.3123 8.13163 14.6564 7.95684 14.9688C7.77751 15.2921 7.53548 15.5764 7.2449 15.8051C6.95433 16.0337 6.62107 16.2021 6.26462 16.3003C6.01274 16.3715 5.75227 16.4076 5.49054 16.4076C4.27032 16.4076 3.14536 15.6198 2.79395 14.4131L2.02737 11.7794C2.01829 11.747 2.00286 11.7166 1.98197 11.6901C1.96108 11.6637 1.93514 11.6416 1.90567 11.6252C1.87619 11.6088 1.84376 11.5984 1.81025 11.5946C1.77673 11.5909 1.7428 11.5938 1.71042 11.6032C1.67804 11.6126 1.64785 11.6284 1.62159 11.6495C1.59534 11.6707 1.57354 11.6969 1.55746 11.7265C1.54138 11.7562 1.53134 11.7887 1.52791 11.8222C1.52449 11.8558 1.52775 11.8897 1.53751 11.922L2.30416 14.5556C2.72026 15.9846 4.05001 16.9178 5.49156 16.9178C5.79973 16.9177 6.10643 16.8752 6.40301 16.7914C6.82438 16.6751 7.2183 16.4758 7.56171 16.2053C7.90512 15.9348 8.19111 15.5986 8.40295 15.2162C8.61061 14.8449 8.74211 14.436 8.78974 14.0133C8.83738 13.5906 8.8002 13.1626 8.68037 12.7544L7.70039 9.38802ZM7.31576 8.96656C7.31458 8.96688 7.31344 8.96707 7.31226 8.96739C7.31108 8.96771 7.31066 8.96799 7.30983 8.96822L1.4261 10.626C1.36193 10.6447 1.29299 10.6374 1.23416 10.6057C1.17533 10.574 1.13134 10.5204 1.11168 10.4565C1.10274 10.4261 1.09998 10.3942 1.10354 10.3626C1.10711 10.3311 1.11693 10.3006 1.13244 10.2729C1.14863 10.2439 1.17045 10.2183 1.19663 10.1977C1.22282 10.1772 1.25283 10.1621 1.28493 10.1533L7.17237 8.49443L7.1746 8.49392L7.1761 8.49338L7.4194 8.42485L7.55728 8.89851L7.31576 8.96656Z" fill="white"/>
<path d="M3.00862 11.5029C2.98938 11.4383 2.94537 11.384 2.88621 11.3517C2.82704 11.3195 2.75753 11.312 2.69283 11.3308C2.62814 11.3496 2.57352 11.3933 2.54091 11.4523C2.5083 11.5112 2.50033 11.5807 2.51876 11.6455L2.65428 12.1111C2.67301 12.1757 2.71655 12.2303 2.7754 12.2629C2.83425 12.2956 2.90362 12.3036 2.96837 12.2853L6.89248 11.1797C6.92492 11.1706 6.95522 11.1551 6.98164 11.1342C7.00806 11.1133 7.03008 11.0874 7.04642 11.0579C7.06276 11.0284 7.0731 10.996 7.07684 10.9625C7.08058 10.929 7.07765 10.8951 7.06821 10.8628L6.93269 10.3972C6.92338 10.365 6.90781 10.3349 6.88686 10.3087C6.86591 10.2825 6.84 10.2607 6.81061 10.2445C6.78122 10.2283 6.74893 10.2181 6.71559 10.2144C6.68224 10.2108 6.6485 10.2137 6.61629 10.2231C6.58408 10.2324 6.55404 10.2481 6.52788 10.2691C6.50172 10.2901 6.47996 10.316 6.46385 10.3455C6.44774 10.3749 6.43759 10.4072 6.43398 10.4406C6.43038 10.4739 6.43338 10.5077 6.44283 10.5398L6.50642 10.7583L3.07344 11.7256L3.00862 11.5029Z" fill="white"/>
<path d="M2.01939 8.87568C2.08685 8.87568 2.15156 8.84896 2.19937 8.80137C2.24717 8.75378 2.27419 8.68919 2.27449 8.62173C2.2795 7.51567 3.03979 6.53018 4.12372 6.22517C4.66543 6.0725 5.23182 6.37951 5.38648 6.90968L5.59215 7.61631C5.60129 7.64873 5.61675 7.67903 5.63766 7.70544C5.65856 7.73186 5.68449 7.75387 5.71395 7.77021C5.7434 7.78656 5.7758 7.7969 5.80928 7.80065C5.84276 7.80441 5.87664 7.80149 5.90899 7.79208C5.94133 7.78267 5.97149 7.76694 5.99773 7.74581C6.02396 7.72468 6.04575 7.69856 6.06183 7.66896C6.07792 7.63937 6.08799 7.60688 6.09145 7.57337C6.09491 7.53986 6.09171 7.506 6.08201 7.47374L5.87631 6.76698C5.64353 5.96892 4.79531 5.50566 3.98536 5.73407C2.68367 6.10043 1.77031 7.287 1.76428 8.61943C1.76413 8.65293 1.77058 8.68614 1.78326 8.71714C1.79594 8.74815 1.81461 8.77636 1.83819 8.80015C1.86177 8.82395 1.88981 8.84287 1.9207 8.85583C1.9516 8.86878 1.98474 8.87553 2.01824 8.87568H2.01939Z" fill="white"/>
<path d="M6.22286 12.2288C6.21526 12.2354 6.20808 12.2426 6.20134 12.2501L5.70175 12.8097L4.8631 13.046L4.13702 12.8311C4.12744 12.8282 4.11771 12.826 4.10787 12.8243C3.96637 12.7991 3.82078 12.8107 3.68499 12.8577C3.54919 12.9048 3.42771 12.9858 3.33211 13.0931C3.24152 13.193 3.17799 13.3144 3.14757 13.4457C3.11715 13.5771 3.12085 13.714 3.15832 13.8435L3.41205 14.7148C3.45042 14.8449 3.52119 14.9631 3.61771 15.0583C3.71424 15.1536 3.83337 15.2227 3.96393 15.2594C4.0415 15.2819 4.12186 15.2934 4.20264 15.2935C4.40862 15.2934 4.60746 15.218 4.76164 15.0814C4.76923 15.0747 4.77641 15.0676 4.78316 15.06L5.28275 14.5004L6.12139 14.2642L6.84751 14.4791C6.85708 14.4819 6.86681 14.4842 6.87666 14.4859C6.92523 14.4943 6.97443 14.4986 7.02372 14.4986C7.14246 14.4988 7.25989 14.4739 7.36826 14.4253C7.47663 14.3768 7.57347 14.3058 7.65239 14.2171C7.74299 14.1173 7.80653 13.9959 7.83695 13.8646C7.86738 13.7332 7.86368 13.5963 7.82621 13.4668L7.57257 12.5953C7.53418 12.4653 7.4634 12.3471 7.36687 12.2519C7.27034 12.1567 7.15122 12.0875 7.02066 12.0509C6.88349 12.0106 6.73834 12.0057 6.5988 12.0368C6.45926 12.068 6.32991 12.134 6.22286 12.2288ZM4.41412 14.7073C4.3717 14.7419 4.32147 14.7657 4.26779 14.7765C4.21412 14.7873 4.15861 14.7849 4.10609 14.7694C4.05802 14.7568 4.014 14.7321 3.97826 14.6975C3.94252 14.663 3.91626 14.6199 3.90201 14.5723L3.64827 13.7008C3.63494 13.6544 3.63388 13.6053 3.64518 13.5584C3.65648 13.5114 3.67976 13.4682 3.71275 13.4329C3.7441 13.3979 3.78254 13.3698 3.82553 13.3507C3.86851 13.3316 3.91506 13.3218 3.96211 13.322C3.97766 13.322 3.9932 13.3231 4.00861 13.3252L4.65548 13.5165L4.79732 14.0038L4.85752 14.2106L4.41412 14.7073ZM5.31623 13.9611L5.17831 13.4871L5.66827 13.3491L5.79346 13.7792L5.80621 13.8228L5.31623 13.9611ZM7.33619 13.6094C7.34953 13.6558 7.3506 13.7049 7.3393 13.7518C7.328 13.7988 7.30471 13.842 7.27171 13.8773C7.23503 13.9181 7.18885 13.9493 7.13726 13.9682C7.08567 13.987 7.03024 13.9928 6.97586 13.9851L6.32901 13.7938L6.19974 13.3497L6.12697 13.0997L6.57037 12.6031C6.61279 12.5684 6.66301 12.5447 6.71669 12.5339C6.77036 12.5231 6.82586 12.5255 6.87838 12.541C6.92644 12.5535 6.97046 12.5783 7.00621 12.6128C7.04195 12.6473 7.06821 12.6904 7.08246 12.738L7.33619 13.6094Z" fill="white"/>
<path d="M14.6063 8.21326C14.6615 8.21323 14.7152 8.19529 14.7594 8.16214C14.8035 8.12899 14.8357 8.08241 14.8511 8.0294L14.9866 7.56384C14.9962 7.5316 14.9994 7.49779 14.9959 7.46433C14.9923 7.43088 14.9822 7.39846 14.9661 7.36892C14.9501 7.33939 14.9283 7.31333 14.9021 7.29224C14.8759 7.27115 14.8457 7.25546 14.8134 7.24606C14.7812 7.23666 14.7473 7.23374 14.7139 7.23746C14.6805 7.24119 14.6481 7.25149 14.6187 7.26777C14.5892 7.28405 14.5633 7.30599 14.5424 7.33233C14.5215 7.35867 14.506 7.38888 14.4968 7.42124L14.4319 7.64397L10.9989 6.67678L11.0625 6.45832C11.0814 6.39337 11.0738 6.32355 11.0413 6.26423C11.0087 6.20492 10.9539 6.16096 10.889 6.14203C10.824 6.1231 10.7542 6.13074 10.6949 6.16329C10.6356 6.19583 10.5916 6.2506 10.5727 6.31556L10.4372 6.78112C10.4278 6.81347 10.4248 6.84735 10.4286 6.88083C10.4323 6.91431 10.4427 6.94671 10.459 6.97616C10.4754 7.00562 10.4974 7.03155 10.5238 7.05245C10.5502 7.07336 10.5805 7.08882 10.6129 7.09796L14.537 8.20351C14.5596 8.20992 14.5829 8.2132 14.6063 8.21326Z" fill="white"/>
<path d="M13.5201 1.65216C12.7098 1.42343 11.8614 1.88695 11.6292 2.68513L11.4235 3.39176C11.4138 3.42402 11.4106 3.45788 11.4141 3.49139C11.4175 3.5249 11.4276 3.55739 11.4437 3.58699C11.4598 3.61658 11.4816 3.6427 11.5078 3.66383C11.534 3.68496 11.5642 3.70069 11.5965 3.7101C11.6289 3.71952 11.6628 3.72243 11.6962 3.71868C11.7297 3.71492 11.7621 3.70458 11.7916 3.68824C11.821 3.6719 11.847 3.64988 11.8679 3.62347C11.8888 3.59705 11.9042 3.56676 11.9134 3.53433L12.119 2.8277C12.2734 2.29741 12.8397 1.99036 13.3818 2.14326C14.4655 2.4482 15.2259 3.43369 15.2309 4.53975C15.2312 4.60721 15.2582 4.6718 15.306 4.71939C15.3538 4.76699 15.4185 4.79371 15.486 4.79371H15.4872C15.5207 4.79356 15.5538 4.78681 15.5847 4.77385C15.6156 4.76089 15.6436 4.74197 15.6672 4.71818C15.6908 4.69438 15.7095 4.66618 15.7221 4.63517C15.7348 4.60416 15.7413 4.57096 15.7411 4.53746C15.735 3.20493 14.8217 2.01845 13.5201 1.65216Z" fill="white"/>
<path d="M16.819 5.94345C16.7703 5.85532 16.7045 5.77779 16.6254 5.71541C16.5464 5.65303 16.4557 5.60704 16.3587 5.58015L10.7189 3.99112L11.138 2.55206C11.447 1.49045 12.5793 0.87476 13.6622 1.18005C15.187 1.60971 16.2518 2.99533 16.2518 4.54963C16.2518 4.63289 16.2486 4.71899 16.2422 4.8056C16.2398 4.83902 16.244 4.8726 16.2545 4.90441C16.2651 4.93622 16.2818 4.96564 16.3037 4.991C16.3256 5.01635 16.3523 5.03714 16.3822 5.05217C16.4122 5.06721 16.4448 5.07619 16.4782 5.07862C16.4846 5.07907 16.4909 5.07929 16.4971 5.07929C16.5615 5.07922 16.6234 5.0548 16.6706 5.01093C16.7177 4.96707 16.7465 4.907 16.7512 4.84278C16.7584 4.74393 16.7621 4.64526 16.7621 4.54963C16.7587 3.68407 16.4748 2.84294 15.953 2.15237C15.416 1.44106 14.6595 0.926688 13.8005 0.688981C12.4492 0.308273 11.035 1.08012 10.6481 2.40942L10.2278 3.85276L10.2243 3.85174C10.0948 3.81566 9.95628 3.83199 9.83874 3.8972C9.72119 3.9624 9.63402 4.07125 9.59608 4.20021L9.45816 4.6739C9.42034 4.8037 9.43562 4.94322 9.50065 5.06175C9.56569 5.18029 9.67514 5.26814 9.80494 5.30598L8.82481 8.67256C8.70498 9.08072 8.66779 9.50868 8.71543 9.93139C8.76306 10.3541 8.89456 10.763 9.10223 11.1343C9.31406 11.5167 9.60006 11.853 9.94346 12.1235C10.2869 12.3939 10.6808 12.5932 11.1022 12.7096C11.3987 12.7933 11.7054 12.8358 12.0136 12.8359C13.4549 12.8359 14.7849 11.9026 15.201 10.4737L15.9676 7.8401C15.9774 7.80782 15.9806 7.77392 15.9772 7.74037C15.9738 7.70682 15.9637 7.67428 15.9477 7.64463C15.9316 7.61499 15.9098 7.58883 15.8835 7.56766C15.8573 7.5465 15.8271 7.53075 15.7947 7.52132C15.7623 7.5119 15.7284 7.50899 15.6949 7.51277C15.6614 7.51654 15.6289 7.52692 15.5994 7.54331C15.57 7.5597 15.544 7.58177 15.5231 7.60825C15.5023 7.63473 15.4868 7.66508 15.4777 7.69756L14.7112 10.3311C14.286 11.7911 12.729 12.6378 11.2405 12.2184C10.8841 12.1202 10.5508 11.9518 10.2602 11.7231C9.96969 11.4945 9.72767 11.2101 9.54837 10.8868C9.37357 10.5744 9.26286 10.2303 9.22271 9.87459C9.18255 9.51888 9.21377 9.15874 9.31454 8.81526L10.2958 5.44472L15.9407 7.03522C16.1343 7.08992 16.3417 7.06626 16.5181 6.96935C16.6945 6.87244 16.8257 6.71006 16.8833 6.51727C16.9113 6.42215 16.92 6.32241 16.909 6.22387C16.898 6.12534 16.8674 6.03 16.819 5.94345ZM16.3936 6.37454C16.3739 6.43841 16.3299 6.49198 16.2711 6.52369C16.2123 6.5554 16.1433 6.5627 16.0792 6.54402L10.1955 4.88624C10.1946 4.88599 10.1939 4.88563 10.193 4.88538C10.1922 4.88512 10.1906 4.88487 10.1894 4.88452L9.94799 4.8165L10.0859 4.34284L10.3292 4.4114L10.3307 4.41191C10.3314 4.4121 10.3321 4.4122 10.3328 4.41239L16.2203 6.07125C16.2524 6.08004 16.2825 6.09514 16.3087 6.11569C16.3349 6.13623 16.3568 6.1618 16.373 6.1909C16.3885 6.2186 16.3983 6.24911 16.4018 6.28064C16.4053 6.31217 16.4025 6.3441 16.3936 6.37454Z" fill="white"/>
<path d="M13.3973 8.74229C13.3875 8.74398 13.3777 8.74625 13.3682 8.74908L12.6421 8.96401L11.8034 8.72775L11.3038 8.16815C11.2971 8.16059 11.2899 8.15345 11.2823 8.14676C11.1752 8.052 11.0459 7.98596 10.9064 7.95483C10.7669 7.9237 10.6218 7.92851 10.4846 7.96879C10.354 8.00541 10.2349 8.07458 10.1384 8.16981C10.0419 8.26505 9.9711 8.38322 9.93272 8.51327L9.67905 9.38467C9.64159 9.51419 9.6379 9.65114 9.66834 9.78248C9.69877 9.91383 9.76231 10.0352 9.8529 10.1351C9.93181 10.2238 10.0286 10.2947 10.137 10.3433C10.2454 10.3918 10.3628 10.4168 10.4815 10.4166C10.5308 10.4165 10.5801 10.4122 10.6286 10.4038C10.6385 10.4021 10.6482 10.3998 10.6578 10.397L11.3839 10.1821L12.2225 10.4183L12.7221 10.9779C12.7289 10.9855 12.7361 10.9926 12.7437 10.9993C12.8978 11.1359 13.0967 11.2114 13.3026 11.2114C13.3834 11.2113 13.4638 11.1999 13.5414 11.1773C13.6719 11.1407 13.791 11.0715 13.8875 10.9763C13.984 10.881 14.0547 10.7629 14.0931 10.6329L14.3467 9.76149C14.3842 9.63197 14.3879 9.49502 14.3575 9.36368C14.3271 9.23233 14.2635 9.11096 14.1729 9.0111C14.0773 8.90383 13.9559 8.82281 13.8201 8.77576C13.6843 8.7287 13.5388 8.71718 13.3973 8.74229ZM11.3055 9.26751L11.1762 9.71165L10.5294 9.90297C10.475 9.91066 10.4195 9.90483 10.3679 9.88601C10.3163 9.86719 10.2702 9.83596 10.2335 9.79507C10.2005 9.75981 10.1772 9.7166 10.1659 9.66965C10.1546 9.6227 10.1557 9.57362 10.169 9.52721L10.4228 8.65581C10.4371 8.60822 10.4633 8.5651 10.4991 8.5306C10.5348 8.49609 10.5788 8.47136 10.6269 8.45878C10.658 8.44973 10.6902 8.44513 10.7225 8.4451C10.8 8.44505 10.8751 8.47182 10.935 8.52086L11.3783 9.01752L11.3055 9.26751ZM12.2928 9.5223L12.189 9.87896L11.6991 9.74095L11.7331 9.62392L11.837 9.26726L12.3269 9.40527L12.2928 9.5223ZM13.8571 9.61882L13.6034 10.4902C13.5892 10.5378 13.5629 10.5809 13.5272 10.6155C13.4914 10.65 13.4474 10.6747 13.3994 10.6873C13.3468 10.7028 13.2913 10.7052 13.2377 10.6944C13.184 10.6836 13.1338 10.6598 13.0913 10.6252L12.6481 10.1285L12.7208 9.87858L12.8501 9.43445L13.497 9.24312C13.5514 9.23542 13.6068 9.24124 13.6584 9.26005C13.71 9.27886 13.7562 9.3101 13.7928 9.351C13.8258 9.38627 13.849 9.42949 13.8603 9.47643C13.8716 9.52337 13.8705 9.57243 13.8571 9.61882Z" fill="white"/>
</svg>
