<svg width="45" height="45" viewBox="0 0 45 45" fill="none" xmlns="http://www.w3.org/2000/svg">
<g clip-path="url(#clip0)">
<path d="M44.1211 29.2609H43.9921V23.45C43.9934 23.3245 43.9618 23.1919 43.9186 23.0977L40.3708 14.5675C40.2345 14.2398 39.9143 14.0261 39.5593 14.0261H33.6729V9.02207C33.6729 7.45964 32.4039 6.18848 30.844 6.18848H27.338L27.3853 7.94629H30.844C31.4346 7.94629 31.9151 8.4289 31.9151 9.02207V29.2607H2.76574V9.02216C2.76574 8.42898 3.24624 7.94638 3.83687 7.94638H6.77057L6.81785 6.18856H3.83687C2.27698 6.18856 1.00793 7.45973 1.00793 9.02216V29.2608H0.878906C0.393486 29.2608 0 29.6543 0 30.1397V36.1718C0 36.6572 0.393486 37.0507 0.878906 37.0507H5.54361C5.4559 37.4225 5.4094 37.8103 5.4094 38.2087C5.4094 40.9696 7.6398 43.2157 10.3815 43.2157C13.123 43.2157 15.3534 40.9696 15.3534 38.2087C15.3534 37.8103 15.3069 37.4225 15.2192 37.0507H30.8517C30.764 37.4225 30.7175 37.8103 30.7175 38.2087C30.7175 40.9696 32.9479 43.2157 35.6896 43.2157C38.4311 43.2157 40.6616 40.9696 40.6616 38.2087C40.6616 37.8103 40.6151 37.4225 40.5274 37.0507H44.1211C44.6065 37.0507 45 36.6572 45 36.1718V30.1397C45 29.6544 44.6065 29.2609 44.1211 29.2609ZM33.6731 15.784H38.973L41.7958 22.5711H33.6731V15.784ZM33.6731 24.3289H42.2343V29.2604H33.6731V24.3289ZM10.3815 41.4579C8.60915 41.4579 7.16722 40.0003 7.16722 38.2087C7.16722 36.417 8.60915 34.9595 10.3815 34.9595C12.1538 34.9595 13.5956 36.417 13.5956 38.2087C13.5957 40.0003 12.1538 41.4579 10.3815 41.4579ZM35.6896 41.4579C33.9173 41.4579 32.4753 40.0003 32.4753 38.2087C32.4753 36.417 33.9173 34.9595 35.6896 34.9595C37.4619 34.9595 38.9038 36.417 38.9038 38.2087C38.9038 40.0003 37.4619 41.4579 35.6896 41.4579ZM43.2422 35.2929H39.793C39.7722 35.2929 39.7515 35.2937 39.731 35.2951C38.828 34.0284 37.3528 33.2017 35.6896 33.2017C34.0273 33.2017 32.5529 34.0274 31.6497 35.2929H14.4855C14.4644 35.2929 14.4436 35.2937 14.4229 35.2952C13.5198 34.0284 12.0446 33.2017 10.3815 33.2017C8.71919 33.2017 7.24482 34.0275 6.34157 35.293H1.75781V31.0187H43.2422V35.2929Z" fill="black"/>
<path d="M28.1736 4.58098C28.2456 3.76623 28.1919 3.07102 27.6803 2.53497C25.827 0.593556 21.4473 2.83406 19.2815 4.54925C18.9497 4.31458 18.5635 4.10443 18.145 4.01523C17.8078 3.91037 17.4494 3.85386 17.0777 3.85386C16.7183 3.85386 16.3713 3.90677 16.0439 4.00512C15.6125 4.08317 15.2145 4.28294 14.874 4.52367C12.7083 2.80858 8.32873 0.635216 6.47538 2.57672C5.96368 3.11276 5.90998 3.76614 5.98214 4.58098L5.82886 10.2844C5.96562 14.5385 10.8534 13.1631 13.9612 11.3989V16.8924L17.0779 15.1477L20.1946 16.8924V11.3988C23.3024 13.163 28.1902 14.5384 28.3269 10.2843L28.1736 4.58098Z" fill="#25B4E5"/>
</g>
<defs>
<clipPath id="clip0">
<rect width="45" height="45" fill="white"/>
</clipPath>
</defs>
</svg>
