<svg width="52" height="22" viewBox="0 0 52 22" fill="none" xmlns="http://www.w3.org/2000/svg">
<path d="M11.1577 22C7.70057 22 4.24343 22 0.786303 22C0.0844788 22 0.00649837 21.9226 0.00649837 21.2325C0.00649837 14.37 0 7.50103 0 0.638522C0 0.148344 0.136466 0 0.63684 0C7.62908 0 14.6213 0 21.6136 0C22.1204 0 22.2634 0.135444 22.2634 0.625623C22.2634 7.53327 22.2634 14.4474 22.2634 21.355C22.2634 21.8775 22.1204 22 21.5356 22C18.0785 22 14.6148 22 11.1577 22ZM2.46288 10.9903C2.46288 12.7189 2.46938 14.4538 2.45638 16.1824C2.45638 16.5113 2.52137 16.6467 2.88528 16.6274C3.45713 16.5951 4.04198 16.5887 4.61384 16.6274C5.06873 16.6596 5.21819 16.55 5.21169 16.0598C5.1857 13.4348 5.19869 10.8033 5.19869 8.1718C5.19869 7.93316 5.1597 7.71387 5.53661 7.72032C7.25218 7.72677 8.96125 7.70097 10.6768 7.72032C11.3526 7.72677 11.866 8.0557 12.139 8.69422C12.2624 8.98446 12.2754 9.29405 12.2819 9.60363C12.2884 11.7965 12.3079 13.9959 12.3079 16.1888C12.3079 16.4984 12.3729 16.6274 12.7173 16.6145C13.3541 16.5822 13.9975 16.5887 14.6343 16.608C14.9268 16.6145 14.9982 16.5177 14.9982 16.2339C14.9787 13.6799 14.9852 11.1322 14.9657 8.57813C14.9527 6.8625 13.744 5.31457 11.6906 5.36617C8.7663 5.43711 5.83553 5.37907 2.90477 5.35972C2.55386 5.35972 2.45638 5.44356 2.46288 5.79185C2.47588 7.52682 2.46288 9.2618 2.46288 10.9903ZM19.8265 10.9839C19.8265 9.236 19.82 7.48813 19.833 5.7467C19.833 5.48226 19.7875 5.35327 19.4821 5.35972C18.7998 5.37907 18.111 5.37907 17.4286 5.35972C17.1297 5.35327 17.0712 5.46936 17.0712 5.74025C17.0777 9.2489 17.0777 12.7575 17.0712 16.2662C17.0712 16.5629 17.1752 16.6338 17.4481 16.6274C18.085 16.6145 18.7283 16.5951 19.3651 16.6338C19.7745 16.6532 19.846 16.5048 19.846 16.1308C19.82 14.4151 19.833 12.6995 19.8265 10.9839ZM7.31066 13.0865C7.31066 14.1249 7.31716 15.1568 7.30417 16.1952C7.30417 16.4532 7.37565 16.55 7.64858 16.5435C8.3634 16.5306 9.07822 16.5306 9.79954 16.5435C10.0465 16.55 10.118 16.4597 10.118 16.221C10.1115 14.1636 10.1115 12.1126 10.118 10.0551C10.118 9.78423 10.0205 9.71328 9.76055 9.71328C9.07822 9.72618 8.38939 9.73908 7.70706 9.70683C7.34965 9.68748 7.29767 9.81648 7.30417 10.1196C7.32366 11.1064 7.31066 12.0997 7.31066 13.0865Z" fill="#9DA8B3"/>
<path d="M46.8468 14.1368C46.8468 14.9688 46.8403 15.8073 46.8533 16.6393C46.8598 16.9295 46.7818 17.065 46.4634 17.0392C46.1385 17.0134 45.8071 17.0134 45.4821 17.0392C45.1442 17.065 45.0662 16.9166 45.0727 16.607C45.0857 15.0011 45.0857 13.3951 45.0727 11.7827C45.0727 11.5763 45.2547 11.2602 44.8583 11.1828C44.2929 11.0732 44.111 11.1699 43.955 11.6601C43.4871 13.1177 43.0258 14.5754 42.5514 16.0266C42.2459 16.9618 41.5116 17.2972 40.5759 16.9489C40.3614 16.8715 40.4914 16.7489 40.5304 16.6586C41.1152 15.143 41.6156 13.6015 42.064 12.0406C42.1095 11.8794 42.1485 11.7117 42.207 11.5505C42.3044 11.2796 42.2589 11.157 41.9275 11.1699C41.3687 11.1893 40.8033 11.1635 40.2444 11.1828C39.9715 11.1893 39.861 11.1183 39.8545 10.8216C39.8221 9.70584 39.8156 9.70584 40.9268 9.70584C42.155 9.70584 43.3897 9.69294 44.6178 9.71229C44.9948 9.71874 45.0987 9.5962 45.0922 9.23501C45.0727 7.81607 45.0922 6.39069 45.0792 4.97175C45.0727 4.63636 45.1572 4.48802 45.5211 4.52027C45.833 4.54607 46.145 4.54607 46.4569 4.52027C46.8013 4.48802 46.8728 4.63636 46.8663 4.94595C46.8533 6.35199 46.8728 7.75803 46.8533 9.16407C46.8468 9.5704 46.9378 9.72519 47.3862 9.71874C48.7703 9.68649 50.161 9.71874 51.5451 9.69939C51.8895 9.69294 52 9.78324 52 10.138C51.9935 11.1828 52.013 11.1828 50.9343 11.1828C49.7321 11.1828 49.7256 11.1828 50.0765 12.3438C50.4859 13.7047 50.9018 15.0656 51.4281 16.3878C51.6491 16.9424 51.6361 16.9037 51.0577 16.9747C49.992 17.1101 49.7711 16.9553 49.4201 15.8266C48.9783 14.4141 48.5234 13.0016 48.075 11.5827C47.971 11.2473 47.1912 11.0022 46.9313 11.2344C46.8208 11.3312 46.8598 11.4666 46.8598 11.5827C46.8468 12.4405 46.8468 13.2854 46.8468 14.1368Z" fill="#9DA8B3"/>
<path d="M33.3887 10.3186C33.3887 12.0664 33.3887 13.8079 33.3887 15.5557C33.3887 16.5425 32.9013 17.0327 31.9005 17.0327C31.4522 17.0327 30.9973 17.0263 30.5489 17.0392C30.3149 17.0456 30.198 16.9682 30.2175 16.7231C30.2305 16.5361 30.2305 16.3491 30.224 16.1685C30.2045 15.717 30.4579 15.5299 30.8673 15.4848C31.5366 15.4074 31.6471 15.2784 31.6471 14.5947C31.6471 11.415 31.6471 8.22886 31.6276 5.04914C31.6276 4.66216 31.6991 4.46867 32.1345 4.52672C32.4074 4.55897 32.6933 4.55252 32.9728 4.52672C33.3107 4.49447 33.3952 4.63636 33.3887 4.9524C33.3757 6.74542 33.3822 8.53844 33.3822 10.3315C33.3822 10.3186 33.3887 10.3186 33.3887 10.3186Z" fill="#9DA8B3"/>
<path d="M28.7163 6.48097C29.6001 6.48742 29.6066 6.48742 29.4571 7.33234C29.0542 9.62844 28.6514 11.9181 28.242 14.2142C28.099 15.0011 27.891 15.1494 27.1047 15.0333C27.0722 15.0269 27.0463 15.0204 27.0138 15.0204C26.169 14.9237 26.182 14.9301 26.3444 14.111C26.7863 11.8536 27.2152 9.59619 27.6506 7.34524C27.8196 6.47452 27.8261 6.48097 28.7163 6.48097Z" fill="#9DA8B3"/>
<path d="M36.3584 6.48098C37.1512 6.47453 37.1772 6.47453 37.2812 7.2485C37.5606 9.29306 37.814 11.3441 38.0805 13.3886C38.126 13.7563 38.178 14.1239 38.2429 14.4851C38.3079 14.8398 38.2494 15.0527 37.8141 15.014C37.5996 14.9946 37.3787 15.0398 37.1642 15.0656C36.6508 15.1301 36.3714 14.9301 36.3064 14.4012C36.1765 13.3435 36.066 12.2922 35.9425 11.2344C35.7931 9.93158 35.6371 8.63519 35.4876 7.33235C35.4811 7.3001 35.4811 7.26785 35.4811 7.24205C35.4097 6.48743 35.4097 6.48743 36.1765 6.48098C36.2284 6.48098 36.2934 6.48098 36.3584 6.48098Z" fill="#9DA8B3"/>
<path d="M48.4389 8.79644C47.6396 8.80933 47.6266 8.80288 47.971 8.20306C48.4519 7.35815 48.8483 6.46809 49.2187 5.57157C49.3227 5.31359 49.4656 5.21684 49.7386 5.23619C50.031 5.25554 50.3299 5.25554 50.6224 5.23619C50.9733 5.21684 50.9733 5.34583 50.8433 5.60382C50.4664 6.36489 50.1025 7.12596 49.7451 7.89992C49.4591 8.51265 49.0693 8.91253 48.4389 8.79644Z" fill="#9DA8B3"/>
<path d="M41.8756 5.24909C42.4019 5.08784 42.6359 5.41678 42.8243 5.93921C43.1427 6.80992 43.5911 7.62258 44.033 8.43525C44.176 8.69969 44.1695 8.78353 43.8186 8.81578C42.9348 8.89963 42.3694 8.56424 42.0445 7.73868C41.7781 7.06791 41.4402 6.42294 41.1347 5.76507C40.8943 5.24909 40.8943 5.24909 41.4727 5.24909C41.5766 5.24909 41.6871 5.24909 41.8756 5.24909Z" fill="#9DA8B3"/>
</svg>
