<svg width="66" height="19" viewBox="0 0 66 19" fill="none" xmlns="http://www.w3.org/2000/svg">
<path d="M48.1819 13.3637C48.1819 14.6392 48.1571 15.7813 48.1901 16.9234C48.2066 17.3402 48.0664 17.4236 47.6951 17.3986C47.2166 17.3652 46.7381 17.3819 46.2596 17.3986C46.0203 17.4069 45.9625 17.3236 45.9625 17.0901C45.9708 13.4137 45.9708 9.73723 45.9625 6.05244C45.9625 5.81902 46.0368 5.73565 46.2678 5.74399C46.7876 5.76066 47.3156 5.769 47.8354 5.74399C48.1654 5.72732 48.1819 5.87737 48.1819 6.14415C48.1736 8.1366 48.1736 10.1207 48.1736 12.1132C48.1736 12.2549 48.1736 12.3966 48.1736 12.6467C49.1307 11.4546 50.0217 10.3541 50.8962 9.23703C51.0612 9.02862 51.2263 8.93691 51.4903 8.94525C52.1915 8.96192 52.8928 8.95359 53.6766 8.95359C53.1568 9.5705 52.6866 10.1457 52.208 10.7043C51.6965 11.3129 51.1933 11.9298 50.6652 12.5217C50.459 12.7467 50.4342 12.8885 50.6322 13.1469C51.6223 14.4474 52.5876 15.7646 53.5611 17.0818C53.6189 17.1652 53.6766 17.2402 53.7921 17.3986C52.8846 17.3986 52.0595 17.3986 51.2345 17.3986C51.053 17.3986 51.0035 17.2319 50.921 17.1151C50.1207 16.0314 49.3287 14.9393 48.5284 13.8472C48.4459 13.7055 48.3469 13.5804 48.1819 13.3637ZM65.9283 11.813C65.7633 10.5626 65.2353 9.54549 64.039 8.99527C63.478 8.73684 62.8675 8.65347 62.2487 8.64513C60.0458 8.62846 58.503 9.60384 58.272 11.9965C58.107 13.7055 58.2473 15.4311 58.206 17.1485C58.1978 17.3736 58.305 17.3902 58.4783 17.3819C58.9816 17.3736 59.4931 17.3486 59.9963 17.3902C60.3759 17.4153 60.4254 17.2652 60.4254 16.9317C60.4171 15.3978 60.4006 13.8555 60.4419 12.3216C60.4749 11.2712 61.0854 10.721 62.1002 10.7126C63.0902 10.7043 63.676 11.2795 63.7502 12.3299C63.7667 12.5383 63.7667 12.7551 63.7667 12.9635C63.7667 14.3224 63.775 15.6729 63.7585 17.0318C63.7585 17.3152 63.8327 17.3986 64.105 17.3819C64.6083 17.3569 65.1198 17.3569 65.6231 17.3819C65.9366 17.3986 65.9861 17.2652 65.9778 16.9901C65.9613 16.2398 65.9696 15.4812 65.9696 14.5725C65.9696 13.7722 66.0603 12.7884 65.9283 11.813ZM42.2087 16.9984C42.2087 17.2569 42.2417 17.3819 42.5469 17.3736C43.0667 17.3486 43.5947 17.3569 44.1145 17.3736C44.329 17.3819 44.4362 17.3486 44.4362 17.0901C44.428 13.4137 44.428 9.73723 44.4362 6.05244C44.4362 5.81068 44.362 5.74399 44.131 5.75233C43.6277 5.769 43.1162 5.77733 42.6129 5.75233C42.2994 5.73565 42.2169 5.84403 42.2169 6.15248C42.2334 7.94486 42.2252 9.73723 42.2252 11.5379C42.2087 13.347 42.2169 15.1727 42.2087 16.9984ZM56.8695 9.27872C56.8695 9.04529 56.8447 8.92024 56.5642 8.93691C56.0279 8.96192 55.4917 8.95359 54.9554 8.93691C54.7244 8.92858 54.6501 8.99527 54.6501 9.23703C54.6584 11.8464 54.6584 14.4558 54.6501 17.0568C54.6501 17.2985 54.7326 17.3652 54.9637 17.3569C55.4834 17.3402 56.0114 17.3319 56.5312 17.3569C56.8117 17.3736 56.8777 17.2735 56.8777 16.9984C56.8612 15.7146 56.8695 14.4391 56.8695 13.1552C56.8695 11.8714 56.8612 10.5792 56.8695 9.27872ZM8.8361 5.6912e-05C7.7388 0.00839353 6.83127 0.900412 6.83952 1.95083C6.84777 3.03459 7.7388 3.9016 8.82785 3.9016C9.92514 3.9016 10.7584 3.06793 10.7502 1.9675C10.7502 0.900412 9.86739 -0.00827971 8.8361 5.6912e-05ZM55.7969 5.2688C55.1122 5.25213 54.4769 5.88571 54.4769 6.58599C54.4769 7.30294 55.0544 7.8865 55.7887 7.89484C56.4982 7.91151 57.051 7.35296 57.0592 6.61933C57.0675 5.87737 56.5147 5.28547 55.7969 5.2688ZM7.07053 12.0131C7.76355 12.0215 8.34933 11.4296 8.34933 10.7126C8.34933 9.97899 7.7718 9.40376 7.03753 9.4121C6.3775 9.4121 5.81648 10.0123 5.80823 10.7043C5.80823 11.4296 6.36925 12.0131 7.07053 12.0131ZM10.5357 12.0215C11.2204 12.0381 11.8227 11.4379 11.831 10.746C11.8392 10.0207 11.2617 9.42877 10.5357 9.42044C9.87564 9.4121 9.30636 10.004 9.29811 10.7043C9.28986 11.4212 9.83438 12.0048 10.5357 12.0215ZM6.60851 17.6654C6.60026 16.9651 6.05574 16.4315 5.32971 16.4315C4.63668 16.4315 4.03441 17.0234 4.03441 17.7154C4.03441 18.4157 4.62018 18.9992 5.32146 18.9992C6.03924 19.0076 6.61676 18.399 6.60851 17.6654ZM16.3026 5.34383C15.6014 5.33549 15.0238 5.91072 15.0156 6.61933C15.0073 7.34462 15.5601 7.91151 16.2779 7.91151C17.0039 7.91151 17.5567 7.32795 17.5567 6.57765C17.5567 5.87737 17.0204 5.34383 16.3026 5.34383ZM7.09528 8.48674C7.7718 8.4784 8.34108 7.89484 8.34933 7.21123C8.35758 6.50262 7.78005 5.90238 7.08703 5.90238C6.38575 5.90238 5.80823 6.49428 5.81648 7.2029C5.81648 7.91985 6.394 8.49507 7.09528 8.48674ZM12.2517 16.4315C11.5505 16.4315 10.9647 17.0151 10.9647 17.7154C10.9647 18.399 11.5175 18.9825 12.2022 18.9992C12.9283 19.0242 13.5058 18.449 13.5223 17.707C13.5305 16.9734 13.0025 16.4399 12.2517 16.4315ZM0 6.62767C0 7.33628 0.569272 7.91151 1.2788 7.91151C1.99658 7.91151 2.56585 7.31127 2.5576 6.56931C2.54935 5.86904 1.99658 5.34383 1.28705 5.34383C0.585773 5.34383 0 5.92739 0 6.62767ZM11.8062 7.23624C11.8392 6.55264 11.2534 5.93573 10.5687 5.90238C9.89214 5.87737 9.27336 6.46094 9.24036 7.15288C9.20736 7.83648 9.78488 8.45339 10.4779 8.48674C11.1544 8.52008 11.7732 7.92818 11.8062 7.23624ZM30.8975 15.7646C29.8249 17.2985 28.2986 17.7737 26.533 17.5153C24.2642 17.1818 22.8699 15.5645 22.8286 13.2469C22.7874 10.8627 22.8204 8.48674 22.8039 6.10246C22.8039 5.82735 22.8616 5.72732 23.1504 5.74399C23.6454 5.769 24.1322 5.769 24.6272 5.74399C24.916 5.73565 25.015 5.81068 25.0067 6.11914C24.9902 7.17789 24.9985 8.2283 24.9985 9.28705C24.9985 9.42877 24.9985 9.57883 24.9985 9.81226C25.7163 9.12032 26.4918 8.75351 27.3993 8.70349C29.7094 8.58678 31.409 10.0957 31.607 12.4383C31.7142 13.6221 31.5987 14.7642 30.8975 15.7646ZM29.4042 13.1302C29.3959 11.763 28.4389 10.746 27.1766 10.7626C25.9555 10.7793 25.0067 11.8297 25.0067 13.1552C25.0067 14.4641 25.9803 15.5395 27.1518 15.5228C28.4884 15.4978 29.4124 14.5225 29.4042 13.1302ZM41.0454 13.6888C41.0536 13.9306 40.9464 13.9889 40.7318 13.9806C39.7748 13.9722 38.8178 13.9722 37.869 13.9722C36.9284 13.9722 35.9879 13.9806 35.0474 13.9639C34.7586 13.9639 34.7256 14.0473 34.8081 14.3057C35.0886 15.181 36.0044 15.7563 37.0852 15.7146C37.7782 15.6812 38.4548 15.5479 38.991 15.0643C39.1725 14.8976 39.2468 14.9726 39.354 15.131C39.6098 15.5062 39.8738 15.873 40.1461 16.2231C40.2781 16.3899 40.2616 16.4732 40.0966 16.6066C38.463 17.9071 35.5424 17.8821 33.9583 16.5483C32.663 15.4562 32.168 13.5221 32.7125 11.7213C33.224 10.0373 34.6596 8.85355 36.4004 8.68682C39.0488 8.42838 40.8721 10.0123 41.0206 12.6967C41.0454 13.0302 41.0289 13.3637 41.0454 13.6888ZM38.7518 12.0465C38.5125 11.1378 37.7452 10.5125 36.8377 10.5209C35.8147 10.5292 35.0556 11.1211 34.7999 12.0798C34.7174 12.3883 34.8329 12.3966 35.0721 12.3966C35.6414 12.3883 36.2024 12.3966 36.7717 12.3966C37.3492 12.3966 37.935 12.3799 38.5125 12.4049C38.8013 12.3966 38.8095 12.2799 38.7518 12.0465Z" fill="#9DA8B3"/>
</svg>
