<svg width="80" height="29" viewBox="0 0 80 29" fill="none" xmlns="http://www.w3.org/2000/svg">
<path d="M0.277344 13.5071C0.277344 7.15906 5.6962 4.33772 11.2329 6.57128C16.0203 8.50625 30.6901 17.8566 31.259 17.6215C31.259 17.6215 26.547 16.6811 16.2983 21.3833C6.0496 26.0856 0.277344 18.3269 0.277344 13.5071Z" fill="#4CB3EA"/>
<path d="M31.8481 11.1563C31.8481 11.1563 45.3953 1.16406 65.3037 1.16406C83.3273 1.16406 79.9216 15.5635 77.4372 18.7974C72.0183 25.8508 62.123 29.3775 31.8481 11.1563Z" fill="#4CB3EA"/>
<path d="M69.4269 24.8252C69.2314 24.8852 69.0394 24.9534 68.8379 25.0063L68.2489 25.165L67.6599 25.2931C67.561 25.3166 67.4608 25.3343 67.3595 25.3495L67.0591 25.3977C66.2587 25.5275 65.4493 25.5951 64.6383 25.5999C63.8251 25.6107 63.0121 25.5679 62.2046 25.4718C61.3894 25.372 60.5799 25.2312 59.779 25.0498C58.9709 24.8664 58.1671 24.6497 57.3676 24.3997C56.5666 24.1517 55.7679 23.886 54.9751 23.5839C54.1823 23.2817 53.3883 22.9796 52.6002 22.6434C52.2068 22.4788 51.8133 22.306 51.4222 22.1379C51.0311 21.9698 50.6353 21.7853 50.2442 21.6101C47.1072 20.1747 44.0102 18.5536 40.9014 16.8938C39.3511 16.0579 37.7938 15.2186 36.2223 14.3898L35.0443 13.7715C34.6615 13.5693 34.2774 13.3671 33.8946 13.1602L31.5951 11.9223L30.3441 11.2487L30.3629 11.2346C31.29 10.5528 32.2418 9.90388 33.2102 9.28553C35.1468 8.05355 37.16 6.9497 39.2698 6.14562C39.5325 6.03864 39.7976 5.95282 40.0638 5.8576C40.3301 5.76238 40.5975 5.68832 40.8661 5.60368L41.2701 5.49318C41.4056 5.45556 41.5411 5.41677 41.6765 5.38856L42.0853 5.29451C42.2184 5.2616 42.3692 5.24043 42.5106 5.21222L43.3729 5.05117C43.5178 5.02178 43.6615 5.00415 43.8064 4.98181L44.2399 4.91833C44.5297 4.87484 44.8206 4.82781 45.1116 4.80078L45.9857 4.70556L46.8633 4.64913C47.0106 4.6362 47.1566 4.63737 47.3027 4.63502L47.7433 4.62327C48.3323 4.61269 48.9213 4.6315 49.5103 4.67852C49.6587 4.67852 49.8036 4.7032 49.9509 4.71849L50.3938 4.76786C50.6848 4.81606 50.9828 4.85603 51.2726 4.91951C51.4187 4.94772 51.5659 4.97829 51.7097 5.01708C51.8534 5.05587 52.0018 5.08996 52.1443 5.13463C52.4361 5.21659 52.7205 5.32235 52.9949 5.45086C52.5324 5.03478 52.0152 4.68358 51.4576 4.40696C51.1831 4.25297 50.8945 4.13541 50.607 4.00375L50.17 3.83094C50.0227 3.77451 49.8767 3.71338 49.7271 3.66636C49.1289 3.4676 48.5211 3.29928 47.9058 3.16205L47.4429 3.06212C47.2886 3.03038 47.1331 2.99512 46.9776 2.97396L46.0411 2.82466C45.4167 2.75295 44.7841 2.66949 44.1562 2.6448C43.8417 2.62952 43.5237 2.60013 43.2138 2.59895L42.2714 2.58837C42.1124 2.58837 41.9593 2.58015 41.7932 2.58837L41.3007 2.60836C41.1346 2.60836 40.9721 2.62717 40.8083 2.64127L40.3183 2.68242C39.9943 2.72356 39.668 2.76118 39.3452 2.81291C39.0225 2.86463 38.6997 2.914 38.3828 2.98336C35.8265 3.49826 33.4045 4.41284 31.1133 5.52845C30.5392 5.8098 29.9742 6.10447 29.4181 6.41247C28.8633 6.72399 28.3132 7.04257 27.7689 7.37525C27.2247 7.70793 26.6958 8.05825 26.1704 8.42385C26.0054 8.53905 25.8409 8.65661 25.6768 8.77652C24.5412 8.18404 23.3969 7.59821 22.244 7.01906C21.4461 6.62172 20.6408 6.23339 19.8279 5.85408C19.0033 5.48378 18.1882 5.10877 17.3447 4.77021C16.9218 4.60093 16.5012 4.43047 16.0701 4.2706C15.6389 4.11072 15.2054 3.96143 14.7672 3.81566C13.8767 3.51637 12.9692 3.26986 12.0495 3.07741C11.0853 2.86678 10.0997 2.76855 9.11275 2.78469C8.98553 2.78469 8.85477 2.79057 8.73226 2.79997L8.37885 2.83994C8.14325 2.86698 7.90765 2.88814 7.67204 2.92223L6.97231 3.05154C6.7367 3.09034 6.50817 3.16087 6.27728 3.21965C5.3477 3.45839 4.46213 3.8433 3.65385 4.35994C3.25129 4.61907 2.88284 4.92751 2.55712 5.27805C2.39532 5.4505 2.24871 5.63654 2.1189 5.83409L2.02348 5.98339L1.9422 6.13856C1.88811 6.23922 1.84354 6.34469 1.80908 6.45361C2.14502 6.17366 2.52206 5.94687 2.92702 5.78119C3.3122 5.61491 3.71158 5.4835 4.12034 5.38856C4.92393 5.20438 5.74497 5.10664 6.56943 5.09702C6.97702 5.07821 7.39403 5.09702 7.8028 5.10877L8.42244 5.15109L8.73108 5.17108C8.82885 5.18048 8.91838 5.19576 9.01144 5.20634C9.78678 5.32457 10.5468 5.52719 11.2779 5.81058C12.8094 6.3725 14.3149 7.1613 15.8227 7.96421C16.5731 8.37683 17.3306 8.7871 18.081 9.22205C18.8313 9.65701 19.5865 10.0861 20.3427 10.5152C23.3667 12.2679 26.3989 14.0865 29.5524 15.7405C29.9459 15.9486 30.3429 16.1508 30.741 16.353C31.1392 16.5552 31.535 16.7586 31.9379 16.9537C32.3408 17.1488 32.7413 17.344 33.1454 17.5415L34.334 18.1116C35.9113 18.8687 37.4852 19.6469 39.0672 20.4263C42.2267 21.9922 45.3955 23.6062 48.6939 25.0486C50.3432 25.7727 52.0312 26.4416 53.7712 27.0141C54.6405 27.2998 55.5276 27.5525 56.4229 27.7841C57.3182 28.0157 58.237 28.1862 59.1618 28.3331C59.3974 28.366 59.633 28.4013 59.8591 28.4307C60.0853 28.4601 60.3303 28.4789 60.5659 28.5024C60.8015 28.5259 61.0371 28.5424 61.2728 28.5565C61.5084 28.5706 61.744 28.5882 61.9796 28.5906C62.2152 28.5929 62.4508 28.6047 62.6923 28.6035L63.4061 28.5906C63.6417 28.5812 63.8773 28.5588 64.12 28.5424L64.4734 28.5165C64.5912 28.5047 64.709 28.4883 64.8268 28.4742C65.0624 28.4436 65.298 28.4178 65.5336 28.3837L66.2404 28.2544L66.4159 28.2214L66.5915 28.1803L66.9449 28.0968L67.2924 28.0134C67.4102 27.9828 67.528 27.9475 67.6375 27.9146L67.9803 27.81C68.0981 27.7771 68.2077 27.7418 68.3196 27.6983L68.9923 27.455L69.6519 27.1775C69.8687 27.0811 70.0807 26.9706 70.294 26.8684C72.8058 25.6035 74.8936 23.6353 76.3018 21.2045C76.7584 20.4271 77.121 19.5984 77.3821 18.7359C75.3688 21.663 72.5251 23.7978 69.4269 24.8252Z" fill="white"/>
<path d="M48.3989 4.8667C49.4532 5.30166 50.4793 5.7037 51.5148 6.07282C52.5502 6.44195 53.5857 6.77111 54.6341 7.05912L55.0264 7.16609L55.4222 7.26366C55.6849 7.33537 55.9512 7.38945 56.215 7.45411C56.7451 7.57166 57.2752 7.67864 57.8183 7.77973C58.8962 7.9784 59.9882 8.11477 61.1167 8.27582C60.5687 8.44087 60.0069 8.55615 59.4381 8.62026C58.8681 8.6865 58.2942 8.71282 57.7205 8.69902C57.4343 8.68844 57.1468 8.68021 56.8606 8.64965C56.5743 8.61908 56.2892 8.58617 56.0042 8.54973C55.8616 8.53092 55.7214 8.50153 55.5789 8.47684C55.4364 8.45215 55.2962 8.42629 55.156 8.39455C54.8745 8.3346 54.5964 8.26524 54.3184 8.19236C53.2117 7.88914 52.1436 7.45957 51.1354 6.91217C50.6327 6.63961 50.1487 6.33408 49.6865 5.99759C49.2198 5.6654 48.7884 5.28647 48.3989 4.8667Z" fill="white"/>
<path d="M65.1272 11.4499C64.4131 10.6527 63.6242 9.9256 62.7712 9.2786C61.9624 8.66204 61.1166 8.09553 60.2384 7.58226C58.5068 6.57128 56.6714 5.77778 54.7748 5.0842C52.8782 4.39062 50.9027 3.84046 48.8789 3.295C48.37 3.17157 47.8611 3.03285 47.3474 2.89414C46.8338 2.75542 46.3167 2.62728 45.7972 2.48857C45.5357 2.42038 45.2741 2.3569 45.0126 2.28402L44.2234 2.06066C43.6944 1.92077 43.1631 1.76795 42.626 1.57516C43.1655 1.40705 43.7097 1.27774 44.2563 1.16136C44.8029 1.04498 45.3543 0.980325 45.9056 0.905089C46.4569 0.829853 47.0129 0.811045 47.5713 0.779304C48.1296 0.747564 48.6857 0.767549 49.244 0.779304C49.8024 0.81222 50.362 0.840433 50.9204 0.906265C51.1984 0.941532 51.4776 0.975623 51.7556 1.01677C51.8946 1.03793 52.0359 1.05086 52.1738 1.07907L52.5896 1.15901C52.8664 1.21073 53.1433 1.26716 53.4142 1.32594L54.2388 1.53636C54.3755 1.57281 54.5121 1.60925 54.6488 1.65392L55.0564 1.78088C55.3261 1.8714 55.5994 1.95369 55.8668 2.05243C56.9502 2.44203 57.9965 2.92751 58.9933 3.50307C59.9953 4.08375 60.929 4.77458 61.7769 5.56265C62.6266 6.35247 63.3649 7.25373 63.9715 8.24175C64.2675 8.73532 64.5205 9.25329 64.7278 9.78996C64.9414 10.3209 65.0759 10.8801 65.1272 11.4499Z" fill="white"/>
</svg>
