<svg width="80" height="16" viewBox="0 0 80 16" fill="none" xmlns="http://www.w3.org/2000/svg">
<path d="M49.98 15.62C51.34 15.62 52.7 15.62 54.06 15.62C54.06 5.39 54.06 0.01 54.06 0.01C54.06 0.01 52.75 0.01 50.25 0.01C50.25 3.42 50.26 6.83 50.26 10.24C46.33 6.85 42.4 3.46 38.47 0.07C37.2 0.07 35.92 0.07 34.65 0.07C34.65 10.43 34.65 15.61 34.65 15.61H38.47C38.47 15.61 38.47 13.01 38.47 12.23C38.47 10.04 38.46 7.86 38.46 5.47C42.3 8.85 46.14 12.23 49.98 15.62ZM16.07 0.02C20.65 0.06 25.22 0.1 29.8 0.13C30.92 1.19 32.04 2.26 33.16 3.32C33.2 6.32 33.23 9.32 33.27 12.32C32.25 13.4 31.19 14.53 30.08 15.72C25.41 15.7 20.74 15.68 16.07 15.67C16.07 10.45 16.07 5.24 16.07 0.02ZM20.05 12.52C22.49 12.56 25.23 12.48 27.66 12.52C28.35 11.81 29.03 11.22 29.72 10.51C29.72 8.73 29.72 6.96 29.72 5.18C29.03 4.46 28.34 3.87 27.65 3.15C25.22 3.19 22.48 3.11 20.04 3.15C20.05 6.27 20.05 9.39 20.05 12.52ZM0 15.66C4.9 15.65 9.8 15.65 14.7 15.64C14.7 13.73 14.7 12.51 14.7 12.51C14.7 12.51 12.45 12.51 9.98 12.52C7.19 12.52 3.91 12.55 3.91 12.55L3.95 0.01C2.64 0 1.32 0 0 0C0 5.22 0 10.44 0 15.66ZM59.47 0.02H55.47V15.66H59.47C59.46 15.58 59.46 12.05 59.47 0.02ZM64.29 0.07C63.17 1.13 62.05 2.2 60.93 3.26C60.89 6.26 60.86 9.26 60.82 12.26C61.88 13.39 62.95 14.52 64.01 15.66C68.28 15.66 72.54 15.66 76.81 15.66C77.87 14.53 78.94 13.4 80 12.26C79.96 9.26 79.93 6.26 79.89 3.26C78.77 2.2 77.65 1.13 76.53 0.07H64.29ZM74.4 12.45C74.28 12.45 74.16 12.45 74.04 12.45C73.35 12.45 72.66 12.45 71.97 12.45C71.39 12.45 70.81 12.45 70.23 12.45C68.96 12.45 67.69 12.45 66.42 12.45C65.73 11.74 65.05 11.15 64.36 10.44C64.36 8.66 64.36 6.89 64.36 5.11C65.05 4.39 65.74 3.8 66.43 3.08C68.27 3.08 70.12 3.08 71.96 3.08C72.77 3.08 73.58 3.08 74.38 3.08C75.07 3.8 75.76 4.39 76.45 5.11C76.45 6.89 76.45 8.66 76.45 10.44C75.77 11.15 75.08 11.74 74.4 12.45Z" fill="#9DA8B3"/>
</svg>
