<svg width="80" height="27" viewBox="0 0 80 27" fill="none" xmlns="http://www.w3.org/2000/svg">
<path d="M22.3709 5.16802C22.1009 9.32796 21.9409 13.2179 21.0809 17.0378C20.6509 18.9378 19.5709 20.4378 18.3609 21.8778C16.9409 23.5677 15.391 25.1177 13.421 26.1877C11.941 26.9877 10.431 27.0977 8.99106 26.1977C4.49113 23.3577 1.24118 19.6678 0.701187 14.0779C0.401191 10.9679 0.0911961 7.86798 0.00119743 4.74803C-0.0188023 4.02804 0.211194 3.52805 0.731187 3.06805C2.31116 1.68807 4.20113 0.988083 6.2111 0.55809C10.561 -0.371897 14.841 -0.181899 19.0109 1.44808C19.6609 1.69807 20.2609 2.04807 20.8309 2.44806C21.8809 3.16805 22.7509 3.98804 22.3709 5.16802ZM1.39118 7.78798C1.38118 7.78798 1.36118 7.78798 1.35118 7.78798C1.46118 9.20796 1.55117 10.6379 1.70117 12.0479C1.91117 14.0179 1.98117 16.0579 2.75116 17.8878C4.12114 21.1478 6.6011 23.5177 9.49106 25.4777C10.681 26.2877 11.831 26.1877 13.001 25.4177C14.701 24.2977 16.141 22.8978 17.4509 21.3578C18.4509 20.1678 19.4009 18.9578 19.7909 17.3878C20.6709 13.8979 20.8309 10.3279 21.0409 6.758C21.2009 4.07804 20.8409 3.57804 18.3209 2.60806C18.1009 2.51806 17.8609 2.44806 17.6309 2.38806C13.861 1.30808 10.051 1.32808 6.2211 2.00807C4.71113 2.27806 3.27115 2.75806 2.03117 3.71804C1.54117 4.09804 1.21118 4.53803 1.26118 5.20802C1.32118 6.06801 1.34118 6.92799 1.39118 7.78798ZM29.1008 7.08799C30.8807 7.83798 32.6707 8.02798 34.4607 8.03798C35.7707 8.04798 36.7606 8.50797 37.3106 9.71795C37.8406 10.8779 37.5106 11.9679 36.3907 13.0479C37.6006 13.8279 38.2506 14.9079 37.9706 16.3579C37.6706 17.8978 36.4807 18.7978 34.7607 18.8378C32.3807 18.8978 31.2407 18.4878 29.4908 19.3278C29.2708 19.4278 29.2008 19.5278 29.1008 19.5978C29.1008 19.3878 29.1008 19.1678 29.1008 18.9578C29.0908 14.9979 29.0908 11.0379 29.1008 7.08799ZM34.4407 16.9278C35.1407 16.7078 35.6407 16.1779 35.6907 15.5779C35.7307 15.0879 35.4607 14.7179 35.4407 14.6879C35.1207 14.2579 34.6507 14.1779 34.5507 14.1679C33.4907 14.1679 32.4607 14.1779 31.3907 14.1779C31.3907 15.0679 31.3907 16.0279 31.3907 16.9278C32.4307 16.9478 33.4107 16.8978 34.4407 16.9278ZM31.4007 9.95795C31.4007 10.6979 31.4007 11.5179 31.4007 12.2579C32.3107 12.2479 33.3807 12.2379 34.2907 12.2279C34.3607 12.2279 34.8707 12.2079 35.1907 11.7979C35.4107 11.5079 35.4207 11.1979 35.4207 11.1079C35.4207 11.0279 35.4207 10.7779 35.2807 10.5379C34.9807 10.0079 34.3007 9.96795 34.2407 9.96795C33.2707 9.98795 32.3807 9.93795 31.4007 9.95795ZM46.9305 18.7878C46.1705 18.7878 45.5305 18.7878 44.8905 18.7878C44.7205 18.7878 44.4805 18.7678 44.3105 18.5878C44.0605 18.3278 44.1305 17.9078 44.1605 17.7678C43.9805 17.9578 43.7005 18.2178 43.2805 18.4378C42.7706 18.6978 42.3306 18.7578 41.9706 18.7978C41.2606 18.8778 40.5306 18.7778 39.8306 18.5178C39.1006 18.2478 38.7306 17.6078 38.6606 16.8278C38.5706 15.8979 38.8606 15.1379 39.6606 14.6079C40.5606 14.0179 41.6206 13.9179 42.6406 13.7379C42.8206 13.7079 43.0206 13.7179 43.1905 13.6479C43.5205 13.5179 43.9805 13.5279 43.9905 12.9979C43.9905 12.7879 43.9305 12.6379 43.8905 12.5479C43.8805 12.5179 43.7005 12.1679 43.3405 11.9779C42.7306 11.6579 41.9406 11.9579 41.4706 12.3079C41.1206 12.5779 41.2006 12.6879 40.8806 12.8679C40.4706 13.0879 40.0206 13.0879 39.5206 13.0679C39.2806 13.0579 39.0406 13.0679 38.7906 13.0679C38.9506 12.6079 39.4806 11.2979 40.8206 10.5979C42.5606 9.68795 44.9605 10.1779 45.8305 11.5179C46.0705 11.8879 46.2405 12.2379 46.2505 12.9779C46.2605 14.1579 46.2605 15.3479 46.2505 16.5279C46.2505 17.3178 46.2205 18.1178 46.9305 18.7878ZM43.9805 14.6879C43.4205 14.9879 42.8906 15.1479 42.3306 15.2279C41.9906 15.2779 41.6506 15.3579 41.3206 15.4679C40.8406 15.6179 40.5306 15.9079 40.6006 16.4678C40.6606 16.9778 41.0606 17.0678 41.4606 17.1478C43.2006 17.4878 44.0405 16.6978 43.9805 14.6879ZM79.53 12.3179C79.16 11.8079 78.73 11.3479 78.4 11.0879C77.3 10.2079 75.4701 9.97795 74.0701 10.5879C73.7401 10.7279 73.2301 10.9579 72.8501 11.5079C72.3701 12.1879 72.4101 12.9079 72.4101 13.0679C72.4301 13.9479 72.8901 14.4979 73.9401 14.8979C74.3201 15.0379 74.7001 15.1379 75.1101 15.1679C75.7501 15.2279 76.3901 15.2879 77 15.5279C77.38 15.6779 77.79 15.8779 77.75 16.3579C77.71 16.8578 77.31 17.0478 76.86 17.1578C76.0901 17.3378 75.4201 17.1678 74.9301 16.5178C74.7401 16.2579 74.5301 16.1079 74.2001 16.1079C73.5701 16.1179 72.9401 16.1079 72.2701 16.1079C72.8301 17.0278 73.2901 17.9078 74.2501 18.3378C75.5601 18.9178 76.93 18.9278 78.26 18.5078C79.57 18.0878 80.23 16.8278 79.88 15.5779C79.57 14.4779 78.66 14.0979 77.66 13.8679C76.85 13.6879 76.0301 13.5479 75.2201 13.3779C74.9101 13.3179 74.6701 13.1079 74.6001 12.8079C74.5401 12.5179 74.7401 12.3079 74.9701 12.1479C75.6201 11.6979 77 11.8279 77.39 12.4879C77.7 12.9979 78.05 13.0979 78.57 13.0579C79.02 13.0279 79.48 13.0479 80 13.0479C79.9 12.8679 79.74 12.6079 79.53 12.3179ZM63.5902 16.1179C63.3403 16.4579 63.1303 16.6678 63.0003 16.9278C62.0503 18.7978 60.1503 19.0878 58.4603 18.5678C56.5803 17.9878 55.5504 16.3779 55.6904 14.3679C55.7604 13.3979 55.9904 12.4579 56.6103 11.6779C57.5403 10.5179 59.2303 10.0479 60.7803 10.5279C62.2403 10.9779 63.0103 12.0279 63.2203 13.5079C63.4602 15.1679 63.4502 15.1679 61.8203 15.1679C60.7503 15.1679 59.6703 15.1879 58.6003 15.1579C57.9303 15.1379 57.8303 15.3879 57.9903 15.9779C58.1903 16.6978 58.6703 17.0078 59.3503 17.1678C59.9603 17.3078 60.5603 17.1978 60.8603 16.7078C61.2103 16.1279 61.6503 16.0779 62.2003 16.1079C62.6403 16.1379 63.0603 16.1179 63.5902 16.1179ZM59.6703 13.7979C60.0603 13.8179 60.4603 13.8179 60.8803 13.7979C61.1003 13.7879 61.3203 13.7779 61.5303 13.7679C61.4903 13.6279 61.4303 13.4279 61.3303 13.1979C61.1703 12.8279 61.0103 12.4579 60.6403 12.2079C60.4403 12.0679 60.2003 11.9779 59.9203 11.9379C59.4603 11.8779 59.0603 11.9379 58.7203 12.1379C58.3703 12.3479 58.2003 12.6379 58.1003 12.8179C57.8703 13.2179 57.8303 13.5979 57.8203 13.8079C58.1103 13.8079 58.4103 13.8079 58.7003 13.7979C59.0303 13.7979 59.3503 13.7979 59.6703 13.7979ZM47.4305 16.6378C48.4905 18.8278 50.8804 19.1078 53.0004 18.5478C53.7904 18.3378 54.3704 17.8378 54.6704 17.0578C55.2404 15.5379 54.3304 14.2179 52.4804 13.8679C51.6704 13.7179 50.8404 13.6479 50.0504 13.3779C49.7505 13.2779 49.5005 13.1179 49.4805 12.7779C49.4605 12.3979 49.7105 12.2079 50.0205 12.0679C50.9004 11.6679 51.8404 11.9179 52.4104 12.7379C52.5404 12.9279 52.6704 13.0679 52.9104 13.0679C53.5604 13.0679 54.2104 13.0679 54.9104 13.0679C54.7804 12.8479 54.7104 12.7379 54.6504 12.6179C53.3904 10.1779 50.8404 9.99795 48.7405 10.7679C47.7105 11.1479 47.2005 12.0379 47.2405 13.0979C47.2705 13.9479 47.8405 14.6079 48.8805 14.9479C49.2305 15.0679 49.6105 15.1079 49.9804 15.1679C50.6904 15.2779 51.4204 15.3079 52.0804 15.6479C52.3804 15.8079 52.6004 16.0279 52.5904 16.3979C52.5804 16.7078 52.3904 16.8878 52.1504 17.0278C51.4804 17.4178 50.3704 17.3178 49.9304 16.7078C49.5505 16.1879 49.1305 16.0779 48.5605 16.1179C48.1105 16.1479 47.6505 16.1279 47.1005 16.1279C47.2305 16.3379 47.3505 16.4778 47.4305 16.6378ZM64.5302 12.5379C64.5102 13.4479 64.5802 14.3679 64.5102 15.2779C64.3502 17.4178 66.0502 18.6878 67.8002 18.7778C69.8902 18.8878 71.4301 17.4878 71.4601 15.4179C71.4701 14.4979 71.4701 13.5879 71.4601 12.6679C71.4601 11.8279 71.3201 10.9479 72.4001 10.3479C71.4301 10.3479 70.7101 10.3779 69.9902 10.3379C69.4102 10.3079 69.1702 10.4979 69.1902 11.1179C69.2302 12.6479 69.2102 14.1879 69.2002 15.7179C69.2002 16.6278 68.7102 17.2178 67.9902 17.2178C67.2702 17.2178 66.7802 16.6178 66.7702 15.7179C66.7702 14.1579 66.7602 12.5979 66.7802 11.0379C66.7902 10.5679 66.6402 10.3279 66.1502 10.3379C65.4102 10.3479 64.6702 10.3379 63.7402 10.3379C64.5602 10.9879 64.5502 11.7579 64.5302 12.5379ZM6.2011 4.32803C8.64107 5.42802 11.231 5.42802 13.791 5.60801C16.281 5.78801 17.7609 8.16798 16.8409 10.4879C16.5909 11.1179 16.181 11.6379 15.561 12.0379C16.6409 12.6679 17.4009 13.5379 17.6609 14.7679C18.1709 17.1778 16.431 19.4278 13.931 19.5378C11.781 19.6278 9.63105 19.5878 7.51109 20.0178C7.09109 20.0978 6.6711 20.1878 6.1911 20.2878C6.2011 14.9779 6.2011 9.70795 6.2011 4.32803ZM12.621 17.1078C12.691 17.1078 14.001 17.0878 14.521 16.1579C14.721 15.7879 14.741 15.4079 14.741 15.3079C14.751 15.1079 14.731 14.5579 14.361 14.0879C13.761 13.3179 12.731 13.3879 12.651 13.3979C11.481 13.4279 10.311 13.3679 9.14106 13.3979C9.15106 14.5779 9.13106 15.9379 9.14106 17.1178C10.301 17.1478 11.471 17.0778 12.621 17.1078ZM9.15106 8.05798C9.14106 9.01796 9.16106 10.1279 9.15106 11.0879C10.341 11.1079 11.531 11.0779 12.731 11.0879C13.381 11.0879 14.001 10.7279 14.271 10.1379C14.371 9.92795 14.421 9.69795 14.411 9.46796C14.401 9.21796 14.311 8.78797 13.961 8.45797C13.591 8.10798 13.151 8.06798 13.031 8.06798C11.741 8.08798 10.421 8.02798 9.15106 8.05798Z" fill="#9DA8B3"/>
</svg>
