<svg width="64" height="64" viewBox="0 0 64 64" fill="none" xmlns="http://www.w3.org/2000/svg">
<path d="M21.5385 16.4688C13.4637 16.5198 6.92578 23.1036 6.92578 31.2072C6.92578 39.3427 13.5142 45.9447 21.6329 45.9447C25.4413 45.9447 28.9146 44.49 31.5278 42.1047L31.5273 42.1041H31.5293C32.0654 41.6156 32.5647 41.087 33.023 40.5257H30.0106C29.6079 40.0391 29.2421 39.5307 28.9136 39.0068H34.1095C34.4268 38.5005 34.7118 37.9745 34.967 37.4298H28.0568C27.8209 36.9235 27.6162 36.4075 27.4419 35.8816H35.582C36.0736 34.4122 36.3389 32.8398 36.3389 31.2072C36.3389 30.1229 36.2211 29.0678 36.0003 28.0502H27.0099C27.1221 27.5262 27.262 27.0093 27.4288 26.5025H35.5729C35.391 25.9618 35.1793 25.4358 34.9388 24.9244H28.0559C28.3039 24.3924 28.5854 23.8765 28.8992 23.3762H34.092C33.7459 22.8239 33.3638 22.2965 32.951 21.7992H30.0558C30.504 21.2702 30.9961 20.7726 31.5301 20.3113C28.9178 17.9249 25.4441 16.4692 21.6337 16.4692C21.6007 16.4687 21.5693 16.4688 21.5385 16.4688Z" fill="#931B1D"/>
<path d="M56.0664 31.2118C56.0679 39.3504 49.4872 45.9499 41.3627 45.9523C33.2418 45.9549 26.656 39.3579 26.6536 31.2179V31.2118C26.651 23.0708 33.2338 16.4708 41.3563 16.4688C49.4781 16.4658 56.0645 23.0632 56.0665 31.2037C56.0664 31.2037 56.0664 31.2074 56.0664 31.2118Z" fill="#F16622"/>
<path d="M56.0664 31.374C56.0679 39.513 49.4872 46.1135 41.3627 46.115C33.2418 46.118 26.656 39.5201 26.6536 31.3815V31.374C26.651 23.2344 33.2338 16.6339 41.3563 16.6318C49.4781 16.6289 56.0645 23.2263 56.0665 31.3663C56.0664 31.3664 56.0664 31.371 56.0664 31.374Z" fill="#F7981D"/>
<path d="M21.5385 16.6359C13.4637 16.6879 6.92578 23.2702 6.92578 31.3744C6.92578 39.5104 13.5142 46.1128 21.6329 46.1128C25.4413 46.1128 28.9146 44.6571 31.5278 42.2722L31.5273 42.2707H31.5293C32.0654 41.7826 32.5647 41.2556 33.023 40.6923H30.0106C29.6079 40.2067 29.2421 39.6993 28.9136 39.1754H34.1095C34.4268 38.6686 34.7118 38.1411 34.967 37.5969H28.0568C27.8209 37.0901 27.6162 36.5743 27.4419 36.0492H35.582C36.0736 34.5788 36.3389 33.007 36.3389 31.3744C36.3389 30.2905 36.2211 29.2349 36.0003 28.2178H27.0099C27.1221 27.6944 27.262 27.1764 27.4288 26.6702H35.5729C35.391 26.1291 35.1793 25.603 34.9388 25.0912H28.0559C28.3039 24.5611 28.5854 24.0433 28.8992 23.5435H34.092C33.7459 22.9917 33.3638 22.4647 32.951 21.9654H30.0558C30.504 21.4374 30.9961 20.9397 31.5301 20.4774C28.9178 18.0915 25.4441 16.6357 21.6337 16.6357C21.6007 16.6359 21.5693 16.6359 21.5385 16.6359Z" fill="#CB2026"/>
<path d="M26.9209 35.1271L27.1175 33.7936C27.0104 33.7936 26.8527 33.8391 26.7137 33.8391C26.169 33.8391 26.1083 33.549 26.1437 33.3343L26.5838 30.6123H27.412L27.6121 29.1364H26.8315L26.9907 28.2197H25.4244C25.3905 28.254 24.4998 33.3802 24.4998 34.0031C24.4998 34.9273 25.0167 35.3391 25.7472 35.333C26.318 35.3277 26.7642 35.1696 26.9209 35.1271Z" fill="white"/>
<path d="M27.4175 32.5841C27.4175 34.8018 28.8772 35.3293 30.1217 35.3293C31.2708 35.3293 31.7756 35.0711 31.7756 35.0711L32.052 33.5573C32.052 33.5573 31.1784 33.9454 30.3891 33.9454C28.708 33.9454 29.0027 32.6883 29.0027 32.6883H32.1854C32.1854 32.6883 32.39 31.6707 32.39 31.2564C32.39 30.2231 31.8756 28.9629 30.1571 28.9629C28.5822 28.9633 27.4175 30.6625 27.4175 32.5841ZM30.1637 30.3674C31.047 30.3674 30.8838 31.3628 30.8838 31.4431H29.1456C29.145 31.3406 29.3094 30.3674 30.1637 30.3674Z" fill="white"/>
<path d="M40.0784 35.127L40.3589 33.4146C40.3589 33.4146 39.5904 33.8027 39.0633 33.8027C37.9528 33.8027 37.5076 32.9507 37.5076 32.0392C37.5076 30.1858 38.4631 29.1661 39.5277 29.1661C40.3251 29.1661 40.9658 29.6158 40.9658 29.6158L41.221 27.9544C41.221 27.9544 40.2715 27.5684 39.4581 27.5684C37.6502 27.5684 35.8907 29.1383 35.8907 32.0921C35.8907 34.0476 36.8411 35.3416 38.7097 35.3416C39.2375 35.3418 40.0784 35.127 40.0784 35.127Z" fill="white"/>
<path d="M18.3089 28.9873C17.2352 28.9873 16.4121 29.3325 16.4121 29.3325L16.1852 30.6846C16.1852 30.6846 16.8652 30.4087 17.8915 30.4087C18.4746 30.4087 18.9005 30.4739 18.9005 30.9494C18.9005 31.2374 18.8485 31.344 18.8485 31.344C18.8485 31.344 18.3893 31.3051 18.1761 31.3051C16.8224 31.3051 15.3995 31.8841 15.3995 33.6314C15.3995 35.0068 16.3322 35.323 16.9109 35.323C18.0159 35.323 18.4908 34.605 18.5172 34.6019L18.4656 35.2022H19.844L20.4594 30.8795C20.4594 29.0463 18.8631 28.9873 18.3089 28.9873ZM18.6449 32.505C18.6748 32.7693 18.4792 34.0072 17.5364 34.0072C17.0502 34.0072 16.9234 33.6344 16.9234 33.414C16.9234 32.985 17.1564 32.4691 18.3043 32.4691C18.5706 32.4691 18.5994 32.4984 18.6449 32.505Z" fill="white"/>
<path d="M21.9251 35.2898C22.2772 35.2898 24.2934 35.3803 24.2934 33.2955C24.2934 31.3461 22.4274 31.7306 22.4274 30.9474C22.4274 30.5589 22.7316 30.4346 23.2873 30.4346C23.5081 30.4346 24.3575 30.5059 24.3575 30.5059L24.5556 29.1194C24.5556 29.1194 24.0059 28.9971 23.1115 28.9971C21.9519 28.9971 20.7771 29.4589 20.7771 31.0449C20.7771 32.8432 22.7376 32.6613 22.7376 33.4182C22.7376 33.9235 22.1893 33.965 21.7669 33.965C21.0373 33.965 20.38 33.7138 20.3768 33.7254L20.1682 35.0962C20.2047 35.109 20.6109 35.2898 21.9251 35.2898Z" fill="white"/>
<path d="M53.0484 27.7436L52.7113 29.8436C52.7113 29.8436 52.1216 29.0286 51.1996 29.0286C49.7641 29.0286 48.5686 30.7617 48.5686 32.7541C48.5686 34.04 49.2057 35.2987 50.5105 35.2987C51.4487 35.2987 51.9677 34.6434 51.9677 34.6434L51.8995 35.2027H53.4224L54.6194 27.7402L53.0484 27.7436ZM52.3217 31.84C52.3217 32.6682 51.9115 33.7741 51.063 33.7741C50.4991 33.7741 50.2359 33.3002 50.2359 32.5564C50.2359 31.3406 50.7807 30.5362 51.4677 30.5362C52.0322 30.5363 52.3217 30.9254 52.3217 31.84Z" fill="white"/>
<path d="M9.8297 35.2089L10.7842 29.5749L10.9231 35.2089H12.0023L14.0148 29.5749L13.123 35.2089H14.7258L15.9612 27.7383H13.4819L11.9383 32.3212L11.858 27.7383H9.57354L8.32092 35.2089H9.8297Z" fill="white"/>
<path d="M33.9559 35.2198C34.4117 32.6232 34.4961 30.5136 35.5845 30.8982C35.775 29.8937 35.9584 29.5052 36.1656 29.0793C36.1656 29.0793 36.0686 29.0586 35.8633 29.0586C35.1636 29.0586 34.6435 30.0186 34.6435 30.0186L34.782 29.1373H33.3237L32.348 35.2198H33.9559Z" fill="white"/>
<path d="M43.6911 28.9873C42.6174 28.9873 41.7948 29.3325 41.7948 29.3325L41.5685 30.6846C41.5685 30.6846 42.247 30.4087 43.2743 30.4087C43.8568 30.4087 44.2838 30.4739 44.2838 30.9494C44.2838 31.2374 44.2313 31.344 44.2313 31.344C44.2313 31.344 43.772 31.3051 43.5572 31.3051C42.203 31.3051 40.7817 31.8841 40.7817 33.6314C40.7817 35.0068 41.715 35.323 42.2931 35.323C43.3981 35.323 43.8736 34.605 43.8988 34.6019L43.8478 35.2022H45.2272L45.8422 30.8795C45.8427 29.0463 44.247 28.9873 43.6911 28.9873ZM44.0276 32.505C44.0575 32.7693 43.8629 34.0072 42.9186 34.0072C42.433 34.0072 42.3071 33.6344 42.3071 33.414C42.3071 32.985 42.5401 32.4691 43.686 32.4691C43.9539 32.4691 43.9817 32.4984 44.0276 32.505Z" fill="white"/>
<path d="M47.1012 35.2198C47.5575 32.6232 47.6419 30.5136 48.7301 30.8982C48.9207 29.8937 49.1041 29.5052 49.3123 29.0793C49.3123 29.0793 49.2137 29.0586 49.0097 29.0586C48.3079 29.0586 47.7895 30.0186 47.7895 30.0186L47.9289 29.1373H46.4697L45.4935 35.2194H47.1013L47.1012 35.2198Z" fill="white"/>
</svg>
