<svg width="17" height="15" viewBox="0 0 17 15" fill="none" xmlns="http://www.w3.org/2000/svg">
<path d="M16.8399 5.51038L16.1383 4.29526C16.0425 4.04032 15.1592 1.78292 13.6466 0.991851C13.2915 0.806137 12.8627 0.87307 12.5796 1.15834C11.4488 2.29804 9.89831 3.22422 8.2978 3.25531L7.60095 2.79278C7.30574 2.59683 6.90532 2.7099 6.75586 3.03072L6.51151 3.55528C6.25924 3.49463 6.10449 3.82584 6.31361 3.98008L5.94142 4.779L5.90443 4.75764C5.78998 4.69163 5.64375 4.73082 5.57774 4.84523C5.51173 4.95964 5.55095 5.10591 5.66533 5.17192L5.73868 5.21424L5.36715 6.01169L5.35232 6.00314C5.23797 5.9371 5.09164 5.97629 5.0256 6.09073C4.95959 6.20515 4.99882 6.35142 5.1132 6.41746L5.16435 6.44699L4.76808 7.29756C4.63622 7.47265 4.69623 7.37584 4.55105 7.68767C3.96004 8.9782 3.0926 9.48362 2.32394 9.98618C2.21339 10.0585 2.18236 10.2066 2.25465 10.3173C2.32713 10.4281 2.47544 10.4586 2.58574 10.3866C3.37704 9.86924 4.32522 9.31389 4.97723 7.90512L5.14509 8.19584C5.31581 8.49153 5.69706 8.59622 5.9947 8.42922C6.37047 8.21864 7.13625 7.8414 8.04308 7.6819C8.17318 7.65901 8.2601 7.53503 8.23721 7.40493C8.21431 7.27482 8.0904 7.1879 7.96023 7.21079C6.9837 7.38257 6.16304 7.78649 5.76081 8.01197C5.69014 8.05158 5.59977 8.02674 5.55934 7.95665L5.26039 7.43892C5.42688 7.21733 5.5903 6.99861 5.74945 6.78464C6.07956 6.96471 6.10892 7.01682 6.21562 7.01682C6.45979 7.01682 6.54668 6.69239 6.33539 6.57045L6.03635 6.39788C6.21906 6.15094 6.39442 5.91274 6.55931 5.6878C6.89075 5.86864 6.92002 5.92071 7.02672 5.92071C7.27088 5.92071 7.35778 5.59628 7.14649 5.47435L6.84336 5.29941C7.02704 5.04766 7.21339 4.79096 7.36125 4.58643C7.70239 4.77278 7.7309 4.82463 7.83788 4.82463C8.08204 4.82463 8.16894 4.50021 7.95765 4.37827L7.6425 4.19641C7.84021 3.9216 7.83689 3.92144 7.87742 3.88095C8.0779 3.68152 8.24014 3.75776 8.71871 3.70811C9.87098 3.58975 10.9566 3.0739 11.8913 2.38286C12.2263 2.85065 12.7084 3.18538 13.2715 3.33624C13.8719 3.49718 14.4973 3.43088 15.0469 3.15088C15.3271 3.62208 15.523 4.05719 15.6221 4.29386C11.3275 6.77706 11.5784 6.61927 11.5347 6.66405L10.7006 7.51915C10.2147 7.29316 9.6873 7.16385 9.13042 7.13449C8.99888 7.1269 8.88596 7.22878 8.87898 7.3607C8.872 7.49262 8.97331 7.60518 9.10519 7.61213C9.54151 7.63516 9.95653 7.72702 10.3434 7.88525L9.59435 8.65304L1.3807 13.3954C0.892247 12.6574 0.980704 11.6285 1.63817 11.0543C1.73762 10.9674 1.7478 10.8163 1.66093 10.7168C1.57398 10.6173 1.42289 10.6071 1.32347 10.694C0.467375 11.4419 0.356023 12.7784 1.02378 13.7207C1.46017 14.4017 1.38214 14.2801 1.39222 14.2946C1.61348 14.6156 2.05583 14.7225 2.40921 14.5183C10.8917 9.61405 10.4117 9.91487 10.5409 9.80508C10.63 9.72951 10.544 9.80815 12.2574 7.96864L12.4039 8.2225C12.5294 8.43975 12.8083 8.51446 13.0255 8.38905L15.1933 7.13745C15.3077 7.07141 15.3469 6.92514 15.2808 6.81076C15.2148 6.69635 15.0685 6.65722 14.9541 6.72323L12.8065 7.96318L12.6187 7.63787C12.4833 7.40336 12.1603 7.3703 11.9789 7.56558C10.1195 9.56369 10.252 9.43796 10.163 9.4894L2.17002 14.1041C2.08412 14.1537 1.9838 14.1554 1.8998 14.1164C1.79033 14.0656 1.76702 13.9844 1.73791 13.9479L1.64126 13.7973C10.3806 8.74791 9.86986 9.05579 9.91377 9.01079L11.8542 7.02179C12.3005 6.76414 15.4042 4.97221 15.8336 4.72425C16.4576 5.80926 16.4342 5.75282 16.439 5.78914C16.4445 5.83085 16.4248 5.87358 16.3869 5.8959C16.3824 5.89855 15.9282 6.16082 15.9248 6.16277C15.8104 6.22881 15.7712 6.37508 15.8372 6.48949C15.9033 6.6039 16.0496 6.64303 16.1639 6.57702C16.6551 6.29348 16.6615 6.2944 16.7213 6.24147C16.9267 6.06025 16.9806 5.75416 16.8399 5.51038ZM6.42672 5.05904L6.35733 5.01899L6.72882 4.22154L6.9448 4.34619C6.77493 4.58098 6.61208 4.80505 6.42672 5.05904ZM7.22614 3.95626L6.9316 3.78627L7.18947 3.2327C7.21562 3.17661 7.28536 3.15741 7.33641 3.19134L7.6851 3.42275C7.48048 3.5606 7.39011 3.72839 7.22614 3.95626ZM12.269 2.08783C12.5315 1.8709 12.7503 1.66535 12.9191 1.49526C13.0535 1.35977 13.2568 1.32779 13.4249 1.4157C13.9664 1.6989 14.4266 2.21545 14.7882 2.74475C13.9006 3.1717 12.8331 2.89163 12.269 2.08783Z" fill="white"/>
</svg>
