<svg width="49" height="49" viewBox="0 0 49 49" fill="none" xmlns="http://www.w3.org/2000/svg">
<g filter="url(#filter0_b)">
<rect width="49" height="49" rx="24.5" fill="#252525" fill-opacity="0.2"/>
</g>
<g clip-path="url(#clip0)">
<path d="M35.7828 17.9419C35.6533 17.7177 35.3666 17.6411 35.1424 17.7704L32.4329 19.3347C32.2087 19.4641 32.1319 19.7508 32.2614 19.9751C32.3915 20.2004 32.6786 20.2754 32.9017 20.1466L35.6112 18.5823C35.8354 18.4528 35.9123 18.1661 35.7828 17.9419Z" fill="white"/>
<path d="M40.8462 20.6003L39.4711 18.2187C39.2834 17.719 37.5521 13.2945 34.5874 11.744C33.8915 11.38 33.051 11.5112 32.496 12.0703C30.2797 14.3041 27.2408 16.1194 24.1038 16.1804L22.7379 15.2738C22.1593 14.8897 21.3745 15.1114 21.0816 15.7402L20.6026 16.7683C20.1082 16.6494 19.8049 17.2986 20.2148 17.6009L19.4853 19.1668L19.4128 19.1249C19.1884 18.9955 18.9018 19.0724 18.7724 19.2966C18.6431 19.5209 18.7199 19.8075 18.9441 19.9369L19.0879 20.0199L18.3597 21.5829L18.3306 21.5661C18.1065 21.4367 17.8197 21.5135 17.6903 21.7378C17.5609 21.962 17.6378 22.2487 17.8619 22.3782L17.9622 22.436L17.1855 24.1032C16.9271 24.4464 17.0447 24.2566 16.7601 24.8678C15.6018 27.3972 13.9016 28.3879 12.395 29.3729C12.1783 29.5145 12.1175 29.805 12.2592 30.0218C12.4013 30.2391 12.6919 30.2989 12.9081 30.1576C14.4591 29.1437 16.3175 28.0552 17.5954 25.294L17.9244 25.8638C18.2591 26.4434 19.0063 26.6485 19.5897 26.3212C20.3262 25.9085 21.8271 25.1691 23.6045 24.8565C23.8595 24.8116 24.0299 24.5686 23.985 24.3136C23.9401 24.0586 23.6973 23.8882 23.4421 23.9331C21.5281 24.2698 19.9196 25.0615 19.1313 25.5034C18.9928 25.581 18.8156 25.5324 18.7364 25.395L18.1504 24.3802C18.4768 23.9459 18.7971 23.5172 19.109 23.0979C19.756 23.4508 19.8136 23.5529 20.0227 23.5529C20.5013 23.5529 20.6716 22.917 20.2574 22.678L19.6713 22.3398C20.0294 21.8558 20.3731 21.3889 20.6963 20.948C21.3459 21.3025 21.4033 21.4045 21.6124 21.4045C22.091 21.4045 22.2613 20.7687 21.8472 20.5297L21.2531 20.1868C21.6131 19.6934 21.9783 19.1902 22.2681 18.7894C22.9368 19.1546 22.9926 19.2562 23.2023 19.2562C23.6809 19.2562 23.8512 18.6204 23.4371 18.3814L22.8194 18.0249C23.2069 17.4863 23.2004 17.486 23.2798 17.4066C23.6728 17.0157 23.9908 17.1652 24.9288 17.0679C27.1872 16.8359 29.315 15.8248 31.147 14.4704C31.8036 15.3872 32.7486 16.0433 33.8521 16.339C35.029 16.6544 36.2548 16.5245 37.3321 15.9757C37.8812 16.8992 38.2651 17.752 38.4593 18.2159C30.0419 23.083 30.5338 22.7737 30.4481 22.8615L28.8132 24.5375C27.8608 24.0945 26.8272 23.8411 25.7357 23.7835C25.4779 23.7687 25.2566 23.9684 25.2429 24.2269C25.2292 24.4855 25.4278 24.7061 25.6863 24.7197C26.5414 24.7649 27.3549 24.9449 28.1131 25.255L26.645 26.7599L10.5463 36.0549C9.58888 34.6085 9.76226 32.5917 11.0509 31.4664C11.2458 31.296 11.2658 30.9999 11.0955 30.8049C10.9251 30.6099 10.6289 30.5899 10.4341 30.7602C8.75613 32.2261 8.53788 34.8456 9.8467 36.6925C10.702 38.0272 10.5491 37.7889 10.5688 37.8174C11.0025 38.4465 11.8695 38.656 12.5621 38.2559C29.1878 28.6435 28.2471 29.2331 28.5003 29.0179C28.6748 28.8698 28.5063 29.0239 31.8645 25.4185L32.1518 25.916C32.3977 26.3419 32.9443 26.4883 33.3701 26.2425L37.6189 23.7894C37.8431 23.6599 37.9199 23.3732 37.7905 23.149C37.661 22.9248 37.3743 22.8481 37.1501 22.9775L32.9408 25.4078L32.5728 24.7702C32.3073 24.3105 31.6743 24.2457 31.3187 24.6285C27.6744 28.5448 27.9341 28.2984 27.7595 28.3992L12.0933 37.444C11.9249 37.5413 11.7283 37.5445 11.5637 37.4681C11.3491 37.3685 11.3034 37.2094 11.2464 37.1379L11.0569 36.8426C28.186 26.9459 27.185 27.5493 27.2711 27.4611L31.0743 23.5627C31.949 23.0577 38.0323 19.5455 38.8739 19.0595C40.0969 21.1861 40.0511 21.0755 40.0604 21.1467C40.0714 21.2284 40.0328 21.3122 39.9584 21.3559C39.9496 21.3611 39.0594 21.8752 39.0526 21.879C38.8284 22.0084 38.7516 22.2951 38.8811 22.5194C39.0106 22.7436 39.2973 22.8203 39.5214 22.6909C40.484 22.1352 40.4966 22.137 40.6139 22.0332C41.0164 21.678 41.122 21.0781 40.8462 20.6003ZM20.4364 19.7157L20.3004 19.6372L21.0286 18.0742L21.4519 18.3185C21.1189 18.7787 20.7998 19.2179 20.4364 19.7157ZM22.0033 17.5542L21.426 17.221L21.9314 16.136C21.9827 16.0261 22.1194 15.9885 22.2194 16.055L22.9029 16.5085C22.5018 16.7787 22.3247 17.1076 22.0033 17.5542ZM31.8873 13.8921C32.4018 13.4669 32.8308 13.064 33.1615 12.7307C33.425 12.4651 33.8233 12.4024 34.1529 12.5747C35.2143 13.1298 36.1161 14.1422 36.825 15.1797C35.0853 16.0165 32.9929 15.4675 31.8873 13.8921Z" fill="white"/>
</g>
<defs>
<filter id="filter0_b" x="-60" y="-60" width="169" height="169" filterUnits="userSpaceOnUse" color-interpolation-filters="sRGB">
<feFlood flood-opacity="0" result="BackgroundImageFix"/>
<feGaussianBlur in="BackgroundImage" stdDeviation="30"/>
<feComposite in2="SourceAlpha" operator="in" result="effect1_backgroundBlur"/>
<feBlend mode="normal" in="SourceGraphic" in2="effect1_backgroundBlur" result="shape"/>
</filter>
<clipPath id="clip0">
<rect width="32" height="32" fill="white" transform="translate(9 9)"/>
</clipPath>
</defs>
</svg>
