<svg width="45" height="45" viewBox="0 0 45 45" fill="none" xmlns="http://www.w3.org/2000/svg">
<g clip-path="url(#clip0)">
<path d="M22.5 36.4777C30.2199 36.4777 36.4781 30.2195 36.4781 22.4996C36.4781 14.7797 30.2199 8.52148 22.5 8.52148C14.7801 8.52148 8.52185 14.7797 8.52185 22.4996C8.52185 30.2195 14.7801 36.4777 22.5 36.4777Z" fill="#1CC5FF"/>
<path d="M42.5052 25.483C42.0278 25.3909 41.5676 25.7032 41.4758 26.1797C39.7287 35.2466 31.7482 41.8273 22.5 41.8273C13.4466 41.8273 5.60818 35.5209 3.64286 26.7494L3.87225 26.9788C4.0439 27.1505 4.26881 27.2364 4.49373 27.2364C4.71864 27.2364 4.94355 27.1505 5.11511 26.9789C5.45841 26.6357 5.45841 26.0793 5.1152 25.736L3.30773 23.9284C3.14294 23.7635 2.91934 23.6709 2.68626 23.6709C2.45317 23.6709 2.22958 23.7635 2.06478 23.9284L0.257399 25.736C-0.0858142 26.0792 -0.0858142 26.6356 0.257487 26.9789C0.600612 27.3222 1.15722 27.3221 1.50044 26.9788L1.82581 26.6535C3.78726 36.4731 12.4587 43.5852 22.5 43.5852C32.5892 43.5852 41.2956 36.405 43.2019 26.5124C43.2937 26.0358 42.9818 25.5749 42.5052 25.483Z" fill="black"/>
<path d="M44.7425 18.0203C44.3993 17.677 43.8427 17.6771 43.4995 18.0204L43.1741 18.3458C41.2127 8.52608 32.5412 1.41406 22.5 1.41406C12.4107 1.41406 3.70428 8.5942 1.79802 18.4868C1.70618 18.9635 2.0181 19.4243 2.49473 19.5162C2.97198 19.6079 3.43226 19.2959 3.52411 18.8195C5.27129 9.7526 13.2518 3.17188 22.5 3.17188C31.5533 3.17188 39.3918 9.47829 41.3571 18.2498L41.1277 18.0204C40.7846 17.6772 40.2281 17.6771 39.8847 18.0203C39.5414 18.3635 39.5414 18.9199 39.8847 19.2632L41.692 21.0708C41.8568 21.2357 42.0804 21.3283 42.3135 21.3283C42.5466 21.3283 42.7702 21.2357 42.935 21.0708L44.7424 19.2632C45.0858 18.92 45.0858 18.3635 44.7425 18.0203Z" fill="black"/>
<path d="M23.4273 26.3737C23.5338 26.4162 23.6437 26.4362 23.7518 26.4362C24.1012 26.4362 24.4317 26.2263 24.5687 25.8818L27.0011 19.7664C27.1805 19.3154 26.9602 18.8043 26.5093 18.6249C26.0584 18.4456 25.5471 18.6657 25.3677 19.1168L22.9354 25.2322C22.756 25.6832 22.9762 26.1943 23.4273 26.3737Z" fill="black"/>
<path d="M28.3941 20.3201H30.412L28.2655 25.203C28.0701 25.6474 28.272 26.1659 28.7164 26.3613C28.8315 26.4119 28.9515 26.4359 29.0697 26.4359C29.4077 26.4358 29.73 26.2397 29.8747 25.9105L32.5631 19.7951C32.6825 19.5232 32.6568 19.2096 32.4945 18.961C32.3322 18.7124 32.0554 18.5625 31.7585 18.5625H28.3942C27.9088 18.5625 27.5153 18.9561 27.5153 19.4414C27.5152 19.9266 27.9087 20.3201 28.3941 20.3201Z" fill="black"/>
<path d="M17.1437 24.1995C17.3018 24.4673 17.5896 24.6316 17.9005 24.6316H20.0739C20.0714 24.9556 20.0689 25.2659 20.0664 25.5501C20.0623 26.0355 20.4524 26.4323 20.9377 26.4365H20.9455C21.4273 26.4365 21.82 26.048 21.8242 25.5652C21.8262 25.3352 21.8289 25.0087 21.8319 24.6269C22.2745 24.5813 22.6198 24.2073 22.6198 23.7527C22.6198 23.302 22.2806 22.9306 21.8435 22.8797C21.8515 21.4491 21.8544 20.0088 21.8365 19.7931C21.7895 19.2279 21.4443 18.7653 20.957 18.6143C20.4704 18.4639 19.9588 18.6455 19.5882 19.1002C19.2401 19.5271 17.7539 22.1991 17.131 23.3281C16.9807 23.6005 16.9856 23.9317 17.1437 24.1995ZM20.0909 21.6465C20.0896 22.0261 20.0878 22.4438 20.0854 22.8738H19.3954C19.6397 22.4386 19.8771 22.0193 20.0909 21.6465Z" fill="black"/>
<path d="M16.6121 26.4817C17.0975 26.4757 17.4859 26.0772 17.4799 25.5918C17.4739 25.1103 17.0816 24.724 16.6013 24.724C16.5975 24.724 16.5938 24.724 16.59 24.7241C16.1088 24.7301 15.6032 24.7346 15.1465 24.7368C15.4627 24.3086 15.8687 23.7476 16.3815 23.0149C16.7861 22.4369 17.0505 21.8874 17.1678 21.3818C17.1966 21.2696 17.2205 21.111 17.2208 20.9467C17.2227 19.5992 16.1245 18.5029 14.777 18.5029C13.6119 18.5029 12.6035 19.3319 12.3791 20.474C12.2855 20.9502 12.5957 21.4122 13.0721 21.5058C13.5487 21.5996 14.0104 21.2892 14.1039 20.8128C14.1668 20.4929 14.4499 20.2607 14.777 20.2607C15.1402 20.2607 15.4384 20.5446 15.4615 20.9021L15.4461 21.0224C15.3936 21.2229 15.2628 21.5477 14.9414 22.0069C13.9749 23.3878 13.3983 24.1427 13.0886 24.5482C12.6914 25.0683 12.4727 25.3547 12.6188 25.8304C12.7049 26.11 12.9244 26.333 13.2068 26.4272C13.3242 26.4664 13.4181 26.4976 14.6184 26.4976C15.0897 26.4976 15.7315 26.4928 16.6121 26.4817Z" fill="black"/>
</g>
<defs>
<clipPath id="clip0">
<rect width="45" height="45" fill="white"/>
</clipPath>
</defs>
</svg>
