<svg width="64" height="64" viewBox="0 0 64 64" fill="none" xmlns="http://www.w3.org/2000/svg">
<path d="M49.473 28.0889H46.019C45.8158 28.0889 45.6127 28.292 45.5111 28.4952L44.0889 37.4349C44.0889 37.6381 44.1905 37.7397 44.3936 37.7397H46.2222C46.4254 37.7397 46.527 37.6381 46.527 37.4349L46.9333 34.8952C46.9333 34.6921 47.1365 34.4889 47.4412 34.4889H48.5587C50.8952 34.4889 52.2159 33.3714 52.5206 31.1365C52.7238 30.2222 52.5206 29.4095 52.1143 28.9016C51.5047 28.3936 50.5905 28.0889 49.473 28.0889ZM49.8793 31.4413C49.6762 32.6603 48.7619 32.6603 47.8476 32.6603H47.2381L47.6444 30.3238C47.6444 30.2222 47.746 30.1206 47.9492 30.1206H48.1524C48.7619 30.1206 49.3714 30.1206 49.6762 30.527C49.8793 30.6286 49.8793 30.9333 49.8793 31.4413Z" fill="#139AD6"/>
<path d="M24.5841 28.0889H21.1301C20.9269 28.0889 20.7238 28.292 20.6222 28.4952L19.2 37.4349C19.2 37.6381 19.3015 37.7397 19.5047 37.7397H21.1301C21.3333 37.7397 21.5365 37.5365 21.638 37.3333L22.0444 34.8952C22.0444 34.6921 22.2476 34.4889 22.5523 34.4889H23.6698C26.0063 34.4889 27.3269 33.3714 27.6317 31.1365C27.8349 30.2222 27.6317 29.4095 27.2253 28.9016C26.6158 28.3936 25.8031 28.0889 24.5841 28.0889ZM24.9904 31.4413C24.7873 32.6603 23.873 32.6603 22.9587 32.6603H22.4507L22.8571 30.3238C22.8571 30.2222 22.9587 30.1206 23.1619 30.1206H23.365C23.9746 30.1206 24.5841 30.1206 24.8888 30.527C24.9904 30.6286 25.092 30.9333 24.9904 31.4413Z" fill="white"/>
<path d="M35.0476 31.3399H33.4222C33.3206 31.3399 33.1174 31.4415 33.1174 31.5431L33.0158 32.051L32.9143 31.8478C32.5079 31.3399 31.7968 31.1367 30.9841 31.1367C29.1555 31.1367 27.5301 32.5589 27.2254 34.4891C27.0222 35.505 27.327 36.4193 27.8349 37.0288C28.3428 37.6383 29.054 37.8415 29.9682 37.8415C31.492 37.8415 32.3047 36.9272 32.3047 36.9272L32.2031 37.4351C32.2031 37.6383 32.3047 37.7399 32.5079 37.7399H34.0317C34.2349 37.7399 34.4381 37.5367 34.5397 37.3336L35.4539 31.6447C35.3523 31.5431 35.1492 31.3399 35.0476 31.3399ZM32.7111 34.5907C32.5079 35.505 31.7968 36.2161 30.7809 36.2161C30.273 36.2161 29.8666 36.0129 29.6635 35.8097C29.4603 35.505 29.3587 35.0986 29.3587 34.5907C29.4603 33.6764 30.273 32.9653 31.1873 32.9653C31.6952 32.9653 32 33.1685 32.3047 33.3716C32.6095 33.6764 32.7111 34.1843 32.7111 34.5907Z" fill="white"/>
<path d="M59.8349 31.3399H58.2096C58.108 31.3399 57.9048 31.4415 57.9048 31.5431L57.8032 32.051L57.7016 31.8478C57.2953 31.3399 56.5842 31.1367 55.7715 31.1367C53.9429 31.1367 52.3175 32.5589 52.0127 34.4891C51.8096 35.505 52.1143 36.4193 52.6223 37.0288C53.1302 37.6383 53.8413 37.8415 54.7556 37.8415C56.2794 37.8415 57.0921 36.9272 57.0921 36.9272L56.9905 37.4351C56.9905 37.6383 57.0921 37.7399 57.2953 37.7399H58.8191C59.0223 37.7399 59.2254 37.5367 59.327 37.3336L60.2413 31.6447C60.1397 31.5431 60.0381 31.3399 59.8349 31.3399ZM57.4984 34.5907C57.2953 35.505 56.5842 36.2161 55.5683 36.2161C55.0604 36.2161 54.654 36.0129 54.4508 35.8097C54.2477 35.505 54.1461 35.0986 54.1461 34.5907C54.2477 33.6764 55.0603 32.9653 55.9746 32.9653C56.4826 32.9653 56.7873 33.1685 57.0921 33.3716C57.4984 33.6764 57.6 34.1843 57.4984 34.5907Z" fill="#139AD6"/>
<path d="M43.8857 31.3398H42.1587C41.9556 31.3398 41.854 31.4414 41.7524 31.543L39.5175 34.997L38.5016 31.7462C38.4 31.543 38.2984 31.4414 37.9936 31.4414H36.3682C36.1651 31.4414 36.0635 31.6446 36.0635 31.8478L37.8921 37.2319L36.1651 39.67C36.0635 39.8732 36.1651 40.1779 36.3682 40.1779H37.9936C38.1968 40.1779 38.2984 40.0763 38.4 39.9747L43.9873 31.9494C44.2921 31.6446 44.0889 31.3398 43.8857 31.3398Z" fill="white"/>
<path d="M61.7651 28.3934L60.3429 37.5363C60.3429 37.7395 60.4445 37.841 60.6477 37.841H62.0699C62.2731 37.841 62.4762 37.6379 62.5778 37.4347L64 28.495C64 28.2918 63.8985 28.1902 63.6953 28.1902H62.0699C61.9683 28.0887 61.8667 28.1902 61.7651 28.3934Z" fill="#139AD6"/>
<path d="M11.6825 25.0413C10.9714 24.2286 9.65079 23.8223 7.82222 23.8223H2.74286C2.4381 23.8223 2.13333 24.127 2.03175 24.4318L0 37.7397C0 38.0445 0.203175 38.2477 0.406349 38.2477H3.55556L4.36825 33.2699V33.4731C4.46984 33.1683 4.7746 32.8635 5.07937 32.8635H6.60318C9.54921 32.8635 11.7841 31.6445 12.4952 28.2921C12.4952 28.1905 12.4952 28.0889 12.4952 27.9873C12.3937 27.9873 12.3937 27.9873 12.4952 27.9873C12.5968 26.6667 12.3937 25.854 11.6825 25.0413Z" fill="white"/>
<path d="M12.3937 27.9873C12.3937 28.0889 12.3937 28.1905 12.3937 28.2921C11.6826 31.746 9.44768 32.8635 6.50165 32.8635H4.97784C4.67308 32.8635 4.36831 33.1683 4.26673 33.473L3.25085 39.6698C3.25085 39.873 3.35244 40.0762 3.6572 40.0762H6.29847C6.60324 40.0762 6.908 39.873 6.908 39.5683V39.4667L7.41593 36.3175V36.1143C7.41593 35.8095 7.7207 35.6064 8.02546 35.6064H8.43181C10.9715 35.6064 13.0032 34.5905 13.5112 31.5429C13.7143 30.3238 13.6128 29.2064 13.0032 28.4952C12.9016 28.2921 12.6985 28.0889 12.3937 27.9873Z" fill="#139AD6"/>
<path d="M11.6826 27.6827C11.581 27.6827 11.4794 27.5811 11.3778 27.5811C11.2762 27.5811 11.1746 27.5811 11.073 27.4795C10.6667 27.3779 10.2604 27.3779 9.75241 27.3779H5.79051C5.68892 27.3779 5.58733 27.3779 5.48575 27.4795C5.28257 27.5811 5.18098 27.7843 5.18098 27.9875L4.36829 33.27V33.4732C4.46987 33.1684 4.77464 32.8636 5.0794 32.8636H6.60321C9.54924 32.8636 11.7842 31.6446 12.4953 28.2922C12.4953 28.1906 12.4953 28.089 12.5969 27.9875C12.3937 27.8859 12.2921 27.7843 12.0889 27.7843C11.7842 27.6827 11.7842 27.6827 11.6826 27.6827Z" fill="#232C65"/>
</svg>
