<svg width="28" height="28" viewBox="0 0 28 28" fill="none" xmlns="http://www.w3.org/2000/svg">
<path d="M24.2831 27.9563L24.3697 27.1107C24.4139 27.1153 24.4563 27.0926 24.4772 27.0536L27.0737 21.5405L27.0779 21.5317L27.0822 21.5229C27.1086 21.4701 27.0906 21.406 27.0407 21.3746L27.0328 21.3697L27.0328 21.3696L21.6973 17.9345C21.6524 17.9078 21.595 17.9148 21.5578 17.9518C21.5578 17.9519 21.5578 17.9519 21.5577 17.9519L19.4004 20.1103C19.4 20.1107 19.3996 20.1111 19.3992 20.1115C19.0031 20.5096 18.4445 20.7012 17.8874 20.63C16.6809 20.4766 13.8187 19.8139 10.9835 16.9787C8.14838 14.1436 7.48571 11.2814 7.33231 10.0749C7.26109 9.51777 7.45267 8.95921 7.8508 8.56312C7.8512 8.56272 7.8516 8.56232 7.852 8.56192L10.0108 6.40406L10.0109 6.40401C10.048 6.36694 10.0551 6.30956 10.0286 6.26463L6.59272 0.92952L6.58639 0.919697L6.58646 0.919655C6.55514 0.869513 6.49082 0.851416 6.43794 0.877867L6.42893 0.882375L6.41982 0.886668L0.906753 3.48312C0.86796 3.50389 0.845299 3.54602 0.849555 3.59002C1.12685 6.22238 2.27772 12.7684 8.73463 19.2258C15.193 25.6846 21.7395 26.834 24.3721 27.111L24.2831 27.9563ZM24.2831 27.9563C24.6821 27.9972 25.0643 27.7855 25.2415 27.4258L24.2831 27.9563Z" stroke="#25B4E5" stroke-width="1.7"/>
</svg>
