<svg width="63" height="68" viewBox="0 0 63 68" fill="none" xmlns="http://www.w3.org/2000/svg">
<path d="M53.9 34L27.5 25.8M18.6 29.8L6 34L2 66H32.9L18.6 29.8Z" stroke="#25B4E5" stroke-width="3" stroke-miterlimit="22.9256" stroke-linecap="round" stroke-linejoin="round"/>
<path d="M18.9 29.7L30 45.9L41 30.3" stroke="#25B4E5" stroke-width="3" stroke-miterlimit="22.9256" stroke-linecap="round" stroke-linejoin="round"/>
<path d="M12.7 50H20.5999" stroke="#25B4E5" stroke-width="3" stroke-miterlimit="22.9256" stroke-linecap="round" stroke-linejoin="round"/>
<path fill-rule="evenodd" clip-rule="evenodd" d="M30 2C36.6 2 42 7.4 42 14C42 19.4 39.4 22.5 35.6 24.4C32.4 26 29.2 26.6 25.8 25.3C21.3 23.6 18 19.2 18 14.1C18 7.39998 23.3 2 30 2Z" stroke="#25B4E5" stroke-width="3" stroke-miterlimit="22.9256" stroke-linecap="round" stroke-linejoin="round"/>
<path d="M41 55.6L50 63.6L61.5 46" stroke="#25B4E5" stroke-width="3" stroke-miterlimit="22.9256" stroke-linecap="round" stroke-linejoin="round"/>
</svg>
