<svg width="68" height="68" viewBox="0 0 68 68" fill="none" xmlns="http://www.w3.org/2000/svg">
<path d="M34 68C52.7777 68 68 52.7777 68 34C68 15.2223 52.7777 0 34 0C15.2223 0 0 15.2223 0 34C0 52.7777 15.2223 68 34 68Z" fill="url(#paint0_linear)"/>
<g clip-path="url(#clip0)">
<path d="M45.8999 43.367V43.0667C45.8999 41.7726 45.4944 40.511 44.7405 39.4593C45.444 38.3263 45.5266 36.9143 44.9599 35.7071C44.3933 34.4999 43.2543 33.6613 41.9332 33.4787V29.3584C42.1463 28.9347 42.2989 28.4832 42.3866 28.0171C42.4767 27.5581 42.7345 26.1993 41.9332 25.7289V24.9333C41.9343 24.3796 41.8773 23.8273 41.7632 23.2855C42.1287 23.184 42.4516 22.9669 42.6835 22.6667C43.0595 22.1823 43.1471 21.5335 42.913 20.9667C43.1685 20.4078 43.1036 19.7546 42.743 19.257C42.3771 18.7643 41.7796 18.4995 41.1688 18.5595C40.4822 17.9635 39.4536 17.9926 38.8018 18.6263C35.967 16.4575 32.0305 16.4575 29.1957 18.6263C28.5436 17.993 27.5152 17.9642 26.8287 18.56C26.2171 18.4995 25.6188 18.7651 25.2534 19.2593C24.8943 19.7568 24.8307 20.4091 25.0868 20.9667C24.854 21.5306 24.9404 22.176 25.3135 22.6587C25.5462 22.9653 25.8731 23.187 26.2439 23.29C26.1272 23.83 26.0678 24.3809 26.0666 24.9333V25.7267C25.2636 26.1947 25.522 27.5553 25.6132 28.0126C25.7008 28.4794 25.8534 28.9317 26.0666 29.3562V33.4787C24.7455 33.6613 23.6065 34.4999 23.0398 35.7071C22.4732 36.9143 22.5557 38.3263 23.2593 39.4593C22.5054 40.511 22.0999 41.7726 22.0999 43.0667V43.367C22.0883 43.5424 22.0066 43.7058 21.8732 43.8203C21.2559 44.3903 20.9242 45.2054 20.968 46.0444C21.0118 46.8835 21.4266 47.6596 22.0999 48.1621V49.3C22.0999 50.2389 22.861 51 23.7999 51H44.1999C45.1388 51 45.8999 50.2389 45.8999 49.3V48.1621C46.5716 47.6595 46.9853 46.8844 47.0291 46.0466C47.0729 45.2088 46.7422 44.3948 46.1266 43.8249C45.9923 43.7091 45.9105 43.544 45.8999 43.367ZM44.1999 37.4C44.1967 37.7957 44.1102 38.1863 43.946 38.5464C42.7924 37.447 41.2601 36.8337 39.6666 36.8333H37.9666V35.3113C38.1864 34.9894 38.4035 34.6494 38.6148 34.2697C39.1331 33.3204 39.5741 32.3308 39.9335 31.3106C40.2432 31.1663 40.5341 30.9848 40.7999 30.77V35.1333C40.7999 35.4463 41.0536 35.7 41.3666 35.7C41.6795 35.7 41.9332 35.4463 41.9332 35.1333V34.6233C43.2515 34.8944 44.1982 36.0541 44.1999 37.4ZM27.7048 29.7081C27.1864 29.1901 26.8435 28.5226 26.7245 27.7995C26.6241 27.4364 26.6047 27.0557 26.6678 26.6843C27.0535 26.5835 27.4642 26.6783 27.7666 26.9382V29.7574C27.7467 29.7392 27.7241 29.7268 27.7048 29.7081ZM29.1266 20.8488C29.3622 20.9244 29.6195 20.8383 29.7624 20.6363C29.798 20.5893 29.8401 20.5477 29.8876 20.5128C30.0791 20.3819 30.3263 20.3644 30.5343 20.4671C30.7424 20.5697 30.879 20.7764 30.8917 21.008C30.8984 21.2198 31.0238 21.4098 31.2159 21.4993C31.1387 21.8883 31.1921 22.2919 31.3677 22.6474C31.3575 22.6508 31.3502 22.6582 31.3394 22.661C31.0906 22.7337 30.9229 22.9658 30.932 23.2248C30.9373 23.4766 30.7727 23.7005 30.5308 23.7705C30.2657 23.8489 29.9798 23.755 29.8128 23.5348C29.6655 23.3469 29.4162 23.2714 29.1895 23.3461C28.928 23.4229 28.6463 23.3289 28.4834 23.1104C28.4645 23.0882 28.4483 23.0639 28.4352 23.0378C28.4284 23.0186 28.4211 22.9997 28.4131 22.9812C28.328 22.7982 28.3475 22.5837 28.4641 22.419C28.6102 22.2161 28.6061 21.9414 28.4539 21.743C28.2999 21.5409 28.2946 21.2623 28.4409 21.0545C28.6034 20.8485 28.8775 20.7662 29.1266 20.8488ZM38.1065 20.5048C38.1583 20.5416 38.2044 20.5859 38.2431 20.6363C38.3859 20.8383 38.6433 20.9244 38.8789 20.8488C39.1259 20.7685 39.3969 20.8498 39.5589 21.0528C39.7061 21.261 39.7013 21.5406 39.547 21.7436C39.3948 21.942 39.3907 22.2167 39.5368 22.4196C39.6534 22.5842 39.6729 22.7988 39.5878 22.9817C39.5844 22.9902 39.5702 23.0276 39.5663 23.0384C39.5519 23.067 39.5342 23.0939 39.5136 23.1183C39.3507 23.3343 39.0706 23.4261 38.8115 23.3484C38.5855 23.275 38.3378 23.3503 38.191 23.5371C38.0235 23.7581 37.7363 23.8519 37.4707 23.7722C37.2306 23.7009 37.068 23.4775 37.0741 23.2271C37.083 22.9695 36.917 22.7382 36.67 22.6644C36.661 22.6616 36.6536 22.6548 36.6445 22.6514C36.8213 22.2966 36.8711 21.892 36.7856 21.505C36.9804 21.4161 37.1078 21.2243 37.1143 21.0103C37.1269 20.7419 37.3071 20.5104 37.5642 20.4323C37.7457 20.373 37.9443 20.3997 38.1037 20.5048H38.1065ZM40.2332 26.9382C40.5355 26.6787 40.9458 26.5836 41.3314 26.6838C41.3946 27.0561 41.3753 27.4378 41.2748 27.8018C41.1552 28.525 40.812 29.1924 40.2933 29.7103C40.2746 29.7279 40.2525 29.7404 40.2332 29.7579V26.9382ZM40.7999 24.9333V25.5147C40.5057 25.5477 40.22 25.6339 39.9567 25.7692C39.9038 25.7035 39.8433 25.6443 39.7765 25.5929C39.7189 25.5501 39.6537 25.5185 39.5844 25.5C39.1476 25.3535 38.7603 25.0882 38.4658 24.7339C38.5946 24.6708 38.7156 24.5929 38.8262 24.5015C39.4423 24.559 40.0442 24.2936 40.4174 23.8C40.4469 23.762 40.4678 23.7258 40.4916 23.6867C40.5517 23.6663 40.614 23.6544 40.6718 23.63C40.7562 24.0593 40.7991 24.4958 40.7999 24.9333ZM35.6642 21.6467C35.7562 21.8962 35.6751 22.1766 35.4642 22.3386C35.2641 22.4862 35.1837 22.7471 35.2658 22.9817C35.354 23.2321 35.2729 23.5109 35.0641 23.6748C34.8578 23.8284 34.5751 23.8284 34.3688 23.6748C34.1677 23.5311 33.8966 23.5343 33.699 23.6827C33.4944 23.8372 33.2116 23.8351 33.0094 23.6776C32.7907 23.5138 32.6958 23.232 32.7708 22.9693C32.8377 22.7396 32.7531 22.4926 32.5594 22.3522C32.3444 22.1878 32.252 21.9085 32.3265 21.6484C32.3969 21.4016 32.6201 21.2296 32.8768 21.2245C33.1239 21.2215 33.3406 21.0587 33.4123 20.8222C33.4842 20.5741 33.7093 20.4018 33.9676 20.3972H33.9738C34.2344 20.406 34.4613 20.5777 34.5405 20.8261C34.6231 21.0562 34.8401 21.2105 35.0845 21.2132C35.3504 21.2192 35.5832 21.3933 35.6642 21.6467ZM27.5184 23.7037C27.5382 23.7331 27.5546 23.7603 27.5779 23.7926C27.9531 24.2863 28.5553 24.5531 29.173 24.4993C29.2838 24.5907 29.4049 24.6687 29.534 24.7316C29.2404 25.0854 28.854 25.3503 28.4182 25.4966C28.3475 25.5156 28.2813 25.5483 28.2233 25.5929C28.1564 25.6443 28.0959 25.7035 28.0431 25.7692C27.7798 25.6339 27.4941 25.5478 27.1999 25.5153V24.9333C27.2013 24.4966 27.2453 24.061 27.3314 23.6328C27.3923 23.66 27.4547 23.6837 27.5184 23.7037ZM29.0302 30.6329C28.944 30.3718 28.9 30.0986 28.8999 29.8237V26.5653C28.9 26.5526 28.9011 26.5399 28.9033 26.5274C29.7113 26.2222 30.3805 25.6332 30.7858 24.8704C30.8152 24.8631 30.8424 24.8591 30.873 24.85C31.2948 24.7185 31.6484 24.4273 31.8585 24.0386C31.9762 24.2547 32.1387 24.4432 32.335 24.5916C32.828 24.9589 33.4801 25.0338 34.0435 24.7877C34.6089 25.0315 35.2618 24.9514 35.7515 24.578C35.9223 24.4423 36.0657 24.2754 36.1742 24.0862C36.385 24.45 36.7238 24.7221 37.1245 24.8495C37.154 24.8585 37.1812 24.8625 37.2135 24.8704C37.619 25.6329 38.2881 26.2219 39.0959 26.5274C39.0985 26.5399 39.0998 26.5526 39.0999 26.5653V29.8237C39.0999 30.0975 39.0561 30.3695 38.9701 30.6295C38.6134 31.6958 38.1638 32.7289 37.6266 33.7167C36.8332 35.1401 35.565 36.8333 33.9999 36.8333C32.4348 36.8333 31.1666 35.1401 30.3732 33.7167C29.8367 32.7298 29.3873 31.6979 29.0302 30.6329ZM33.9999 39.6667C31.2748 39.6667 31.1666 37.6267 31.1666 37.4V36.6724C31.9027 37.4616 32.9214 37.9269 33.9999 37.9667C35.0783 37.9269 36.0971 37.4616 36.8332 36.6724V37.3966C36.8304 37.6267 36.725 39.6667 33.9999 39.6667ZM31.1666 39.8667C31.8046 40.4055 32.5997 40.7235 33.4332 40.7734V40.8C33.4332 41.4259 32.9258 41.9333 32.2999 41.9333C31.674 41.9333 31.1666 41.4259 31.1666 40.8V39.8667ZM34.5666 40.7734C35.4001 40.7235 36.1952 40.4055 36.8332 39.8667V40.8C36.8332 41.4259 36.3258 41.9333 35.6999 41.9333C35.074 41.9333 34.5666 41.4259 34.5666 40.8V40.7734ZM39.8275 19.2967C40.0754 19.214 40.3485 19.2978 40.5075 19.5052C40.6507 19.7057 40.907 19.7907 41.1416 19.7155C41.3886 19.6351 41.6596 19.7164 41.8216 19.9195C41.9688 20.1277 41.964 20.4072 41.8097 20.6102C41.658 20.8081 41.6534 21.0818 41.7984 21.2846C41.9445 21.4971 41.9356 21.7799 41.7763 21.9827C41.6134 22.1987 41.3333 22.2905 41.0742 22.2128C40.945 22.1732 40.8059 22.181 40.682 22.2349C40.6684 22.1907 40.6605 22.1448 40.6429 22.1011C40.8991 21.5422 40.8341 20.8885 40.4729 20.3909C40.2135 20.0431 39.8325 19.8057 39.4059 19.7262C39.4666 19.5221 39.6245 19.3612 39.8275 19.2967ZM37.7592 19.2763C37.014 19.2565 36.3417 19.721 36.0966 20.4249C35.9068 20.2803 35.6889 20.1771 35.4568 20.1218C35.1474 19.5888 34.5761 19.2625 33.9598 19.2669C33.3435 19.2712 32.7769 19.6055 32.475 20.1427C32.2682 20.1985 32.0741 20.2936 31.9032 20.4227C31.6585 19.7194 30.9861 19.2559 30.2418 19.2774C32.5157 17.7535 35.4847 17.753 37.7592 19.2763ZM26.1992 21.2846C26.3441 21.0818 26.3395 20.8081 26.1878 20.6102C26.0338 20.4081 26.0285 20.1295 26.1748 19.9217C26.3362 19.7179 26.6073 19.6356 26.8548 19.7155C27.0894 19.7907 27.3457 19.7057 27.4889 19.5052C27.6485 19.2965 27.9235 19.2129 28.1723 19.2973C28.3744 19.3621 28.5314 19.5227 28.5916 19.7262C28.1626 19.8046 27.7793 20.0428 27.5189 20.3926C27.1598 20.8903 27.0968 21.5428 27.354 22.1C27.3365 22.1431 27.3285 22.189 27.3149 22.2332C27.191 22.1795 27.0519 22.1718 26.9228 22.2116C26.661 22.2889 26.3788 22.1946 26.2162 21.9753C26.0609 21.7733 26.0538 21.4942 26.1986 21.2846H26.1992ZM26.0666 34.6233V35.1333C26.0666 35.4463 26.3203 35.7 26.6332 35.7C26.9462 35.7 27.1999 35.4463 27.1999 35.1333V30.77C27.4655 30.9845 27.7563 31.1659 28.0658 31.31C28.4257 32.3301 28.8669 33.3196 29.385 34.2692C29.5963 34.6488 29.8134 34.9894 30.0332 35.3107V36.8333H28.3332C26.7397 36.8337 25.2074 37.447 24.0538 38.5464C23.6964 37.7645 23.7169 36.8619 24.1093 36.097C24.5018 35.3321 25.223 34.7891 26.0666 34.6233ZM23.2332 49.3V48.6727C23.3568 48.699 23.4822 48.7157 23.6084 48.7226C23.6719 48.7307 23.7359 48.7343 23.7999 48.7333H26.0666V49.8667H23.7999C23.4869 49.8667 23.2332 49.613 23.2332 49.3ZM44.1999 49.8667H41.9332V48.7333H44.1999C44.2466 48.7349 44.2934 48.7329 44.3399 48.7271C44.4833 48.719 44.626 48.7001 44.7666 48.6704V49.3C44.7666 49.613 44.5128 49.8667 44.1999 49.8667ZM45.0499 47.3733C44.8181 47.508 44.5572 47.5846 44.2894 47.5966C44.2724 47.5966 44.2197 47.5994 44.2027 47.6017H42.1939C42.7558 46.9798 43.0667 46.1715 43.0666 45.3333V44.7667C43.0666 44.4537 42.8128 44.2 42.4999 44.2C42.1869 44.2 41.9332 44.4537 41.9332 44.7667V45.3333C41.9332 46.5852 40.9184 47.6 39.6666 47.6C39.3536 47.6 39.0999 47.8537 39.0999 48.1667C39.0999 48.4796 39.3536 48.7333 39.6666 48.7333C40.0529 48.7324 40.4362 48.6653 40.7999 48.535V49.8667H27.1999V48.535C27.5636 48.6653 27.9469 48.7324 28.3332 48.7333C28.6462 48.7333 28.8999 48.4796 28.8999 48.1667C28.8999 47.8537 28.6462 47.6 28.3332 47.6C27.0814 47.6 26.0666 46.5852 26.0666 45.3333V44.7667C26.0666 44.4537 25.8128 44.2 25.4999 44.2C25.1869 44.2 24.9332 44.4537 24.9332 44.7667V45.3333C24.9329 46.171 25.2439 46.9788 25.8059 47.6H23.7132C23.4438 47.5873 23.1815 47.5095 22.9488 47.3733C22.4229 47.0692 22.0993 46.5075 22.0999 45.9C22.0972 45.4261 22.2952 44.9731 22.645 44.6533C23.0127 44.3259 23.2261 43.8593 23.2332 43.367V43.0667C23.2363 40.2513 25.5179 37.9698 28.3332 37.9667H30.0332V40.8C30.029 41.7452 30.6143 42.5929 31.4996 42.924C32.3849 43.2551 33.3828 42.9995 33.9999 42.2835C34.617 42.9995 35.6149 43.2551 36.5002 42.924C37.3855 42.5929 37.9707 41.7452 37.9666 40.8V37.9667H39.6666C42.4819 37.9698 44.7634 40.2513 44.7666 43.0667V43.367C44.7741 43.8595 44.9882 44.3262 45.3565 44.6533C45.7056 44.9734 45.903 45.4263 45.8999 45.9C45.9003 46.5077 45.5762 47.0695 45.0499 47.3733Z" fill="white"/>
</g>
<defs>
<linearGradient id="paint0_linear" x1="4.5" y1="12" x2="62.5" y2="56" gradientUnits="userSpaceOnUse">
<stop stop-color="#159CF9"/>
<stop offset="1" stop-color="#F8D30F"/>
</linearGradient>
<clipPath id="clip0">
<rect width="34" height="34" fill="white" transform="translate(17 17)"/>
</clipPath>
</defs>
</svg>
