<svg width="49" height="49" viewBox="0 0 49 49" fill="none" xmlns="http://www.w3.org/2000/svg">
<g filter="url(#filter0_b)">
<rect width="49" height="49" rx="24.5" fill="#252525" fill-opacity="0.2"/>
</g>
<g clip-path="url(#clip0)">
<path d="M40.5424 32.3743C40.4229 32.2689 40.2966 32.1576 40.164 32.0398L34.9139 27.3759C33.9732 26.5387 33.3689 26.5819 32.4543 26.6472C32.389 26.6519 32.3212 26.6567 32.2509 26.6614C27.5081 26.9757 25.4996 26.3114 22.9517 21.7594C22.3439 20.6741 21.8432 19.4798 21.3132 18.2154C19.8587 14.7459 18.3549 11.1586 14.4286 9.30259C13.8119 8.97132 13.2803 8.9049 12.8482 9.10518C12.3828 9.3209 12.2266 9.76015 12.1858 9.90931C11.9996 10.4 11.7282 10.9724 11.4411 11.5778C10.804 12.9213 10.0818 14.4441 10.0168 15.6854C9.98215 16.3332 9.98778 16.9922 10.1646 17.5908C11.0032 22.4611 11.5448 28.9895 11.5448 34.2343C11.5448 34.6598 11.8909 35.0059 12.3164 35.0059H14.396C14.8205 35.0059 15.1659 34.6598 15.1659 34.2343V29.0068C15.1659 27.4075 15.6149 25.9247 16.1349 24.2078C16.1372 24.2001 16.1396 24.1922 16.1419 24.1845C17.2537 25.4935 18.4163 27.0472 19.6016 28.9812C20.2384 30.0204 21.6521 32.698 21.709 32.8121C22.2002 33.7973 22.4966 34.3921 23.2206 34.7083C23.8772 34.9951 24.7966 35.0077 26.6487 35.0077H30.8274C31.0863 35.0077 31.2961 34.7979 31.2961 34.5391C31.2961 34.2802 31.0863 34.0704 30.8274 34.0704H26.6487C24.9753 34.0704 24.0795 34.0606 23.5958 33.8492C23.2036 33.6779 23.0203 33.3415 22.5479 32.3939C22.4903 32.2784 21.1922 29.8093 20.6082 28.8394C17.837 24.2378 15.133 21.6246 13.0614 19.6224C12.4889 19.0691 11.9482 18.5466 11.4647 18.04C10.9655 17.5179 10.899 16.741 10.9527 15.7348C11.0081 14.6782 11.688 13.2444 12.2879 11.9793C12.4323 11.6749 12.5725 11.3788 12.7018 11.094L15.9791 16.6842C16.0663 16.833 16.223 16.9159 16.3839 16.9159C16.4644 16.9159 16.546 16.8952 16.6205 16.8515C16.8437 16.7206 16.9187 16.4334 16.7877 16.2102L13.1601 10.0221C13.1817 9.99599 13.2084 9.97143 13.2424 9.95562C13.3109 9.92381 13.5217 9.87738 13.9939 10.1332C14.0016 10.1373 14.0094 10.1413 14.0173 10.145C17.6266 11.846 19.0612 15.2682 20.4486 18.5778C20.9893 19.8675 21.4999 21.0857 22.1337 22.2173C23.5445 24.7376 24.822 26.1401 26.4056 26.907C27.856 27.6095 29.5287 27.732 31.5474 27.64C29.458 28.6155 27.9347 29.0546 26.5878 28.7903C24.9048 28.4602 23.3366 26.9846 21.1767 23.6985L17.8827 18.0775C17.7517 17.8541 17.4646 17.7793 17.2413 17.91C17.018 18.0409 16.943 18.3281 17.0739 18.5514L20.374 24.1828C20.378 24.1897 20.3822 24.1965 20.3866 24.2032C22.7036 27.7303 24.4479 29.3259 26.4073 29.7102C26.7282 29.7731 27.0532 29.8037 27.387 29.8037C29.0814 29.8037 30.9949 29.0127 33.6551 27.644C33.8476 27.7204 34.0403 27.8533 34.2911 28.0765L39.5415 32.7407C39.6749 32.8592 39.8021 32.9713 39.9224 33.0774C40.3041 33.4139 40.6951 33.7587 40.909 33.9883C40.3879 34.0686 39.2988 34.0686 38.836 34.0686H33.0542C32.7954 34.0686 32.5856 34.2785 32.5856 34.5373C32.5856 34.7961 32.7954 35.006 33.0542 35.006H38.836C41.0637 35.006 41.743 34.9221 41.9528 34.367C42.1651 33.805 41.6566 33.3567 40.5424 32.3743ZM14.2285 34.0686H12.482C12.4809 33.5467 12.475 33.0169 12.4651 32.4816H14.2285V34.0686H14.2285ZM12.4101 20.2965C13.3389 21.1941 14.349 22.1704 15.4137 23.3522C15.3548 23.5491 15.2959 23.7443 15.2378 23.9361C14.7188 25.6499 14.2285 27.2687 14.2285 29.0068V31.5443H12.4433C12.3296 27.4556 11.9684 23.1023 11.3943 19.3057C11.7183 19.6278 12.0582 19.9564 12.4101 20.2965Z" fill="white"/>
</g>
<defs>
<filter id="filter0_b" x="-60" y="-60" width="169" height="169" filterUnits="userSpaceOnUse" color-interpolation-filters="sRGB">
<feFlood flood-opacity="0" result="BackgroundImageFix"/>
<feGaussianBlur in="BackgroundImage" stdDeviation="30"/>
<feComposite in2="SourceAlpha" operator="in" result="effect1_backgroundBlur"/>
<feBlend mode="normal" in="SourceGraphic" in2="effect1_backgroundBlur" result="shape"/>
</filter>
<clipPath id="clip0">
<rect width="32" height="32" fill="white" transform="translate(10 6)"/>
</clipPath>
</defs>
</svg>
