<svg width="17" height="14" viewBox="0 0 17 14" fill="none" xmlns="http://www.w3.org/2000/svg">
<path d="M15.6849 12.5175C15.6239 12.4637 15.5595 12.4069 15.4919 12.3469L12.8132 9.96728C12.3333 9.54014 12.0249 9.56217 11.5583 9.59549C11.525 9.59788 11.4904 9.60034 11.4545 9.60276C9.03475 9.7631 8.01002 9.42418 6.71005 7.10172C6.39995 6.548 6.1445 5.93865 5.87407 5.29355C5.13199 3.52343 4.36475 1.69314 2.36153 0.746212C2.04688 0.577199 1.77568 0.543307 1.5552 0.645493C1.31777 0.755553 1.23809 0.979661 1.21727 1.05577C1.12226 1.30611 0.983762 1.59816 0.837291 1.90705C0.512241 2.5925 0.143799 3.36944 0.110609 4.00273C0.0929454 4.33326 0.0958149 4.66947 0.186012 4.97488C0.613885 7.45976 0.890217 10.7906 0.890217 13.4665C0.890217 13.6836 1.06682 13.8602 1.28388 13.8602H2.34492C2.56147 13.8602 2.73769 13.6836 2.73769 13.4665V10.7994C2.73769 9.98342 2.9668 9.22689 3.2321 8.3509C3.23328 8.34698 3.23449 8.34296 3.23567 8.33904C3.80291 9.00686 4.39609 9.79958 5.00082 10.7863C5.32574 11.3165 6.04701 12.6826 6.07602 12.7409C6.32662 13.2435 6.47788 13.547 6.84727 13.7083C7.18224 13.8546 7.65134 13.8611 8.59629 13.8611H10.7283C10.8603 13.8611 10.9674 13.754 10.9674 13.622C10.9674 13.4899 10.8603 13.3828 10.7283 13.3828H8.59629C7.74252 13.3828 7.28548 13.3778 7.03867 13.27C6.8386 13.1826 6.74506 13.0109 6.50402 12.5275C6.47466 12.4686 5.81238 11.2088 5.5144 10.714C4.1005 8.3662 2.72095 7.03294 1.66399 6.01144C1.37191 5.72914 1.09602 5.46254 0.849343 5.20409C0.59466 4.93767 0.560704 4.54133 0.588123 4.02795C0.616372 3.48887 0.963293 2.75734 1.26934 2.1119C1.34302 1.95656 1.41457 1.8055 1.48053 1.66018L3.15262 4.51235C3.19713 4.58827 3.27706 4.63058 3.35912 4.63058C3.40022 4.63058 3.44183 4.61999 3.47983 4.5977C3.59375 4.53091 3.63198 4.3844 3.56519 4.27049L1.71437 1.11331C1.72537 1.09999 1.73898 1.08746 1.75632 1.07939C1.7913 1.06316 1.89884 1.03947 2.13975 1.16997C2.14367 1.17208 2.14766 1.17412 2.15171 1.176C3.99315 2.04386 4.72513 3.78988 5.43297 5.47845C5.70882 6.13645 5.96937 6.75798 6.29273 7.33536C7.01249 8.62121 7.66431 9.33679 8.47223 9.72806C9.21224 10.0865 10.0657 10.149 11.0956 10.102C10.0296 10.5998 9.25238 10.8238 8.5652 10.6889C7.70653 10.5205 6.90642 9.76763 5.80444 8.09108L4.12381 5.22319C4.05702 5.10924 3.91051 5.07104 3.79659 5.13777C3.68264 5.20454 3.64442 5.35104 3.71118 5.46499L5.3949 8.33818C5.39694 8.34169 5.39911 8.34516 5.40134 8.34857C6.58347 10.1481 7.47343 10.9622 8.47313 11.1582C8.63685 11.1904 8.80264 11.206 8.97296 11.206C9.83747 11.206 10.8137 10.8024 12.171 10.1041C12.2692 10.1431 12.3675 10.2109 12.4954 10.3247L15.1742 12.7044C15.2423 12.7649 15.3072 12.8221 15.3686 12.8762C15.5633 13.0479 15.7628 13.2238 15.8719 13.341C15.6061 13.3819 15.0504 13.3819 14.8143 13.3819H11.8644C11.7324 13.3819 11.6253 13.489 11.6253 13.6211C11.6253 13.7531 11.7324 13.8602 11.8644 13.8602H14.8143C15.9509 13.8602 16.2975 13.8174 16.4045 13.5342C16.5128 13.2475 16.2534 13.0187 15.6849 12.5175ZM2.25944 13.3819H1.3684C1.36783 13.1157 1.36483 12.8453 1.35976 12.5722H2.25947V13.3819H2.25944ZM1.3317 6.35536C1.80558 6.81333 2.32091 7.31141 2.86414 7.91439C2.83407 8.01485 2.80404 8.11442 2.77442 8.21227C2.5096 9.08667 2.25947 9.9126 2.25947 10.7994V12.094H1.34863C1.29064 10.008 1.10632 7.78689 0.813442 5.84982C0.978756 6.01418 1.15214 6.18182 1.3317 6.35536Z" fill="white"/>
</svg>
